<svg width="193" height="48" viewBox="0 0 193 48" fill="none" xmlns="http://www.w3.org/2000/svg">
<mask id="mask0_309_1052" style="mask-type:luminance" maskUnits="userSpaceOnUse" x="0" y="0" width="47" height="44">
<path d="M0.335205 0H46.5123V43.75H0.335205V0Z" fill="white"/>
</mask>
<g mask="url(#mask0_309_1052)">
<mask id="mask1_309_1052" style="mask-type:luminance" maskUnits="userSpaceOnUse" x="0" y="0" width="47" height="44">
<path d="M24.9967 25.1198V5.57813C24.9967 4.82293 25.7258 4.27084 26.455 4.47918L45.6685 9.84376C46.1685 9.97918 46.5071 10.4323 46.5071 10.9427V30.4844C46.5071 31.2396 45.7831 31.7917 45.0487 31.5833L25.8352 26.2188C25.3404 26.0833 24.9967 25.6302 24.9967 25.1198ZM10.4967 12.4271L20.3873 15.1875C21.1217 15.3958 21.8456 14.849 21.8456 14.0886V4.04168C21.8456 3.53126 21.5071 3.08334 21.0071 2.94272L11.1165 0.1823C10.3821 -0.0260329 9.65812 0.526049 9.65812 1.28126V11.3281C9.65812 11.8386 9.99666 12.2917 10.4967 12.4271ZM21.0071 17.5104L1.79354 12.1458C1.06437 11.9427 0.335205 12.4896 0.335205 13.25V32.7865C0.335205 33.3021 0.678956 33.75 1.17375 33.8906L20.3873 39.2552C21.1217 39.4583 21.8456 38.9115 21.8456 38.1511V18.6146C21.8456 18.099 21.5071 17.6511 21.0071 17.5104ZM36.3508 31.3021L26.455 28.5417C25.7258 28.3385 24.9967 28.8854 24.9967 29.6406V39.6875C24.9967 40.1979 25.3404 40.651 25.8352 40.7865L35.731 43.5521C36.4602 43.7552 37.1894 43.2083 37.1894 42.4479V32.4063C37.1894 31.8906 36.8456 31.4427 36.3508 31.3021Z" fill="white"/>
</mask>
<g mask="url(#mask1_309_1052)">
<path d="M46.5071 -0.026123H0.335205V43.7499H46.5071V-0.026123Z" fill="url(#paint0_linear_309_1052)"/>
</g>
</g>
<path d="M71.8977 3.27856C75.2415 3.27856 77.5956 3.28898 78.9602 3.2994C88.1269 3.52336 92.7102 7.83065 92.7102 16.2161C92.7102 20.4244 91.5279 23.6744 89.1685 25.9661C86.8196 28.2473 83.3352 29.3827 78.7102 29.3827H71.9185C71.4446 29.3827 71.2102 29.1431 71.2102 28.6536V3.90356C71.2102 3.66919 71.2571 3.50773 71.356 3.4244C71.4498 3.33065 71.6321 3.27856 71.8977 3.27856ZM76.7519 7.00773C76.5279 7.00773 76.4185 7.16919 76.4185 7.4869V25.2369C76.4185 25.4036 76.4498 25.5181 76.5227 25.5702C76.606 25.6275 76.7206 25.6536 76.8769 25.6536H77.7727C81.0748 25.6536 83.4862 24.9348 85.0019 23.4869C86.5123 22.0286 87.2727 19.6067 87.2727 16.2161C87.2727 14.039 86.9654 12.2994 86.356 11.0077C85.7415 9.70565 84.8352 8.74732 83.6269 8.13273C82.4185 7.52336 80.8404 7.16919 78.8977 7.07023L76.7519 7.00773Z" fill="#5F4DEE"/>
<path d="M102.004 3.27856C102.322 3.27856 102.483 3.46606 102.483 3.84106V28.6119C102.483 28.8931 102.421 29.0911 102.296 29.2161C102.171 29.3306 101.952 29.3827 101.65 29.3827H97.9832C97.702 29.3827 97.5145 29.3359 97.4207 29.2369C97.3218 29.1431 97.2749 28.9817 97.2749 28.7577V3.8619C97.2749 3.47648 97.452 3.27856 97.8166 3.27856H102.004Z" fill="#5F4DEE"/>
<path d="M118.538 29.7368C116.215 29.7368 114.189 29.1952 112.455 28.1118C110.731 27.0181 109.398 25.466 108.455 23.466C107.523 21.4556 107.059 19.1066 107.059 16.4243C107.059 13.6899 107.543 11.2993 108.517 9.25765C109.486 7.21598 110.856 5.65348 112.622 4.57015C114.398 3.4764 116.46 2.92432 118.809 2.92432C120.569 2.92432 122.184 3.27328 123.642 3.96598C125.111 4.6639 126.309 5.56494 127.226 6.67432C128.153 7.7889 128.736 8.9764 128.976 10.2368L129.059 10.6326C129.059 10.8722 128.913 11.0076 128.622 11.0493L124.726 11.6535C124.543 11.6535 124.418 11.6222 124.351 11.5493C124.293 11.4816 124.247 11.3514 124.205 11.1535C123.981 9.86182 123.377 8.79411 122.392 7.94515C121.418 7.08578 120.189 6.65348 118.705 6.65348C114.58 6.65348 112.517 9.84098 112.517 16.216C112.517 19.6066 113.049 22.0858 114.122 23.6535C115.205 25.2264 116.778 26.0077 118.851 26.0077C120.486 26.0077 121.799 25.5389 122.788 24.591C123.773 23.6327 124.361 22.4972 124.559 21.1743L124.58 19.7785C124.606 19.7368 124.622 19.6743 124.622 19.591C124.622 19.4139 124.502 19.3202 124.267 19.3202H119.476C119.293 19.3202 119.168 19.2889 119.101 19.216C119.028 19.1483 118.997 19.0077 118.997 18.7993V16.5493C118.997 16.2577 119.153 16.1118 119.476 16.1118L128.622 16.1535C128.913 16.1535 129.127 16.2264 129.267 16.3618C129.403 16.4868 129.476 16.6535 129.476 16.8618V28.8827C129.476 29.216 129.319 29.3827 129.017 29.3827H127.997C127.788 29.3827 127.611 29.3514 127.476 29.2785C127.351 29.2108 127.247 29.0702 127.163 28.8618L126.372 26.0702C126.33 25.9764 126.278 25.9347 126.226 25.9452C126.168 25.9608 126.106 26.0181 126.038 26.1118C124.273 28.5285 121.773 29.7368 118.538 29.7368Z" fill="#5F4DEE"/>
<path d="M139.043 3.27856C139.361 3.27856 139.522 3.46606 139.522 3.84106V28.6119C139.522 28.8931 139.46 29.0911 139.335 29.2161C139.21 29.3306 138.991 29.3827 138.689 29.3827H135.022C134.741 29.3827 134.554 29.3359 134.46 29.2369C134.361 29.1431 134.314 28.9817 134.314 28.7577V3.8619C134.314 3.47648 134.491 3.27856 134.856 3.27856H139.043Z" fill="#5F4DEE"/>
<path d="M165.39 28.5286C165.432 28.6119 165.453 28.7265 165.453 28.8619C165.453 29.0025 165.401 29.1275 165.307 29.2369C165.223 29.3359 165.098 29.3827 164.932 29.3827H160.64C160.442 29.3827 160.291 29.3411 160.182 29.2577C160.083 29.1744 160 29.0286 159.932 28.8202L155.89 18.5494C155.817 18.3827 155.713 18.2681 155.578 18.1952C155.437 18.1275 155.223 18.0911 154.932 18.0911H150.723C150.432 18.0911 150.286 18.2161 150.286 18.4661V28.6536C150.286 28.9036 150.223 29.0911 150.098 29.2161C149.973 29.3306 149.77 29.3827 149.494 29.3827H145.765C145.5 29.3827 145.317 29.3359 145.223 29.2369C145.125 29.1275 145.078 28.9661 145.078 28.7577V3.8619C145.078 3.47648 145.255 3.27856 145.619 3.27856H156.203C159.229 3.27856 161.578 3.89315 163.244 5.1119C164.911 6.32023 165.744 8.05981 165.744 10.3202C165.744 12.0702 165.27 13.539 164.328 14.7161C163.395 15.8827 162.223 16.7161 160.807 17.2161C160.625 17.289 160.583 17.44 160.682 17.6744L165.39 28.5286ZM155.473 14.5077C158.723 14.5077 160.348 13.2369 160.348 10.6952C160.348 9.43481 159.953 8.47648 159.161 7.82023C158.38 7.15356 157.291 6.82023 155.89 6.82023H150.932C150.692 6.82023 150.526 6.85669 150.432 6.9244C150.333 6.99732 150.286 7.12752 150.286 7.32023V13.9661C150.286 14.164 150.317 14.2994 150.39 14.3827C150.473 14.4661 150.588 14.5077 150.744 14.5077H155.473Z" fill="#5F4DEE"/>
<path d="M175.803 17.8827C175.511 17.8827 175.366 18.0077 175.366 18.2577V28.6744C175.366 29.1484 175.1 29.3827 174.574 29.3827H170.845C170.579 29.3827 170.397 29.3359 170.303 29.2369C170.204 29.1275 170.157 28.9661 170.157 28.7577V3.8619C170.157 3.47648 170.334 3.27856 170.699 3.27856H174.886C175.204 3.27856 175.366 3.46606 175.366 3.84106V13.2994C175.366 13.6744 175.532 13.8619 175.866 13.8619H185.157C185.491 13.8619 185.657 13.69 185.657 13.3411V3.84106C185.657 3.46606 185.813 3.27856 186.136 3.27856H190.324C190.683 3.27856 190.866 3.47648 190.866 3.8619V28.7577C190.866 29.1744 190.636 29.3827 190.178 29.3827H186.449C186.168 29.3827 185.97 29.3359 185.845 29.2369C185.72 29.1275 185.657 28.94 185.657 28.6744V18.2577C185.657 18.0077 185.511 17.8827 185.22 17.8827H175.803Z" fill="#5F4DEE"/>
<path d="M69.9229 45.5007C69.824 45.5007 69.7406 45.4747 69.6729 45.4174C69.6156 45.3653 69.5896 45.2872 69.5896 45.1882V40.0216C69.5896 39.9278 69.6156 39.8497 69.6729 39.7924C69.7406 39.7247 69.824 39.6882 69.9229 39.6882C70.0323 39.6882 70.1156 39.7247 70.1729 39.7924C70.225 39.8497 70.2563 39.9278 70.2563 40.0216V44.9174H72.9021C72.9959 44.9174 73.074 44.9486 73.1313 45.0007C73.1833 45.058 73.2146 45.1257 73.2146 45.2091C73.2146 45.308 73.1833 45.3861 73.1313 45.4382C73.074 45.4799 72.9959 45.5007 72.9021 45.5007H69.9229Z" fill="#C64FFF"/>
<path d="M74.2202 42.0424C74.1473 42.0424 74.0952 42.0216 74.0535 41.9799C74.0223 41.9382 74.0015 41.8861 73.991 41.8132L73.8452 40.1466V40.0632C73.8452 39.9382 73.8765 39.8497 73.9494 39.7924C74.0171 39.7247 74.1056 39.6882 74.2202 39.6882C74.314 39.6882 74.3973 39.7247 74.4702 39.7924C74.5379 39.8497 74.5744 39.9382 74.5744 40.0632C74.5744 40.0945 74.5744 40.1205 74.5744 40.1466L74.4285 41.8132C74.4129 41.9695 74.3452 42.0424 74.2202 42.0424Z" fill="#C64FFF"/>
<path d="M77.3841 45.5633C77.0091 45.5633 76.6758 45.48 76.3841 45.3133C76.0924 45.1362 75.8685 44.8914 75.7174 44.5841C75.5612 44.2664 75.4883 43.8966 75.4883 43.48C75.4883 43.0633 75.5612 42.7039 75.7174 42.3966C75.8685 42.0789 76.0924 41.8341 76.3841 41.6675C76.6758 41.5008 77.0091 41.4175 77.3841 41.4175C77.7591 41.4175 78.0924 41.5008 78.3841 41.6675C78.6758 41.8341 78.8945 42.0789 79.0508 42.3966C79.2018 42.7039 79.2799 43.0633 79.2799 43.48C79.2799 43.8966 79.2018 44.2664 79.0508 44.5841C78.8945 44.8914 78.6758 45.1362 78.3841 45.3133C78.0924 45.48 77.7591 45.5633 77.3841 45.5633ZM77.3841 45.0008C77.7695 45.0008 78.0716 44.8758 78.2799 44.6258C78.4883 44.3654 78.5924 43.98 78.5924 43.48C78.5924 42.9956 78.4883 42.6206 78.2799 42.355C78.0716 42.0946 77.7695 41.9591 77.3841 41.9591C76.9935 41.9591 76.6862 42.0946 76.4674 42.355C76.2591 42.6206 76.1549 42.9956 76.1549 43.48C76.1549 43.98 76.2591 44.3654 76.4674 44.6258C76.6862 44.8758 76.9935 45.0008 77.3841 45.0008Z" fill="#C64FFF"/>
<path d="M82.2416 41.4383C82.476 41.4122 82.5958 41.5008 82.5958 41.7091C82.5958 41.7924 82.5645 41.8654 82.5125 41.9174C82.4708 41.9747 82.3875 42.0112 82.2625 42.0216L82.0125 42.0424C81.6479 42.0737 81.377 42.2039 81.2 42.4383C81.0177 42.6622 80.9291 42.9279 80.9291 43.2299V45.2091C80.9291 45.3237 80.8979 45.407 80.8458 45.4591C80.7885 45.5112 80.7104 45.5424 80.6166 45.5424C80.5177 45.5424 80.4343 45.5112 80.3666 45.4591C80.2937 45.407 80.2625 45.3237 80.2625 45.2091V41.7508C80.2625 41.657 80.2937 41.5789 80.3666 41.5216C80.4343 41.4695 80.5177 41.4383 80.6166 41.4383C80.7 41.4383 80.7677 41.4695 80.825 41.5216C80.8927 41.5789 80.9291 41.657 80.9291 41.7508V42.2091C81.0385 41.9747 81.2 41.7924 81.4083 41.6674C81.6166 41.5424 81.8562 41.4695 82.1375 41.4383H82.2416Z" fill="#C64FFF"/>
<path d="M86.4035 41.4383C86.4972 41.4383 86.5754 41.4696 86.6326 41.5216C86.7004 41.5789 86.7368 41.6571 86.7368 41.7508V45.23C86.7368 45.8237 86.5806 46.2716 86.2785 46.5633C85.9712 46.8654 85.5181 47.0216 84.9243 47.0216C84.341 47.0216 83.8514 46.9071 83.466 46.6883C83.2576 46.5737 83.1535 46.4487 83.1535 46.3133C83.1535 46.23 83.1743 46.1571 83.216 46.105C83.2576 46.0633 83.3097 46.0425 83.3826 46.0425C83.4347 46.0425 83.5337 46.0841 83.6743 46.1675C83.867 46.2612 84.0545 46.3394 84.2368 46.3966C84.4295 46.4644 84.6535 46.5008 84.9035 46.5008C85.2889 46.5008 85.5806 46.3966 85.7785 46.1883C85.9712 45.98 86.0701 45.6779 86.0701 45.2925V44.5841C85.9556 44.8341 85.7837 45.0321 85.5493 45.1675C85.3097 45.3081 85.0337 45.3758 84.716 45.3758C84.367 45.3758 84.0545 45.3029 83.7785 45.1466C83.5129 44.98 83.3045 44.7456 83.1535 44.4383C82.9972 44.1362 82.9243 43.7873 82.9243 43.3966C82.9243 43.0112 82.9972 42.6623 83.1535 42.355C83.3045 42.0529 83.5129 41.8237 83.7785 41.6675C84.0545 41.5008 84.367 41.4175 84.716 41.4175C85.0337 41.4175 85.3045 41.4904 85.5285 41.6258C85.7629 41.7664 85.9451 41.9591 86.0701 42.2091V41.7508C86.0701 41.6571 86.0962 41.5789 86.1535 41.5216C86.2056 41.4696 86.2889 41.4383 86.4035 41.4383ZM84.841 44.8341C85.2264 44.8341 85.5285 44.7091 85.7368 44.4591C85.9556 44.1987 86.0701 43.8446 86.0701 43.3966C86.0701 42.9539 85.9556 42.605 85.7368 42.355C85.5285 42.105 85.2264 41.98 84.841 41.98C84.4504 41.98 84.1431 42.105 83.9243 42.355C83.7004 42.605 83.591 42.9539 83.591 43.3966C83.591 43.8446 83.7004 44.1987 83.9243 44.4591C84.1431 44.7091 84.4504 44.8341 84.841 44.8341Z" fill="#C64FFF"/>
<path d="M89.5982 41.4175C90.5982 41.4175 91.0982 41.9383 91.0982 42.98V45.2091C91.0982 45.3081 91.0618 45.3914 90.9941 45.4591C90.9368 45.5112 90.8586 45.5425 90.7649 45.5425C90.6659 45.5425 90.5878 45.5112 90.5357 45.4591C90.4784 45.3914 90.4524 45.3081 90.4524 45.2091V44.8133C90.3378 45.0529 90.1711 45.2404 89.9524 45.3758C89.7441 45.5008 89.4993 45.5633 89.2232 45.5633C88.9732 45.5633 88.7336 45.5112 88.5149 45.4175C88.3066 45.3081 88.1399 45.1623 88.0149 44.98C87.8899 44.7873 87.8274 44.5789 87.8274 44.355C87.8274 44.0529 87.9003 43.8133 88.0566 43.6466C88.2076 43.48 88.4576 43.3654 88.8066 43.2925C89.1503 43.2248 89.6399 43.1883 90.2649 43.1883H90.4524V42.9175C90.4524 42.5841 90.3795 42.3446 90.2441 42.1883C90.1034 42.0373 89.8899 41.9591 89.5982 41.9591C89.2232 41.9591 88.8378 42.0633 88.4524 42.2716C88.3118 42.355 88.2128 42.3966 88.1607 42.3966C88.0878 42.3966 88.0357 42.3758 87.9941 42.3341C87.9524 42.2821 87.9316 42.2196 87.9316 42.1466C87.9316 42.0633 87.9524 41.9956 87.9941 41.9383C88.0357 41.8862 88.1086 41.8289 88.2232 41.7716C88.4003 41.6623 88.6086 41.5789 88.8482 41.5216C89.0982 41.4539 89.3482 41.4175 89.5982 41.4175ZM89.3274 45.0425C89.6451 45.0425 89.9107 44.9331 90.1191 44.7091C90.3378 44.4904 90.4524 44.2039 90.4524 43.855V43.605H90.2857C89.8118 43.605 89.4524 43.6258 89.2024 43.6675C88.9524 43.7091 88.7701 43.7821 88.6607 43.8758C88.5461 43.9748 88.4941 44.1154 88.4941 44.2925C88.4941 44.5164 88.567 44.6987 88.7232 44.8341C88.8899 44.9748 89.0878 45.0425 89.3274 45.0425Z" fill="#C64FFF"/>
<path d="M94.3136 41.4175C95.2719 41.4175 95.7511 41.9487 95.7511 43.0008V45.2091C95.7511 45.3237 95.7146 45.4071 95.6469 45.4591C95.5896 45.5112 95.5115 45.5425 95.4177 45.5425C95.3031 45.5425 95.2198 45.5112 95.1677 45.4591C95.1104 45.4071 95.0844 45.3237 95.0844 45.2091V43.0425C95.0844 42.6675 95.0063 42.3966 94.8552 42.23C94.7146 42.0633 94.4854 41.98 94.1677 41.98C93.8031 41.98 93.5115 42.0946 93.2927 42.3133C93.0688 42.5373 92.9594 42.8341 92.9594 43.2091V45.2091C92.9594 45.3237 92.9281 45.4071 92.8761 45.4591C92.8188 45.5112 92.7406 45.5425 92.6469 45.5425C92.5323 45.5425 92.4438 45.5112 92.3761 45.4591C92.3188 45.4071 92.2927 45.3237 92.2927 45.2091V41.7508C92.2927 41.6571 92.3188 41.5789 92.3761 41.5216C92.4438 41.4696 92.5323 41.4383 92.6469 41.4383C92.7406 41.4383 92.8188 41.4696 92.8761 41.5216C92.9281 41.5789 92.9594 41.6571 92.9594 41.7508V42.1675C93.0844 41.9175 93.2615 41.73 93.5011 41.605C93.7354 41.48 94.0063 41.4175 94.3136 41.4175Z" fill="#C64FFF"/>
<path d="M97.2983 45.5424C97.1994 45.5424 97.116 45.5111 97.0483 45.4591C96.9754 45.407 96.9442 45.3236 96.9442 45.2091V41.7507C96.9442 41.657 96.9754 41.5789 97.0483 41.5216C97.116 41.4695 97.1994 41.4382 97.2983 41.4382C97.3921 41.4382 97.4702 41.4695 97.5275 41.5216C97.5796 41.5789 97.6108 41.657 97.6108 41.7507V45.2091C97.6108 45.3236 97.5796 45.407 97.5275 45.4591C97.4702 45.5111 97.3921 45.5424 97.2983 45.5424ZM97.2983 40.5632C97.1733 40.5632 97.0692 40.532 96.9858 40.4591C96.9025 40.3757 96.8608 40.2716 96.8608 40.1466C96.8608 40.0372 96.9025 39.9486 96.9858 39.8757C97.0692 39.7924 97.1733 39.7507 97.2983 39.7507C97.4233 39.7507 97.5275 39.7924 97.6108 39.8757C97.6942 39.9486 97.7358 40.0372 97.7358 40.1466C97.7358 40.2716 97.6942 40.3757 97.6108 40.4591C97.5275 40.532 97.4233 40.5632 97.2983 40.5632Z" fill="#C64FFF"/>
<path d="M100.198 45.5633C99.9483 45.5633 99.7035 45.5321 99.4692 45.48C99.2452 45.4123 99.0525 45.3237 98.8858 45.2091C98.7869 45.1571 98.7192 45.0998 98.6775 45.0425C98.6358 44.9748 98.615 44.8966 98.615 44.8133C98.615 44.7456 98.6358 44.6883 98.6775 44.6466C98.7192 44.605 98.766 44.5841 98.8233 44.5841C98.891 44.5841 98.99 44.6206 99.115 44.6883C99.2817 44.8029 99.4379 44.8862 99.5942 44.9383C99.7608 44.9956 99.9587 45.0216 100.198 45.0216C100.5 45.0216 100.73 44.9748 100.886 44.8758C101.052 44.7664 101.136 44.6154 101.136 44.4175C101.136 44.2925 101.099 44.1987 101.032 44.1258C100.974 44.0425 100.87 43.9748 100.719 43.9175C100.579 43.8654 100.37 43.8081 100.094 43.7508C99.6046 43.6414 99.2608 43.5008 99.0525 43.3341C98.8442 43.1571 98.74 42.9175 98.74 42.6258C98.74 42.3914 98.8025 42.1831 98.9275 42.0008C99.0629 41.8237 99.2504 41.6831 99.49 41.5841C99.7244 41.4748 99.99 41.4175 100.282 41.4175C100.49 41.4175 100.688 41.4487 100.886 41.5008C101.094 41.5581 101.271 41.6414 101.427 41.7508C101.605 41.8758 101.698 42.0112 101.698 42.1466C101.698 42.2196 101.677 42.2821 101.636 42.3341C101.594 42.3758 101.542 42.3966 101.49 42.3966C101.417 42.3966 101.313 42.355 101.177 42.2716C101.021 42.1779 100.875 42.0998 100.74 42.0425C100.615 41.9904 100.448 41.9591 100.24 41.9591C99.99 41.9591 99.7817 42.0164 99.615 42.1258C99.4587 42.2404 99.3858 42.3914 99.3858 42.5841C99.3858 42.7091 99.4119 42.8081 99.4692 42.8758C99.5369 42.9487 99.6358 43.0164 99.7608 43.0841C99.8962 43.1414 100.094 43.1987 100.344 43.2508C100.719 43.3237 101 43.4123 101.198 43.5216C101.407 43.6206 101.552 43.7404 101.636 43.8758C101.73 44.0164 101.782 44.1987 101.782 44.4175C101.782 44.7508 101.636 45.0321 101.344 45.2508C101.052 45.4591 100.667 45.5633 100.198 45.5633Z" fill="#C64FFF"/>
<path d="M104.421 41.4175C105.421 41.4175 105.921 41.9383 105.921 42.98V45.2091C105.921 45.3081 105.884 45.3914 105.817 45.4591C105.759 45.5112 105.681 45.5425 105.587 45.5425C105.488 45.5425 105.41 45.5112 105.358 45.4591C105.301 45.3914 105.275 45.3081 105.275 45.2091V44.8133C105.16 45.0529 104.994 45.2404 104.775 45.3758C104.567 45.5008 104.322 45.5633 104.046 45.5633C103.796 45.5633 103.556 45.5112 103.337 45.4175C103.129 45.3081 102.962 45.1623 102.837 44.98C102.712 44.7873 102.65 44.5789 102.65 44.355C102.65 44.0529 102.723 43.8133 102.879 43.6466C103.03 43.48 103.28 43.3654 103.629 43.2925C103.973 43.2248 104.462 43.1883 105.087 43.1883H105.275V42.9175C105.275 42.5841 105.202 42.3446 105.067 42.1883C104.926 42.0373 104.712 41.9591 104.421 41.9591C104.046 41.9591 103.66 42.0633 103.275 42.2716C103.134 42.355 103.035 42.3966 102.983 42.3966C102.91 42.3966 102.858 42.3758 102.817 42.3341C102.775 42.2821 102.754 42.2196 102.754 42.1466C102.754 42.0633 102.775 41.9956 102.817 41.9383C102.858 41.8862 102.931 41.8289 103.046 41.7716C103.223 41.6623 103.431 41.5789 103.671 41.5216C103.921 41.4539 104.171 41.4175 104.421 41.4175ZM104.15 45.0425C104.468 45.0425 104.733 44.9331 104.942 44.7091C105.16 44.4904 105.275 44.2039 105.275 43.855V43.605H105.108C104.634 43.605 104.275 43.6258 104.025 43.6675C103.775 43.7091 103.593 43.7821 103.483 43.8758C103.369 43.9748 103.317 44.1154 103.317 44.2925C103.317 44.5164 103.389 44.6987 103.546 44.8341C103.712 44.9748 103.91 45.0425 104.15 45.0425Z" fill="#C64FFF"/>
<path d="M108.97 45.0216C109.162 45.0372 109.261 45.1205 109.261 45.2716C109.261 45.3705 109.225 45.4486 109.157 45.5007C109.084 45.5424 108.98 45.5528 108.845 45.5424L108.615 45.5216C108.183 45.4955 107.865 45.3705 107.657 45.1466C107.449 44.9122 107.345 44.558 107.345 44.0841V42.0424H106.803C106.704 42.0424 106.626 42.0216 106.574 41.9799C106.532 41.9278 106.511 41.8653 106.511 41.7924C106.511 41.7091 106.532 41.6466 106.574 41.6049C106.626 41.5528 106.704 41.5216 106.803 41.5216H107.345V40.5841C107.345 40.4903 107.371 40.4122 107.428 40.3549C107.496 40.2872 107.579 40.2507 107.678 40.2507C107.772 40.2507 107.85 40.2872 107.907 40.3549C107.975 40.4122 108.011 40.4903 108.011 40.5841V41.5216H108.928C109.011 41.5216 109.074 41.5528 109.115 41.6049C109.167 41.6466 109.199 41.7091 109.199 41.7924C109.199 41.8653 109.167 41.9278 109.115 41.9799C109.074 42.0216 109.011 42.0424 108.928 42.0424H108.011V44.1257C108.011 44.433 108.074 44.657 108.199 44.7924C108.324 44.9174 108.501 44.9903 108.74 45.0007L108.97 45.0216Z" fill="#C64FFF"/>
<path d="M110.254 45.5424C110.155 45.5424 110.072 45.5111 110.004 45.4591C109.931 45.407 109.9 45.3236 109.9 45.2091V41.7507C109.9 41.657 109.931 41.5789 110.004 41.5216C110.072 41.4695 110.155 41.4382 110.254 41.4382C110.348 41.4382 110.426 41.4695 110.483 41.5216C110.535 41.5789 110.566 41.657 110.566 41.7507V45.2091C110.566 45.3236 110.535 45.407 110.483 45.4591C110.426 45.5111 110.348 45.5424 110.254 45.5424ZM110.254 40.5632C110.129 40.5632 110.025 40.532 109.941 40.4591C109.858 40.3757 109.816 40.2716 109.816 40.1466C109.816 40.0372 109.858 39.9486 109.941 39.8757C110.025 39.7924 110.129 39.7507 110.254 39.7507C110.379 39.7507 110.483 39.7924 110.566 39.8757C110.65 39.9486 110.691 40.0372 110.691 40.1466C110.691 40.2716 110.65 40.3757 110.566 40.4591C110.483 40.532 110.379 40.5632 110.254 40.5632Z" fill="#C64FFF"/>
<path d="M113.466 45.5633C113.091 45.5633 112.758 45.48 112.466 45.3133C112.174 45.1362 111.951 44.8914 111.799 44.5841C111.643 44.2664 111.57 43.8966 111.57 43.48C111.57 43.0633 111.643 42.7039 111.799 42.3966C111.951 42.0789 112.174 41.8341 112.466 41.6675C112.758 41.5008 113.091 41.4175 113.466 41.4175C113.841 41.4175 114.174 41.5008 114.466 41.6675C114.758 41.8341 114.977 42.0789 115.133 42.3966C115.284 42.7039 115.362 43.0633 115.362 43.48C115.362 43.8966 115.284 44.2664 115.133 44.5841C114.977 44.8914 114.758 45.1362 114.466 45.3133C114.174 45.48 113.841 45.5633 113.466 45.5633ZM113.466 45.0008C113.852 45.0008 114.154 44.8758 114.362 44.6258C114.57 44.3654 114.674 43.98 114.674 43.48C114.674 42.9956 114.57 42.6206 114.362 42.355C114.154 42.0946 113.852 41.9591 113.466 41.9591C113.076 41.9591 112.768 42.0946 112.549 42.355C112.341 42.6206 112.237 42.9956 112.237 43.48C112.237 43.98 112.341 44.3654 112.549 44.6258C112.768 44.8758 113.076 45.0008 113.466 45.0008Z" fill="#C64FFF"/>
<path d="M118.366 41.4175C119.324 41.4175 119.803 41.9487 119.803 43.0008V45.2091C119.803 45.3237 119.767 45.4071 119.699 45.4591C119.642 45.5112 119.563 45.5425 119.47 45.5425C119.355 45.5425 119.272 45.5112 119.22 45.4591C119.162 45.4071 119.136 45.3237 119.136 45.2091V43.0425C119.136 42.6675 119.058 42.3966 118.907 42.23C118.767 42.0633 118.537 41.98 118.22 41.98C117.855 41.98 117.563 42.0946 117.345 42.3133C117.121 42.5373 117.011 42.8341 117.011 43.2091V45.2091C117.011 45.3237 116.98 45.4071 116.928 45.4591C116.871 45.5112 116.793 45.5425 116.699 45.5425C116.584 45.5425 116.496 45.5112 116.428 45.4591C116.371 45.4071 116.345 45.3237 116.345 45.2091V41.7508C116.345 41.6571 116.371 41.5789 116.428 41.5216C116.496 41.4696 116.584 41.4383 116.699 41.4383C116.793 41.4383 116.871 41.4696 116.928 41.5216C116.98 41.5789 117.011 41.6571 117.011 41.7508V42.1675C117.136 41.9175 117.313 41.73 117.553 41.605C117.787 41.48 118.058 41.4175 118.366 41.4175Z" fill="#C64FFF"/>
<path d="M121.309 44.6257C121.444 44.6257 121.559 44.683 121.642 44.7924C121.725 44.8914 121.767 45.0424 121.767 45.2507C121.767 45.6778 121.626 46.0424 121.35 46.3341C121.293 46.4018 121.23 46.4382 121.163 46.4382C121.105 46.4382 121.059 46.4174 121.017 46.3757C120.975 46.3341 120.954 46.282 120.954 46.2299C120.954 46.1726 120.975 46.1257 121.017 46.0841C121.152 45.9278 121.246 45.7403 121.288 45.5216C121.173 45.5059 121.079 45.4695 120.996 45.3966C120.913 45.3132 120.871 45.2091 120.871 45.0841C120.871 44.9486 120.913 44.8341 120.996 44.7507C121.079 44.6674 121.184 44.6257 121.309 44.6257Z" fill="#C64FFF"/>
<path d="M125.339 45.5424C125.24 45.5424 125.156 45.5111 125.089 45.4591C125.016 45.407 124.984 45.3236 124.984 45.2091V40.0216C124.984 39.9122 125.016 39.8289 125.089 39.7716C125.156 39.7195 125.24 39.6882 125.339 39.6882C125.422 39.6882 125.49 39.7195 125.547 39.7716C125.615 39.8289 125.651 39.9122 125.651 40.0216V45.2091C125.651 45.3236 125.615 45.407 125.547 45.4591C125.49 45.5111 125.422 45.5424 125.339 45.5424Z" fill="#C64FFF"/>
<path d="M128.53 41.4175C129.53 41.4175 130.03 41.9383 130.03 42.98V45.2091C130.03 45.3081 129.994 45.3914 129.926 45.4591C129.869 45.5112 129.791 45.5425 129.697 45.5425C129.598 45.5425 129.52 45.5112 129.468 45.4591C129.41 45.3914 129.384 45.3081 129.384 45.2091V44.8133C129.27 45.0529 129.103 45.2404 128.884 45.3758C128.676 45.5008 128.431 45.5633 128.155 45.5633C127.905 45.5633 127.666 45.5112 127.447 45.4175C127.238 45.3081 127.072 45.1623 126.947 44.98C126.822 44.7873 126.759 44.5789 126.759 44.355C126.759 44.0529 126.832 43.8133 126.988 43.6466C127.139 43.48 127.389 43.3654 127.738 43.2925C128.082 43.2248 128.572 43.1883 129.197 43.1883H129.384V42.9175C129.384 42.5841 129.311 42.3446 129.176 42.1883C129.035 42.0373 128.822 41.9591 128.53 41.9591C128.155 41.9591 127.77 42.0633 127.384 42.2716C127.244 42.355 127.145 42.3966 127.093 42.3966C127.02 42.3966 126.968 42.3758 126.926 42.3341C126.884 42.2821 126.863 42.2196 126.863 42.1466C126.863 42.0633 126.884 41.9956 126.926 41.9383C126.968 41.8862 127.041 41.8289 127.155 41.7716C127.332 41.6623 127.541 41.5789 127.78 41.5216C128.03 41.4539 128.28 41.4175 128.53 41.4175ZM128.259 45.0425C128.577 45.0425 128.843 44.9331 129.051 44.7091C129.27 44.4904 129.384 44.2039 129.384 43.855V43.605H129.218C128.744 43.605 128.384 43.6258 128.134 43.6675C127.884 43.7091 127.702 43.7821 127.593 43.8758C127.478 43.9748 127.426 44.1154 127.426 44.2925C127.426 44.5164 127.499 44.6987 127.655 44.8341C127.822 44.9748 128.02 45.0425 128.259 45.0425Z" fill="#C64FFF"/>
<path d="M134.983 45.5633C134.619 45.5633 134.296 45.48 134.004 45.3133C133.713 45.1362 133.489 44.8914 133.338 44.5841C133.181 44.2821 133.108 43.9175 133.108 43.5008C133.108 43.0998 133.181 42.7404 133.338 42.4175C133.504 42.0998 133.733 41.855 134.025 41.6883C134.317 41.5112 134.65 41.4175 135.025 41.4175C135.233 41.4175 135.431 41.4487 135.629 41.5008C135.838 41.5581 136.015 41.6414 136.171 41.7508C136.28 41.8237 136.348 41.8914 136.379 41.9591C136.421 42.0164 136.442 42.0789 136.442 42.1466C136.442 42.23 136.421 42.3029 136.379 42.355C136.348 42.3966 136.301 42.4175 136.233 42.4175C136.192 42.4175 136.15 42.4123 136.108 42.3966C136.067 42.3706 136.025 42.3498 135.983 42.3341C135.952 42.3081 135.942 42.2873 135.942 42.2716C135.785 42.1779 135.65 42.105 135.525 42.0633C135.4 42.0112 135.244 41.98 135.067 41.98C134.66 41.98 134.348 42.1206 134.129 42.3966C133.905 42.6623 133.796 43.0321 133.796 43.5008C133.796 43.9904 133.905 44.3654 134.129 44.6258C134.348 44.8758 134.66 45.0008 135.067 45.0008C135.244 45.0008 135.4 44.98 135.525 44.9383C135.66 44.8862 135.801 44.8081 135.942 44.7091C135.994 44.6675 136.051 44.6362 136.108 44.605C136.16 44.5789 136.213 44.5633 136.254 44.5633C136.306 44.5633 136.358 44.5946 136.4 44.6466C136.442 44.6883 136.463 44.7508 136.463 44.8341C136.463 44.9071 136.442 44.9696 136.4 45.0216C136.369 45.0789 136.301 45.1414 136.192 45.2091C136.035 45.3237 135.848 45.4123 135.629 45.48C135.421 45.5321 135.202 45.5633 134.983 45.5633Z" fill="#C64FFF"/>
<path d="M137.614 45.5424C137.515 45.5424 137.432 45.5111 137.364 45.4591C137.292 45.407 137.26 45.3236 137.26 45.2091V40.0216C137.26 39.9122 137.292 39.8289 137.364 39.7716C137.432 39.7195 137.515 39.6882 137.614 39.6882C137.698 39.6882 137.765 39.7195 137.823 39.7716C137.89 39.8289 137.927 39.9122 137.927 40.0216V45.2091C137.927 45.3236 137.89 45.407 137.823 45.4591C137.765 45.5111 137.698 45.5424 137.614 45.5424Z" fill="#C64FFF"/>
<path d="M142.264 44.5841C142.316 44.5841 142.368 44.6154 142.41 44.6675C142.452 44.7091 142.473 44.7664 142.473 44.8341C142.473 44.9748 142.374 45.0998 142.181 45.2091C141.983 45.3237 141.775 45.4123 141.556 45.48C141.348 45.5321 141.139 45.5633 140.931 45.5633C140.316 45.5633 139.832 45.3862 139.473 45.0216C139.108 44.6466 138.931 44.1414 138.931 43.5008C138.931 43.0841 139.004 42.7248 139.16 42.4175C139.327 42.0998 139.545 41.855 139.827 41.6883C140.118 41.5112 140.441 41.4175 140.806 41.4175C141.332 41.4175 141.749 41.5946 142.056 41.9383C142.358 42.2716 142.514 42.7248 142.514 43.2925C142.514 43.4071 142.493 43.4904 142.452 43.5425C142.41 43.5841 142.332 43.605 142.223 43.605H139.598C139.639 44.5529 140.082 45.0216 140.931 45.0216C141.139 45.0216 141.316 44.9956 141.473 44.9383C141.624 44.8862 141.79 44.8029 141.973 44.6883C142.108 44.6206 142.207 44.5841 142.264 44.5841ZM140.827 41.9383C140.478 41.9383 140.191 42.0529 139.973 42.2716C139.764 42.48 139.644 42.7873 139.618 43.1883H141.931C141.915 42.7873 141.811 42.48 141.618 42.2716C141.436 42.0529 141.17 41.9383 140.827 41.9383ZM140.952 40.98C140.91 41.0112 140.868 41.0216 140.827 41.0216C140.769 41.0216 140.723 41.0112 140.681 40.98C140.639 40.9383 140.618 40.8966 140.618 40.855C140.618 40.8133 140.639 40.7716 140.681 40.73L141.618 39.48C141.712 39.355 141.827 39.2925 141.952 39.2925C142.045 39.2925 142.124 39.3237 142.181 39.3758C142.233 39.4331 142.264 39.5112 142.264 39.605C142.264 39.7196 142.212 39.8237 142.118 39.9175L140.952 40.98Z" fill="#C64FFF"/>
<path d="M148.797 39.6882C148.906 39.6882 148.99 39.7247 149.047 39.7924C149.099 39.8497 149.13 39.9174 149.13 40.0007V45.2091C149.13 45.308 149.099 45.3914 149.047 45.4591C148.99 45.5111 148.906 45.5424 148.797 45.5424C148.698 45.5424 148.615 45.5111 148.547 45.4591C148.49 45.3914 148.464 45.308 148.464 45.2091V44.7716C148.349 45.0216 148.177 45.2195 147.943 45.3549C147.703 45.4955 147.433 45.5632 147.13 45.5632C146.781 45.5632 146.469 45.4799 146.193 45.3132C145.927 45.1361 145.719 44.8861 145.568 44.5632C145.427 44.2455 145.36 43.8861 145.36 43.4799C145.36 43.0632 145.427 42.7039 145.568 42.3966C145.719 42.0789 145.927 41.8341 146.193 41.6674C146.469 41.5007 146.781 41.4174 147.13 41.4174C147.433 41.4174 147.703 41.4903 147.943 41.6257C148.177 41.7664 148.349 41.9591 148.464 42.2091V40.0007C148.464 39.907 148.49 39.8289 148.547 39.7716C148.615 39.7195 148.698 39.6882 148.797 39.6882ZM147.255 45.0007C147.641 45.0007 147.943 44.8705 148.151 44.6049C148.36 44.3445 148.464 43.9695 148.464 43.4799C148.464 42.9955 148.36 42.6257 148.151 42.3757C147.943 42.1153 147.641 41.9799 147.255 41.9799C146.865 41.9799 146.558 42.1153 146.339 42.3757C146.13 42.6257 146.026 42.9955 146.026 43.4799C146.026 43.9695 146.13 44.3445 146.339 44.6049C146.558 44.8705 146.865 45.0007 147.255 45.0007Z" fill="#C64FFF"/>
<path d="M153.459 44.5841C153.511 44.5841 153.563 44.6154 153.605 44.6675C153.647 44.7091 153.667 44.7664 153.667 44.8341C153.667 44.9748 153.568 45.0998 153.376 45.2091C153.178 45.3237 152.969 45.4123 152.751 45.48C152.542 45.5321 152.334 45.5633 152.126 45.5633C151.511 45.5633 151.027 45.3862 150.667 45.0216C150.303 44.6466 150.126 44.1414 150.126 43.5008C150.126 43.0841 150.199 42.7248 150.355 42.4175C150.522 42.0998 150.74 41.855 151.022 41.6883C151.313 41.5112 151.636 41.4175 152.001 41.4175C152.527 41.4175 152.943 41.5946 153.251 41.9383C153.553 42.2716 153.709 42.7248 153.709 43.2925C153.709 43.4071 153.688 43.4904 153.647 43.5425C153.605 43.5841 153.527 43.605 153.417 43.605H150.792C150.834 44.5529 151.277 45.0216 152.126 45.0216C152.334 45.0216 152.511 44.9956 152.667 44.9383C152.818 44.8862 152.985 44.8029 153.167 44.6883C153.303 44.6206 153.402 44.5841 153.459 44.5841ZM152.022 41.9383C151.673 41.9383 151.386 42.0529 151.167 42.2716C150.959 42.48 150.839 42.7873 150.813 43.1883H153.126C153.11 42.7873 153.006 42.48 152.813 42.2716C152.631 42.0529 152.365 41.9383 152.022 41.9383Z" fill="#C64FFF"/>
<path d="M157.138 45.5424C157.039 45.5424 156.955 45.5111 156.888 45.4591C156.815 45.407 156.783 45.3236 156.783 45.2091V40.0216C156.783 39.9122 156.815 39.8289 156.888 39.7716C156.955 39.7195 157.039 39.6882 157.138 39.6882C157.221 39.6882 157.289 39.7195 157.346 39.7716C157.414 39.8289 157.45 39.9122 157.45 40.0216V45.2091C157.45 45.3236 157.414 45.407 157.346 45.4591C157.289 45.5111 157.221 45.5424 157.138 45.5424Z" fill="#C64FFF"/>
<path d="M160.329 41.4175C161.329 41.4175 161.829 41.9383 161.829 42.98V45.2091C161.829 45.3081 161.793 45.3914 161.725 45.4591C161.668 45.5112 161.59 45.5425 161.496 45.5425C161.397 45.5425 161.319 45.5112 161.267 45.4591C161.209 45.3914 161.183 45.3081 161.183 45.2091V44.8133C161.069 45.0529 160.902 45.2404 160.683 45.3758C160.475 45.5008 160.23 45.5633 159.954 45.5633C159.704 45.5633 159.465 45.5112 159.246 45.4175C159.038 45.3081 158.871 45.1623 158.746 44.98C158.621 44.7873 158.558 44.5789 158.558 44.355C158.558 44.0529 158.631 43.8133 158.788 43.6466C158.939 43.48 159.189 43.3654 159.538 43.2925C159.881 43.2248 160.371 43.1883 160.996 43.1883H161.183V42.9175C161.183 42.5841 161.11 42.3446 160.975 42.1883C160.834 42.0373 160.621 41.9591 160.329 41.9591C159.954 41.9591 159.569 42.0633 159.183 42.2716C159.043 42.355 158.944 42.3966 158.892 42.3966C158.819 42.3966 158.767 42.3758 158.725 42.3341C158.683 42.2821 158.663 42.2196 158.663 42.1466C158.663 42.0633 158.683 41.9956 158.725 41.9383C158.767 41.8862 158.84 41.8289 158.954 41.7716C159.131 41.6623 159.34 41.5789 159.579 41.5216C159.829 41.4539 160.079 41.4175 160.329 41.4175ZM160.058 45.0425C160.376 45.0425 160.642 44.9331 160.85 44.7091C161.069 44.4904 161.183 44.2039 161.183 43.855V43.605H161.017C160.543 43.605 160.183 43.6258 159.933 43.6675C159.683 43.7091 159.501 43.7821 159.392 43.8758C159.277 43.9748 159.225 44.1154 159.225 44.2925C159.225 44.5164 159.298 44.6987 159.454 44.8341C159.621 44.9748 159.819 45.0425 160.058 45.0425Z" fill="#C64FFF"/>
<path d="M167.116 41.4383C167.35 41.4122 167.47 41.5008 167.47 41.7091C167.47 41.7924 167.439 41.8654 167.387 41.9174C167.345 41.9747 167.262 42.0112 167.137 42.0216L166.887 42.0424C166.522 42.0737 166.251 42.2039 166.074 42.4383C165.892 42.6622 165.803 42.9279 165.803 43.2299V45.2091C165.803 45.3237 165.772 45.407 165.72 45.4591C165.663 45.5112 165.585 45.5424 165.491 45.5424C165.392 45.5424 165.309 45.5112 165.241 45.4591C165.168 45.407 165.137 45.3237 165.137 45.2091V41.7508C165.137 41.657 165.168 41.5789 165.241 41.5216C165.309 41.4695 165.392 41.4383 165.491 41.4383C165.574 41.4383 165.642 41.4695 165.699 41.5216C165.767 41.5789 165.803 41.657 165.803 41.7508V42.2091C165.913 41.9747 166.074 41.7924 166.283 41.6674C166.491 41.5424 166.73 41.4695 167.012 41.4383H167.116Z" fill="#C64FFF"/>
<path d="M171.132 44.5841C171.184 44.5841 171.236 44.6154 171.278 44.6675C171.319 44.7091 171.34 44.7664 171.34 44.8341C171.34 44.9748 171.241 45.0998 171.048 45.2091C170.85 45.3237 170.642 45.4123 170.423 45.48C170.215 45.5321 170.007 45.5633 169.798 45.5633C169.184 45.5633 168.699 45.3862 168.34 45.0216C167.975 44.6466 167.798 44.1414 167.798 43.5008C167.798 43.0841 167.871 42.7248 168.028 42.4175C168.194 42.0998 168.413 41.855 168.694 41.6883C168.986 41.5112 169.309 41.4175 169.673 41.4175C170.199 41.4175 170.616 41.5946 170.923 41.9383C171.225 42.2716 171.382 42.7248 171.382 43.2925C171.382 43.4071 171.361 43.4904 171.319 43.5425C171.278 43.5841 171.199 43.605 171.09 43.605H168.465C168.507 44.5529 168.949 45.0216 169.798 45.0216C170.007 45.0216 170.184 44.9956 170.34 44.9383C170.491 44.8862 170.658 44.8029 170.84 44.6883C170.975 44.6206 171.074 44.5841 171.132 44.5841ZM169.694 41.9383C169.345 41.9383 169.059 42.0529 168.84 42.2716C168.632 42.48 168.512 42.7873 168.486 43.1883H170.798C170.783 42.7873 170.679 42.48 170.486 42.2716C170.304 42.0529 170.038 41.9383 169.694 41.9383ZM169.819 40.98C169.778 41.0112 169.736 41.0216 169.694 41.0216C169.637 41.0216 169.59 41.0112 169.548 40.98C169.507 40.9383 169.486 40.8966 169.486 40.855C169.486 40.8133 169.507 40.7716 169.548 40.73L170.486 39.48C170.58 39.355 170.694 39.2925 170.819 39.2925C170.913 39.2925 170.991 39.3237 171.048 39.3758C171.1 39.4331 171.132 39.5112 171.132 39.605C171.132 39.7196 171.08 39.8237 170.986 39.9175L169.819 40.98Z" fill="#C64FFF"/>
<path d="M175.385 41.4382C175.479 41.4382 175.557 41.4695 175.614 41.5216C175.682 41.5789 175.718 41.657 175.718 41.7507V45.2299C175.718 45.3132 175.682 45.3914 175.614 45.4591C175.557 45.5111 175.479 45.5424 175.385 45.5424C175.286 45.5424 175.208 45.5111 175.156 45.4591C175.098 45.407 175.072 45.3289 175.072 45.2299V44.8132C174.947 45.0632 174.765 45.2507 174.531 45.3757C174.307 45.5007 174.052 45.5632 173.76 45.5632C173.286 45.5632 172.932 45.433 172.697 45.1674C172.458 44.907 172.343 44.5111 172.343 43.9799V41.7507C172.343 41.657 172.369 41.5789 172.427 41.5216C172.479 41.4695 172.562 41.4382 172.677 41.4382C172.77 41.4382 172.848 41.4695 172.906 41.5216C172.973 41.5789 173.01 41.657 173.01 41.7507V43.9799C173.01 44.3289 173.078 44.5841 173.218 44.7507C173.354 44.9174 173.578 45.0007 173.885 45.0007C174.229 45.0007 174.51 44.8914 174.718 44.6674C174.937 44.433 175.052 44.1361 175.052 43.7716V41.7507C175.052 41.657 175.078 41.5789 175.135 41.5216C175.187 41.4695 175.27 41.4382 175.385 41.4382Z" fill="#C64FFF"/>
<path d="M178.292 45.5633C178.042 45.5633 177.797 45.5321 177.562 45.48C177.338 45.4123 177.146 45.3237 176.979 45.2091C176.88 45.1571 176.812 45.0998 176.771 45.0425C176.729 44.9748 176.708 44.8966 176.708 44.8133C176.708 44.7456 176.729 44.6883 176.771 44.6466C176.812 44.605 176.859 44.5841 176.917 44.5841C176.984 44.5841 177.083 44.6206 177.208 44.6883C177.375 44.8029 177.531 44.8862 177.687 44.9383C177.854 44.9956 178.052 45.0216 178.292 45.0216C178.594 45.0216 178.823 44.9748 178.979 44.8758C179.146 44.7664 179.229 44.6154 179.229 44.4175C179.229 44.2925 179.193 44.1987 179.125 44.1258C179.068 44.0425 178.963 43.9748 178.812 43.9175C178.672 43.8654 178.463 43.8081 178.187 43.7508C177.698 43.6414 177.354 43.5008 177.146 43.3341C176.937 43.1571 176.833 42.9175 176.833 42.6258C176.833 42.3914 176.896 42.1831 177.021 42.0008C177.156 41.8237 177.344 41.6831 177.583 41.5841C177.818 41.4748 178.083 41.4175 178.375 41.4175C178.583 41.4175 178.781 41.4487 178.979 41.5008C179.187 41.5581 179.365 41.6414 179.521 41.7508C179.698 41.8758 179.792 42.0112 179.792 42.1466C179.792 42.2196 179.771 42.2821 179.729 42.3341C179.687 42.3758 179.635 42.3966 179.583 42.3966C179.51 42.3966 179.406 42.355 179.271 42.2716C179.115 42.1779 178.969 42.0998 178.833 42.0425C178.708 41.9904 178.542 41.9591 178.333 41.9591C178.083 41.9591 177.875 42.0164 177.708 42.1258C177.552 42.2404 177.479 42.3914 177.479 42.5841C177.479 42.7091 177.505 42.8081 177.562 42.8758C177.63 42.9487 177.729 43.0164 177.854 43.0841C177.99 43.1414 178.187 43.1987 178.437 43.2508C178.812 43.3237 179.094 43.4123 179.292 43.5216C179.5 43.6206 179.646 43.7404 179.729 43.8758C179.823 44.0164 179.875 44.1987 179.875 44.4175C179.875 44.7508 179.729 45.0321 179.437 45.2508C179.146 45.4591 178.76 45.5633 178.292 45.5633Z" fill="#C64FFF"/>
<path d="M182.222 45.5633C181.972 45.5633 181.728 45.5321 181.493 45.48C181.269 45.4123 181.077 45.3237 180.91 45.2091C180.811 45.1571 180.743 45.0998 180.702 45.0425C180.66 44.9748 180.639 44.8966 180.639 44.8133C180.639 44.7456 180.66 44.6883 180.702 44.6466C180.743 44.605 180.79 44.5841 180.847 44.5841C180.915 44.5841 181.014 44.6206 181.139 44.6883C181.306 44.8029 181.462 44.8862 181.618 44.9383C181.785 44.9956 181.983 45.0216 182.222 45.0216C182.525 45.0216 182.754 44.9748 182.91 44.8758C183.077 44.7664 183.16 44.6154 183.16 44.4175C183.16 44.2925 183.124 44.1987 183.056 44.1258C182.999 44.0425 182.894 43.9748 182.743 43.9175C182.603 43.8654 182.394 43.8081 182.118 43.7508C181.629 43.6414 181.285 43.5008 181.077 43.3341C180.868 43.1571 180.764 42.9175 180.764 42.6258C180.764 42.3914 180.827 42.1831 180.952 42.0008C181.087 41.8237 181.275 41.6831 181.514 41.5841C181.749 41.4748 182.014 41.4175 182.306 41.4175C182.514 41.4175 182.712 41.4487 182.91 41.5008C183.118 41.5581 183.295 41.6414 183.452 41.7508C183.629 41.8758 183.722 42.0112 183.722 42.1466C183.722 42.2196 183.702 42.2821 183.66 42.3341C183.618 42.3758 183.566 42.3966 183.514 42.3966C183.441 42.3966 183.337 42.355 183.202 42.2716C183.045 42.1779 182.9 42.0998 182.764 42.0425C182.639 41.9904 182.472 41.9591 182.264 41.9591C182.014 41.9591 181.806 42.0164 181.639 42.1258C181.483 42.2404 181.41 42.3914 181.41 42.5841C181.41 42.7091 181.436 42.8081 181.493 42.8758C181.561 42.9487 181.66 43.0164 181.785 43.0841C181.92 43.1414 182.118 43.1987 182.368 43.2508C182.743 43.3237 183.025 43.4123 183.222 43.5216C183.431 43.6206 183.577 43.7404 183.66 43.8758C183.754 44.0164 183.806 44.1987 183.806 44.4175C183.806 44.7508 183.66 45.0321 183.368 45.2508C183.077 45.4591 182.691 45.5633 182.222 45.5633Z" fill="#C64FFF"/>
<path d="M185.153 45.5424C185.054 45.5424 184.971 45.5111 184.903 45.4591C184.83 45.407 184.799 45.3236 184.799 45.2091V41.7507C184.799 41.657 184.83 41.5789 184.903 41.5216C184.971 41.4695 185.054 41.4382 185.153 41.4382C185.247 41.4382 185.325 41.4695 185.382 41.5216C185.435 41.5789 185.466 41.657 185.466 41.7507V45.2091C185.466 45.3236 185.435 45.407 185.382 45.4591C185.325 45.5111 185.247 45.5424 185.153 45.5424ZM185.153 40.5632C185.028 40.5632 184.924 40.532 184.841 40.4591C184.757 40.3757 184.716 40.2716 184.716 40.1466C184.716 40.0372 184.757 39.9486 184.841 39.8757C184.924 39.7924 185.028 39.7507 185.153 39.7507C185.278 39.7507 185.382 39.7924 185.466 39.8757C185.549 39.9486 185.591 40.0372 185.591 40.1466C185.591 40.2716 185.549 40.3757 185.466 40.4591C185.382 40.532 185.278 40.5632 185.153 40.5632Z" fill="#C64FFF"/>
<path d="M188.553 45.0216C188.746 45.0372 188.845 45.1205 188.845 45.2716C188.845 45.3705 188.809 45.4486 188.741 45.5007C188.668 45.5424 188.564 45.5528 188.428 45.5424L188.199 45.5216C187.767 45.4955 187.449 45.3705 187.241 45.1466C187.032 44.9122 186.928 44.558 186.928 44.0841V42.0424H186.387C186.288 42.0424 186.21 42.0216 186.157 41.9799C186.116 41.9278 186.095 41.8653 186.095 41.7924C186.095 41.7091 186.116 41.6466 186.157 41.6049C186.21 41.5528 186.288 41.5216 186.387 41.5216H186.928V40.5841C186.928 40.4903 186.954 40.4122 187.012 40.3549C187.079 40.2872 187.163 40.2507 187.262 40.2507C187.355 40.2507 187.434 40.2872 187.491 40.3549C187.559 40.4122 187.595 40.4903 187.595 40.5841V41.5216H188.512C188.595 41.5216 188.657 41.5528 188.699 41.6049C188.751 41.6466 188.782 41.7091 188.782 41.7924C188.782 41.8653 188.751 41.9278 188.699 41.9799C188.657 42.0216 188.595 42.0424 188.512 42.0424H187.595V44.1257C187.595 44.433 187.657 44.657 187.782 44.7924C187.907 44.9174 188.085 44.9903 188.324 45.0007L188.553 45.0216Z" fill="#C64FFF"/>
<path d="M192.587 44.5841C192.64 44.5841 192.692 44.6154 192.733 44.6675C192.775 44.7091 192.796 44.7664 192.796 44.8341C192.796 44.9748 192.697 45.0998 192.504 45.2091C192.306 45.3237 192.098 45.4123 191.879 45.48C191.671 45.5321 191.462 45.5633 191.254 45.5633C190.64 45.5633 190.155 45.3862 189.796 45.0216C189.431 44.6466 189.254 44.1414 189.254 43.5008C189.254 43.0841 189.327 42.7248 189.483 42.4175C189.65 42.0998 189.869 41.855 190.15 41.6883C190.442 41.5112 190.765 41.4175 191.129 41.4175C191.655 41.4175 192.072 41.5946 192.379 41.9383C192.681 42.2716 192.837 42.7248 192.837 43.2925C192.837 43.4071 192.817 43.4904 192.775 43.5425C192.733 43.5841 192.655 43.605 192.546 43.605H189.921C189.962 44.5529 190.405 45.0216 191.254 45.0216C191.462 45.0216 191.64 44.9956 191.796 44.9383C191.947 44.8862 192.114 44.8029 192.296 44.6883C192.431 44.6206 192.53 44.5841 192.587 44.5841ZM191.15 41.9383C190.801 41.9383 190.515 42.0529 190.296 42.2716C190.087 42.48 189.968 42.7873 189.942 43.1883H192.254C192.239 42.7873 192.134 42.48 191.942 42.2716C191.759 42.0529 191.494 41.9383 191.15 41.9383Z" fill="#C64FFF"/>
<defs>
<linearGradient id="paint0_linear_309_1052" x1="50.9083" y1="10.6401" x2="-3.98216" y2="33.282" gradientUnits="userSpaceOnUse">
<stop stop-color="#C64FFF"/>
<stop offset="0.0625" stop-color="#C64FFF"/>
<stop offset="0.09375" stop-color="#C64FFF"/>
<stop offset="0.0976562" stop-color="#C54FFF"/>
<stop offset="0.101562" stop-color="#C44FFF"/>
<stop offset="0.105469" stop-color="#C44FFF"/>
<stop offset="0.109375" stop-color="#C34FFF"/>
<stop offset="0.113281" stop-color="#C34FFE"/>
<stop offset="0.117188" stop-color="#C24FFE"/>
<stop offset="0.121094" stop-color="#C24FFE"/>
<stop offset="0.125" stop-color="#C14FFE"/>
<stop offset="0.128906" stop-color="#C14FFE"/>
<stop offset="0.132813" stop-color="#C04FFE"/>
<stop offset="0.136719" stop-color="#C04FFE"/>
<stop offset="0.140625" stop-color="#BF4FFE"/>
<stop offset="0.144531" stop-color="#BE4FFE"/>
<stop offset="0.148438" stop-color="#BE4FFE"/>
<stop offset="0.152344" stop-color="#BD4FFE"/>
<stop offset="0.15625" stop-color="#BD4FFD"/>
<stop offset="0.160156" stop-color="#BC4FFD"/>
<stop offset="0.164063" stop-color="#BC4FFD"/>
<stop offset="0.167969" stop-color="#BB4FFD"/>
<stop offset="0.171875" stop-color="#BB4FFD"/>
<stop offset="0.175781" stop-color="#BA4FFD"/>
<stop offset="0.179688" stop-color="#BA4FFD"/>
<stop offset="0.183594" stop-color="#B94FFD"/>
<stop offset="0.1875" stop-color="#B84FFD"/>
<stop offset="0.191406" stop-color="#B84FFD"/>
<stop offset="0.195312" stop-color="#B74FFD"/>
<stop offset="0.199219" stop-color="#B74FFC"/>
<stop offset="0.203125" stop-color="#B64FFC"/>
<stop offset="0.207031" stop-color="#B64FFC"/>
<stop offset="0.210938" stop-color="#B54FFC"/>
<stop offset="0.214844" stop-color="#B54FFC"/>
<stop offset="0.21875" stop-color="#B44FFC"/>
<stop offset="0.222656" stop-color="#B44FFC"/>
<stop offset="0.226562" stop-color="#B34FFC"/>
<stop offset="0.230469" stop-color="#B34FFC"/>
<stop offset="0.234375" stop-color="#B24FFC"/>
<stop offset="0.238281" stop-color="#B14FFC"/>
<stop offset="0.242188" stop-color="#B14FFC"/>
<stop offset="0.246094" stop-color="#B04FFB"/>
<stop offset="0.25" stop-color="#B04FFB"/>
<stop offset="0.253906" stop-color="#AF4FFB"/>
<stop offset="0.257813" stop-color="#AF4FFB"/>
<stop offset="0.261719" stop-color="#AE4FFB"/>
<stop offset="0.265625" stop-color="#AE4FFB"/>
<stop offset="0.269531" stop-color="#AD4FFB"/>
<stop offset="0.273438" stop-color="#AD4FFB"/>
<stop offset="0.277344" stop-color="#AC4FFB"/>
<stop offset="0.28125" stop-color="#AB4FFB"/>
<stop offset="0.285156" stop-color="#AB4FFB"/>
<stop offset="0.289063" stop-color="#AA4FFA"/>
<stop offset="0.292969" stop-color="#AA4EFA"/>
<stop offset="0.296875" stop-color="#A94EFA"/>
<stop offset="0.300781" stop-color="#A94EFA"/>
<stop offset="0.304688" stop-color="#A84EFA"/>
<stop offset="0.308594" stop-color="#A84EFA"/>
<stop offset="0.3125" stop-color="#A74EFA"/>
<stop offset="0.316406" stop-color="#A74EFA"/>
<stop offset="0.320313" stop-color="#A64EFA"/>
<stop offset="0.324219" stop-color="#A64EFA"/>
<stop offset="0.328125" stop-color="#A54EFA"/>
<stop offset="0.332031" stop-color="#A44EF9"/>
<stop offset="0.335938" stop-color="#A44EF9"/>
<stop offset="0.339844" stop-color="#A34EF9"/>
<stop offset="0.34375" stop-color="#A34EF9"/>
<stop offset="0.347656" stop-color="#A24EF9"/>
<stop offset="0.351562" stop-color="#A24EF9"/>
<stop offset="0.355469" stop-color="#A14EF9"/>
<stop offset="0.359375" stop-color="#A14EF9"/>
<stop offset="0.363281" stop-color="#A04EF9"/>
<stop offset="0.367188" stop-color="#A04EF9"/>
<stop offset="0.371094" stop-color="#9F4EF9"/>
<stop offset="0.375" stop-color="#9E4EF8"/>
<stop offset="0.378906" stop-color="#9E4EF8"/>
<stop offset="0.382813" stop-color="#9D4EF8"/>
<stop offset="0.386719" stop-color="#9D4EF8"/>
<stop offset="0.390625" stop-color="#9C4EF8"/>
<stop offset="0.394531" stop-color="#9C4EF8"/>
<stop offset="0.398438" stop-color="#9B4EF8"/>
<stop offset="0.402344" stop-color="#9B4EF8"/>
<stop offset="0.40625" stop-color="#9A4EF8"/>
<stop offset="0.410156" stop-color="#9A4EF8"/>
<stop offset="0.414062" stop-color="#994EF8"/>
<stop offset="0.417969" stop-color="#994EF7"/>
<stop offset="0.421875" stop-color="#984EF7"/>
<stop offset="0.425781" stop-color="#974EF7"/>
<stop offset="0.429688" stop-color="#974EF7"/>
<stop offset="0.433594" stop-color="#964EF7"/>
<stop offset="0.4375" stop-color="#964EF7"/>
<stop offset="0.441406" stop-color="#954EF7"/>
<stop offset="0.445312" stop-color="#954EF7"/>
<stop offset="0.449219" stop-color="#944EF7"/>
<stop offset="0.453125" stop-color="#944EF7"/>
<stop offset="0.457031" stop-color="#934EF7"/>
<stop offset="0.460938" stop-color="#934EF6"/>
<stop offset="0.464844" stop-color="#924EF6"/>
<stop offset="0.46875" stop-color="#914EF6"/>
<stop offset="0.472656" stop-color="#914EF6"/>
<stop offset="0.476562" stop-color="#904EF6"/>
<stop offset="0.480469" stop-color="#904EF6"/>
<stop offset="0.484375" stop-color="#8F4EF6"/>
<stop offset="0.488281" stop-color="#8F4EF6"/>
<stop offset="0.492188" stop-color="#8E4EF6"/>
<stop offset="0.496094" stop-color="#8E4EF6"/>
<stop offset="0.5" stop-color="#8D4EF6"/>
<stop offset="0.503906" stop-color="#8D4EF5"/>
<stop offset="0.507813" stop-color="#8C4EF5"/>
<stop offset="0.511719" stop-color="#8C4EF5"/>
<stop offset="0.515625" stop-color="#8B4EF5"/>
<stop offset="0.519531" stop-color="#8A4EF5"/>
<stop offset="0.523438" stop-color="#8A4EF5"/>
<stop offset="0.527344" stop-color="#894EF5"/>
<stop offset="0.53125" stop-color="#894EF5"/>
<stop offset="0.535156" stop-color="#884EF5"/>
<stop offset="0.539063" stop-color="#884EF5"/>
<stop offset="0.542969" stop-color="#874EF5"/>
<stop offset="0.546875" stop-color="#874EF4"/>
<stop offset="0.550781" stop-color="#864EF4"/>
<stop offset="0.554688" stop-color="#864EF4"/>
<stop offset="0.558594" stop-color="#854EF4"/>
<stop offset="0.5625" stop-color="#844EF4"/>
<stop offset="0.566406" stop-color="#844EF4"/>
<stop offset="0.570313" stop-color="#834EF4"/>
<stop offset="0.574219" stop-color="#834EF4"/>
<stop offset="0.578125" stop-color="#824EF4"/>
<stop offset="0.582031" stop-color="#824EF4"/>
<stop offset="0.585938" stop-color="#814EF4"/>
<stop offset="0.589844" stop-color="#814EF3"/>
<stop offset="0.59375" stop-color="#804EF3"/>
<stop offset="0.597656" stop-color="#804EF3"/>
<stop offset="0.601563" stop-color="#7F4EF3"/>
<stop offset="0.605469" stop-color="#7F4EF3"/>
<stop offset="0.609375" stop-color="#7E4EF3"/>
<stop offset="0.613281" stop-color="#7D4EF3"/>
<stop offset="0.617188" stop-color="#7D4EF3"/>
<stop offset="0.621094" stop-color="#7C4EF3"/>
<stop offset="0.625" stop-color="#7C4EF3"/>
<stop offset="0.628906" stop-color="#7B4EF3"/>
<stop offset="0.632813" stop-color="#7B4EF3"/>
<stop offset="0.636719" stop-color="#7A4EF2"/>
<stop offset="0.640625" stop-color="#7A4EF2"/>
<stop offset="0.644531" stop-color="#794EF2"/>
<stop offset="0.648438" stop-color="#794EF2"/>
<stop offset="0.652344" stop-color="#784EF2"/>
<stop offset="0.65625" stop-color="#774DF2"/>
<stop offset="0.660156" stop-color="#774DF2"/>
<stop offset="0.664063" stop-color="#764DF2"/>
<stop offset="0.667969" stop-color="#764DF2"/>
<stop offset="0.671875" stop-color="#754DF2"/>
<stop offset="0.675781" stop-color="#754DF2"/>
<stop offset="0.679688" stop-color="#744DF1"/>
<stop offset="0.683594" stop-color="#744DF1"/>
<stop offset="0.6875" stop-color="#734DF1"/>
<stop offset="0.691406" stop-color="#734DF1"/>
<stop offset="0.695312" stop-color="#724DF1"/>
<stop offset="0.699219" stop-color="#724DF1"/>
<stop offset="0.703125" stop-color="#714DF1"/>
<stop offset="0.707031" stop-color="#704DF1"/>
<stop offset="0.710938" stop-color="#704DF1"/>
<stop offset="0.714844" stop-color="#6F4DF1"/>
<stop offset="0.71875" stop-color="#6F4DF1"/>
<stop offset="0.722656" stop-color="#6E4DF0"/>
<stop offset="0.726562" stop-color="#6E4DF0"/>
<stop offset="0.730469" stop-color="#6D4DF0"/>
<stop offset="0.734375" stop-color="#6D4DF0"/>
<stop offset="0.738281" stop-color="#6C4DF0"/>
<stop offset="0.742188" stop-color="#6C4DF0"/>
<stop offset="0.746094" stop-color="#6B4DF0"/>
<stop offset="0.75" stop-color="#6A4DF0"/>
<stop offset="0.753906" stop-color="#6A4DF0"/>
<stop offset="0.757812" stop-color="#694DF0"/>
<stop offset="0.761719" stop-color="#694DF0"/>
<stop offset="0.765625" stop-color="#684DEF"/>
<stop offset="0.769531" stop-color="#684DEF"/>
<stop offset="0.773438" stop-color="#674DEF"/>
<stop offset="0.777344" stop-color="#674DEF"/>
<stop offset="0.78125" stop-color="#664DEF"/>
<stop offset="0.785156" stop-color="#664DEF"/>
<stop offset="0.789062" stop-color="#654DEF"/>
<stop offset="0.792969" stop-color="#654DEF"/>
<stop offset="0.796875" stop-color="#644DEF"/>
<stop offset="0.800781" stop-color="#634DEF"/>
<stop offset="0.804688" stop-color="#634DEF"/>
<stop offset="0.808594" stop-color="#624DEE"/>
<stop offset="0.8125" stop-color="#624DEE"/>
<stop offset="0.816406" stop-color="#614DEE"/>
<stop offset="0.820312" stop-color="#614DEE"/>
<stop offset="0.824219" stop-color="#604DEE"/>
<stop offset="0.828125" stop-color="#604DEE"/>
<stop offset="0.84375" stop-color="#5F4DEE"/>
<stop offset="0.875" stop-color="#5F4DEE"/>
<stop offset="1" stop-color="#5F4DEE"/>
</linearGradient>
</defs>
</svg>
