<svg width="193" height="48" viewBox="0 0 193 48" fill="none" xmlns="http://www.w3.org/2000/svg">
<mask id="mask0_309_1214" style="mask-type:luminance" maskUnits="userSpaceOnUse" x="0" y="0" width="47" height="44">
<path d="M0 0H46.1771V43.75H0V0Z" fill="white"/>
</mask>
<g mask="url(#mask0_309_1214)">
<mask id="mask1_309_1214" style="mask-type:luminance" maskUnits="userSpaceOnUse" x="0" y="0" width="47" height="44">
<path d="M24.6615 25.1198V5.57813C24.6615 4.82293 25.3906 4.27084 26.1198 4.47918L45.3333 9.84376C45.8333 9.97918 46.1719 10.4323 46.1719 10.9427V30.4844C46.1719 31.2396 45.4479 31.7917 44.7135 31.5833L25.5 26.2188C25.0052 26.0833 24.6615 25.6302 24.6615 25.1198ZM10.1615 12.4271L20.0521 15.1875C20.7865 15.3958 21.5104 14.8438 21.5104 14.0886V4.04168C21.5104 3.53126 21.1719 3.08334 20.6719 2.94272L10.7813 0.1823C10.0469 -0.0260329 9.32292 0.526049 9.32292 1.28126V11.3281C9.32292 11.8386 9.66146 12.2917 10.1615 12.4271ZM20.6719 17.5104L1.45833 12.1458C0.729167 11.9427 0 12.4896 0 13.25V32.7865C0 33.3021 0.343751 33.75 0.838542 33.8906L20.0521 39.2552C20.7865 39.4583 21.5104 38.9115 21.5104 38.1511V18.6146C21.5104 18.099 21.1719 17.6511 20.6719 17.5104ZM36.0156 31.3021L26.1198 28.5417C25.3906 28.3385 24.6615 28.8854 24.6615 29.6406V39.6875C24.6615 40.1979 25.0052 40.651 25.5 40.7865L35.3958 43.5521C36.125 43.7552 36.8542 43.2083 36.8542 42.4479V32.4063C36.8542 31.8906 36.5104 31.4427 36.0156 31.3021Z" fill="white"/>
</mask>
<g mask="url(#mask1_309_1214)">
<path d="M46.1719 -0.026123H0V43.7499H46.1719V-0.026123Z" fill="url(#paint0_linear_309_1214)"/>
</g>
</g>
<path d="M71.5625 3.27856C74.9062 3.27856 77.2604 3.28898 78.625 3.2994C87.7917 3.52336 92.375 7.83065 92.375 16.2161C92.375 20.4244 91.1927 23.6744 88.8333 25.9661C86.4844 28.2473 83 29.3827 78.375 29.3827H71.5833C71.1094 29.3827 70.875 29.1431 70.875 28.6536V3.90356C70.875 3.66919 70.9219 3.50773 71.0208 3.4244C71.1146 3.33065 71.2969 3.27856 71.5625 3.27856ZM76.4167 7.00773C76.1927 7.00773 76.0833 7.16919 76.0833 7.4869V25.2369C76.0833 25.4036 76.1146 25.5181 76.1875 25.5702C76.2708 25.6275 76.3854 25.6536 76.5417 25.6536H77.4375C80.7396 25.6536 83.151 24.9348 84.6667 23.4869C86.1771 22.0286 86.9375 19.6067 86.9375 16.2161C86.9375 14.039 86.6302 12.2994 86.0208 11.0077C85.4062 9.70565 84.5 8.74732 83.2917 8.13273C82.0833 7.52336 80.5052 7.16919 78.5625 7.07023L76.4167 7.00773Z" fill="white"/>
<path d="M101.669 3.27856C101.987 3.27856 102.148 3.46606 102.148 3.84106V28.6119C102.148 28.8931 102.086 29.0911 101.961 29.2161C101.836 29.3306 101.617 29.3827 101.315 29.3827H97.648C97.3668 29.3827 97.1793 29.3359 97.0855 29.2369C96.9866 29.1431 96.9397 28.9817 96.9397 28.7577V3.8619C96.9397 3.47648 97.1168 3.27856 97.4814 3.27856H101.669Z" fill="white"/>
<path d="M118.203 29.7368C115.88 29.7368 113.854 29.1952 112.12 28.1118C110.396 27.0181 109.062 25.466 108.12 23.466C107.187 21.4556 106.724 19.1066 106.724 16.4243C106.724 13.6899 107.208 11.2993 108.182 9.25765C109.151 7.21598 110.521 5.65348 112.286 4.57015C114.062 3.4764 116.125 2.92432 118.474 2.92432C120.234 2.92432 121.849 3.27328 123.307 3.96598C124.776 4.6639 125.974 5.56494 126.891 6.67432C127.818 7.7889 128.401 8.9764 128.641 10.2368L128.724 10.6326C128.724 10.8722 128.578 11.0076 128.286 11.0493L124.391 11.6535C124.208 11.6535 124.083 11.6222 124.016 11.5493C123.958 11.4816 123.911 11.3514 123.87 11.1535C123.646 9.86182 123.042 8.79411 122.057 7.94515C121.083 7.08578 119.854 6.65348 118.37 6.65348C114.245 6.65348 112.182 9.84098 112.182 16.216C112.182 19.6066 112.713 22.0858 113.786 23.6535C114.87 25.2264 116.443 26.0077 118.516 26.0077C120.151 26.0077 121.463 25.5389 122.453 24.591C123.437 23.6327 124.026 22.4972 124.224 21.1743L124.245 19.7785C124.271 19.7368 124.286 19.6743 124.286 19.591C124.286 19.4139 124.167 19.3202 123.932 19.3202H119.141C118.958 19.3202 118.833 19.2889 118.766 19.216C118.693 19.1483 118.661 19.0077 118.661 18.7993V16.5493C118.661 16.2577 118.818 16.1118 119.141 16.1118L128.286 16.1535C128.578 16.1535 128.792 16.2264 128.932 16.3618C129.068 16.4868 129.141 16.6535 129.141 16.8618V28.8827C129.141 29.216 128.984 29.3827 128.682 29.3827H127.661C127.453 29.3827 127.276 29.3514 127.141 29.2785C127.016 29.2108 126.911 29.0702 126.828 28.8618L126.036 26.0702C125.995 25.9764 125.943 25.9347 125.891 25.9452C125.833 25.9608 125.771 26.0181 125.703 26.1118C123.937 28.5285 121.437 29.7368 118.203 29.7368Z" fill="white"/>
<path d="M138.708 3.27856C139.026 3.27856 139.187 3.46606 139.187 3.84106V28.6119C139.187 28.8931 139.125 29.0911 139 29.2161C138.875 29.3306 138.656 29.3827 138.354 29.3827H134.687C134.406 29.3827 134.218 29.3359 134.125 29.2369C134.026 29.1431 133.979 28.9817 133.979 28.7577V3.8619C133.979 3.47648 134.156 3.27856 134.52 3.27856H138.708Z" fill="white"/>
<path d="M165.055 28.5286C165.097 28.6119 165.117 28.7265 165.117 28.8619C165.117 29.0025 165.065 29.1275 164.972 29.2369C164.888 29.3359 164.763 29.3827 164.597 29.3827H160.305C160.107 29.3827 159.956 29.3411 159.847 29.2577C159.748 29.1744 159.664 29.0286 159.597 28.8202L155.555 18.5494C155.482 18.3827 155.378 18.2681 155.242 18.1952C155.102 18.1275 154.888 18.0911 154.597 18.0911H150.388C150.097 18.0911 149.951 18.2161 149.951 18.4661V28.6536C149.951 28.9036 149.888 29.0911 149.763 29.2161C149.638 29.3306 149.435 29.3827 149.159 29.3827H145.43C145.164 29.3827 144.982 29.3359 144.888 29.2369C144.789 29.1275 144.742 28.9661 144.742 28.7577V3.8619C144.742 3.47648 144.92 3.27856 145.284 3.27856H155.867C158.893 3.27856 161.242 3.89315 162.909 5.1119C164.576 6.32023 165.409 8.05981 165.409 10.3202C165.409 12.0702 164.935 13.539 163.992 14.7161C163.06 15.8827 161.888 16.7161 160.472 17.2161C160.289 17.289 160.248 17.44 160.347 17.6744L165.055 28.5286ZM155.138 14.5077C158.388 14.5077 160.013 13.2369 160.013 10.6952C160.013 9.43481 159.617 8.47648 158.826 7.82023C158.045 7.15356 156.956 6.82023 155.555 6.82023H150.597C150.357 6.82023 150.19 6.85669 150.097 6.9244C149.998 6.99732 149.951 7.12752 149.951 7.32023V13.9661C149.951 14.164 149.982 14.2994 150.055 14.3827C150.138 14.4661 150.253 14.5077 150.409 14.5077H155.138Z" fill="white"/>
<path d="M175.468 17.8827C175.176 17.8827 175.03 18.0077 175.03 18.2577V28.6744C175.03 29.1484 174.765 29.3827 174.239 29.3827H170.51C170.244 29.3827 170.062 29.3359 169.968 29.2369C169.869 29.1275 169.822 28.9661 169.822 28.7577V3.8619C169.822 3.47648 169.999 3.27856 170.364 3.27856H174.551C174.869 3.27856 175.03 3.46606 175.03 3.84106V13.2994C175.03 13.6744 175.197 13.8619 175.53 13.8619H184.822C185.155 13.8619 185.322 13.69 185.322 13.3411V3.84106C185.322 3.46606 185.478 3.27856 185.801 3.27856H189.989C190.348 3.27856 190.53 3.47648 190.53 3.8619V28.7577C190.53 29.1744 190.301 29.3827 189.843 29.3827H186.114C185.832 29.3827 185.635 29.3359 185.51 29.2369C185.385 29.1275 185.322 28.94 185.322 28.6744V18.2577C185.322 18.0077 185.176 17.8827 184.885 17.8827H175.468Z" fill="white"/>
<path d="M69.5877 45.5007C69.4888 45.5007 69.4054 45.4747 69.3377 45.4174C69.2804 45.3653 69.2544 45.2872 69.2544 45.1882V40.0216C69.2544 39.9278 69.2804 39.8497 69.3377 39.7924C69.4054 39.7247 69.4888 39.6882 69.5877 39.6882C69.6971 39.6882 69.7804 39.7247 69.8377 39.7924C69.8898 39.8497 69.9211 39.9278 69.9211 40.0216V44.9174H72.5669C72.6606 44.9174 72.7388 44.9486 72.7961 45.0007C72.8481 45.058 72.8794 45.1257 72.8794 45.2091C72.8794 45.308 72.8481 45.3861 72.7961 45.4382C72.7388 45.4799 72.6606 45.5007 72.5669 45.5007H69.5877Z" fill="#C64FFF"/>
<path d="M73.885 42.0424C73.8121 42.0424 73.76 42.0216 73.7183 41.9799C73.6871 41.9382 73.6663 41.8861 73.6558 41.8132L73.51 40.1466V40.0632C73.51 39.9382 73.5413 39.8497 73.6142 39.7924C73.6819 39.7247 73.7704 39.6882 73.885 39.6882C73.9788 39.6882 74.0621 39.7247 74.135 39.7924C74.2027 39.8497 74.2392 39.9382 74.2392 40.0632C74.2392 40.0945 74.2392 40.1205 74.2392 40.1466L74.0933 41.8132C74.0777 41.9695 74.01 42.0424 73.885 42.0424Z" fill="#C64FFF"/>
<path d="M77.0489 45.5633C76.6739 45.5633 76.3406 45.48 76.0489 45.3133C75.7572 45.1362 75.5333 44.8914 75.3822 44.5841C75.226 44.2664 75.1531 43.8966 75.1531 43.48C75.1531 43.0633 75.226 42.7039 75.3822 42.3966C75.5333 42.0789 75.7572 41.8341 76.0489 41.6675C76.3406 41.5008 76.6739 41.4175 77.0489 41.4175C77.4239 41.4175 77.7572 41.5008 78.0489 41.6675C78.3406 41.8341 78.5593 42.0789 78.7156 42.3966C78.8666 42.7039 78.9447 43.0633 78.9447 43.48C78.9447 43.8966 78.8666 44.2664 78.7156 44.5841C78.5593 44.8914 78.3406 45.1362 78.0489 45.3133C77.7572 45.48 77.4239 45.5633 77.0489 45.5633ZM77.0489 45.0008C77.4343 45.0008 77.7364 44.8758 77.9447 44.6258C78.1531 44.3654 78.2572 43.98 78.2572 43.48C78.2572 42.9956 78.1531 42.6206 77.9447 42.355C77.7364 42.0946 77.4343 41.9591 77.0489 41.9591C76.6583 41.9591 76.351 42.0946 76.1322 42.355C75.9239 42.6206 75.8197 42.9956 75.8197 43.48C75.8197 43.98 75.9239 44.3654 76.1322 44.6258C76.351 44.8758 76.6583 45.0008 77.0489 45.0008Z" fill="#C64FFF"/>
<path d="M81.9064 41.4383C82.1408 41.4122 82.2606 41.5008 82.2606 41.7091C82.2606 41.7924 82.2293 41.8654 82.1772 41.9174C82.1356 41.9747 82.0522 42.0112 81.9272 42.0216L81.6772 42.0424C81.3127 42.0737 81.0418 42.2039 80.8647 42.4383C80.6825 42.6622 80.5939 42.9279 80.5939 43.2299V45.2091C80.5939 45.3237 80.5627 45.407 80.5106 45.4591C80.4533 45.5112 80.3752 45.5424 80.2814 45.5424C80.1825 45.5424 80.0991 45.5112 80.0314 45.4591C79.9585 45.407 79.9272 45.3237 79.9272 45.2091V41.7508C79.9272 41.657 79.9585 41.5789 80.0314 41.5216C80.0991 41.4695 80.1825 41.4383 80.2814 41.4383C80.3647 41.4383 80.4325 41.4695 80.4897 41.5216C80.5575 41.5789 80.5939 41.657 80.5939 41.7508V42.2091C80.7033 41.9747 80.8647 41.7924 81.0731 41.6674C81.2814 41.5424 81.521 41.4695 81.8022 41.4383H81.9064Z" fill="#C64FFF"/>
<path d="M86.0683 41.4383C86.162 41.4383 86.2402 41.4696 86.2974 41.5216C86.3652 41.5789 86.4016 41.6571 86.4016 41.7508V45.23C86.4016 45.8237 86.2454 46.2716 85.9433 46.5633C85.636 46.8654 85.1829 47.0216 84.5891 47.0216C84.0058 47.0216 83.5162 46.9071 83.1308 46.6883C82.9224 46.5737 82.8183 46.4487 82.8183 46.3133C82.8183 46.23 82.8391 46.1571 82.8808 46.105C82.9224 46.0633 82.9745 46.0425 83.0474 46.0425C83.0995 46.0425 83.1985 46.0841 83.3391 46.1675C83.5318 46.2612 83.7193 46.3394 83.9016 46.3966C84.0943 46.4644 84.3183 46.5008 84.5683 46.5008C84.9537 46.5008 85.2454 46.3966 85.4433 46.1883C85.636 45.98 85.7349 45.6779 85.7349 45.2925V44.5841C85.6204 44.8341 85.4485 45.0321 85.2141 45.1675C84.9745 45.3081 84.6985 45.3758 84.3808 45.3758C84.0318 45.3758 83.7193 45.3029 83.4433 45.1466C83.1777 44.98 82.9693 44.7456 82.8183 44.4383C82.662 44.1362 82.5891 43.7873 82.5891 43.3966C82.5891 43.0112 82.662 42.6623 82.8183 42.355C82.9693 42.0529 83.1777 41.8237 83.4433 41.6675C83.7193 41.5008 84.0318 41.4175 84.3808 41.4175C84.6985 41.4175 84.9693 41.4904 85.1933 41.6258C85.4277 41.7664 85.6099 41.9591 85.7349 42.2091V41.7508C85.7349 41.6571 85.761 41.5789 85.8183 41.5216C85.8704 41.4696 85.9537 41.4383 86.0683 41.4383ZM84.5058 44.8341C84.8912 44.8341 85.1933 44.7091 85.4016 44.4591C85.6204 44.1987 85.7349 43.8446 85.7349 43.3966C85.7349 42.9539 85.6204 42.605 85.4016 42.355C85.1933 42.105 84.8912 41.98 84.5058 41.98C84.1152 41.98 83.8079 42.105 83.5891 42.355C83.3652 42.605 83.2558 42.9539 83.2558 43.3966C83.2558 43.8446 83.3652 44.1987 83.5891 44.4591C83.8079 44.7091 84.1152 44.8341 84.5058 44.8341Z" fill="#C64FFF"/>
<path d="M89.263 41.4175C90.263 41.4175 90.763 41.9383 90.763 42.98V45.2091C90.763 45.3081 90.7266 45.3914 90.6589 45.4591C90.6016 45.5112 90.5234 45.5425 90.4297 45.5425C90.3307 45.5425 90.2526 45.5112 90.2005 45.4591C90.1432 45.3914 90.1172 45.3081 90.1172 45.2091V44.8133C90.0026 45.0529 89.8359 45.2404 89.6172 45.3758C89.4089 45.5008 89.1641 45.5633 88.888 45.5633C88.638 45.5633 88.3984 45.5112 88.1797 45.4175C87.9714 45.3081 87.8047 45.1623 87.6797 44.98C87.5547 44.7873 87.4922 44.5789 87.4922 44.355C87.4922 44.0529 87.5651 43.8133 87.7214 43.6466C87.8724 43.48 88.1224 43.3654 88.4714 43.2925C88.8151 43.2248 89.3047 43.1883 89.9297 43.1883H90.1172V42.9175C90.1172 42.5841 90.0443 42.3446 89.9089 42.1883C89.7682 42.0373 89.5547 41.9591 89.263 41.9591C88.888 41.9591 88.5026 42.0633 88.1172 42.2716C87.9766 42.355 87.8776 42.3966 87.8255 42.3966C87.7526 42.3966 87.7005 42.3758 87.6589 42.3341C87.6172 42.2821 87.5964 42.2196 87.5964 42.1466C87.5964 42.0633 87.6172 41.9956 87.6589 41.9383C87.7005 41.8862 87.7734 41.8289 87.888 41.7716C88.0651 41.6623 88.2734 41.5789 88.513 41.5216C88.763 41.4539 89.013 41.4175 89.263 41.4175ZM88.9922 45.0425C89.3099 45.0425 89.5755 44.9331 89.7839 44.7091C90.0026 44.4904 90.1172 44.2039 90.1172 43.855V43.605H89.9505C89.4766 43.605 89.1172 43.6258 88.8672 43.6675C88.6172 43.7091 88.4349 43.7821 88.3255 43.8758C88.2109 43.9748 88.1589 44.1154 88.1589 44.2925C88.1589 44.5164 88.2318 44.6987 88.388 44.8341C88.5547 44.9748 88.7526 45.0425 88.9922 45.0425Z" fill="#C64FFF"/>
<path d="M93.9784 41.4175C94.9367 41.4175 95.4159 41.9487 95.4159 43.0008V45.2091C95.4159 45.3237 95.3794 45.4071 95.3117 45.4591C95.2544 45.5112 95.1763 45.5425 95.0825 45.5425C94.9679 45.5425 94.8846 45.5112 94.8325 45.4591C94.7752 45.4071 94.7492 45.3237 94.7492 45.2091V43.0425C94.7492 42.6675 94.6711 42.3966 94.52 42.23C94.3794 42.0633 94.1502 41.98 93.8325 41.98C93.4679 41.98 93.1763 42.0946 92.9575 42.3133C92.7336 42.5373 92.6242 42.8341 92.6242 43.2091V45.2091C92.6242 45.3237 92.5929 45.4071 92.5409 45.4591C92.4836 45.5112 92.4054 45.5425 92.3117 45.5425C92.1971 45.5425 92.1086 45.5112 92.0409 45.4591C91.9836 45.4071 91.9575 45.3237 91.9575 45.2091V41.7508C91.9575 41.6571 91.9836 41.5789 92.0409 41.5216C92.1086 41.4696 92.1971 41.4383 92.3117 41.4383C92.4054 41.4383 92.4836 41.4696 92.5409 41.5216C92.5929 41.5789 92.6242 41.6571 92.6242 41.7508V42.1675C92.7492 41.9175 92.9263 41.73 93.1659 41.605C93.4002 41.48 93.6711 41.4175 93.9784 41.4175Z" fill="#C64FFF"/>
<path d="M96.9631 45.5424C96.8642 45.5424 96.7808 45.5111 96.7131 45.4591C96.6402 45.407 96.609 45.3236 96.609 45.2091V41.7507C96.609 41.657 96.6402 41.5789 96.7131 41.5216C96.7808 41.4695 96.8642 41.4382 96.9631 41.4382C97.0569 41.4382 97.135 41.4695 97.1923 41.5216C97.2444 41.5789 97.2756 41.657 97.2756 41.7507V45.2091C97.2756 45.3236 97.2444 45.407 97.1923 45.4591C97.135 45.5111 97.0569 45.5424 96.9631 45.5424ZM96.9631 40.5632C96.8381 40.5632 96.734 40.532 96.6506 40.4591C96.5673 40.3757 96.5256 40.2716 96.5256 40.1466C96.5256 40.0372 96.5673 39.9486 96.6506 39.8757C96.734 39.7924 96.8381 39.7507 96.9631 39.7507C97.0881 39.7507 97.1923 39.7924 97.2756 39.8757C97.359 39.9486 97.4006 40.0372 97.4006 40.1466C97.4006 40.2716 97.359 40.3757 97.2756 40.4591C97.1923 40.532 97.0881 40.5632 96.9631 40.5632Z" fill="#C64FFF"/>
<path d="M99.8631 45.5633C99.6131 45.5633 99.3683 45.5321 99.134 45.48C98.91 45.4123 98.7173 45.3237 98.5506 45.2091C98.4517 45.1571 98.384 45.0998 98.3423 45.0425C98.3006 44.9748 98.2798 44.8966 98.2798 44.8133C98.2798 44.7456 98.3006 44.6883 98.3423 44.6466C98.384 44.605 98.4308 44.5841 98.4881 44.5841C98.5558 44.5841 98.6548 44.6206 98.7798 44.6883C98.9465 44.8029 99.1027 44.8862 99.259 44.9383C99.4256 44.9956 99.6235 45.0216 99.8631 45.0216C100.165 45.0216 100.394 44.9748 100.551 44.8758C100.717 44.7664 100.801 44.6154 100.801 44.4175C100.801 44.2925 100.764 44.1987 100.696 44.1258C100.639 44.0425 100.535 43.9748 100.384 43.9175C100.243 43.8654 100.035 43.8081 99.759 43.7508C99.2694 43.6414 98.9256 43.5008 98.7173 43.3341C98.509 43.1571 98.4048 42.9175 98.4048 42.6258C98.4048 42.3914 98.4673 42.1831 98.5923 42.0008C98.7277 41.8237 98.9152 41.6831 99.1548 41.5841C99.3892 41.4748 99.6548 41.4175 99.9465 41.4175C100.155 41.4175 100.353 41.4487 100.551 41.5008C100.759 41.5581 100.936 41.6414 101.092 41.7508C101.269 41.8758 101.363 42.0112 101.363 42.1466C101.363 42.2196 101.342 42.2821 101.301 42.3341C101.259 42.3758 101.207 42.3966 101.155 42.3966C101.082 42.3966 100.978 42.355 100.842 42.2716C100.686 42.1779 100.54 42.0998 100.405 42.0425C100.28 41.9904 100.113 41.9591 99.9048 41.9591C99.6548 41.9591 99.4465 42.0164 99.2798 42.1258C99.1235 42.2404 99.0506 42.3914 99.0506 42.5841C99.0506 42.7091 99.0767 42.8081 99.134 42.8758C99.2017 42.9487 99.3006 43.0164 99.4256 43.0841C99.561 43.1414 99.759 43.1987 100.009 43.2508C100.384 43.3237 100.665 43.4123 100.863 43.5216C101.071 43.6206 101.217 43.7404 101.301 43.8758C101.394 44.0164 101.446 44.1987 101.446 44.4175C101.446 44.7508 101.301 45.0321 101.009 45.2508C100.717 45.4591 100.332 45.5633 99.8631 45.5633Z" fill="#C64FFF"/>
<path d="M104.086 41.4175C105.086 41.4175 105.586 41.9383 105.586 42.98V45.2091C105.586 45.3081 105.549 45.3914 105.481 45.4591C105.424 45.5112 105.346 45.5425 105.252 45.5425C105.153 45.5425 105.075 45.5112 105.023 45.4591C104.966 45.3914 104.94 45.3081 104.94 45.2091V44.8133C104.825 45.0529 104.658 45.2404 104.44 45.3758C104.231 45.5008 103.987 45.5633 103.711 45.5633C103.461 45.5633 103.221 45.5112 103.002 45.4175C102.794 45.3081 102.627 45.1623 102.502 44.98C102.377 44.7873 102.315 44.5789 102.315 44.355C102.315 44.0529 102.388 43.8133 102.544 43.6466C102.695 43.48 102.945 43.3654 103.294 43.2925C103.638 43.2248 104.127 43.1883 104.752 43.1883H104.94V42.9175C104.94 42.5841 104.867 42.3446 104.731 42.1883C104.591 42.0373 104.377 41.9591 104.086 41.9591C103.711 41.9591 103.325 42.0633 102.94 42.2716C102.799 42.355 102.7 42.3966 102.648 42.3966C102.575 42.3966 102.523 42.3758 102.481 42.3341C102.44 42.2821 102.419 42.2196 102.419 42.1466C102.419 42.0633 102.44 41.9956 102.481 41.9383C102.523 41.8862 102.596 41.8289 102.711 41.7716C102.888 41.6623 103.096 41.5789 103.336 41.5216C103.586 41.4539 103.836 41.4175 104.086 41.4175ZM103.815 45.0425C104.132 45.0425 104.398 44.9331 104.606 44.7091C104.825 44.4904 104.94 44.2039 104.94 43.855V43.605H104.773C104.299 43.605 103.94 43.6258 103.69 43.6675C103.44 43.7091 103.257 43.7821 103.148 43.8758C103.033 43.9748 102.981 44.1154 102.981 44.2925C102.981 44.5164 103.054 44.6987 103.211 44.8341C103.377 44.9748 103.575 45.0425 103.815 45.0425Z" fill="#C64FFF"/>
<path d="M108.634 45.0216C108.827 45.0372 108.926 45.1205 108.926 45.2716C108.926 45.3705 108.89 45.4486 108.822 45.5007C108.749 45.5424 108.645 45.5528 108.509 45.5424L108.28 45.5216C107.848 45.4955 107.53 45.3705 107.322 45.1466C107.114 44.9122 107.009 44.558 107.009 44.0841V42.0424H106.468C106.369 42.0424 106.291 42.0216 106.239 41.9799C106.197 41.9278 106.176 41.8653 106.176 41.7924C106.176 41.7091 106.197 41.6466 106.239 41.6049C106.291 41.5528 106.369 41.5216 106.468 41.5216H107.009V40.5841C107.009 40.4903 107.035 40.4122 107.093 40.3549C107.16 40.2872 107.244 40.2507 107.343 40.2507C107.436 40.2507 107.515 40.2872 107.572 40.3549C107.64 40.4122 107.676 40.4903 107.676 40.5841V41.5216H108.593C108.676 41.5216 108.739 41.5528 108.78 41.6049C108.832 41.6466 108.864 41.7091 108.864 41.7924C108.864 41.8653 108.832 41.9278 108.78 41.9799C108.739 42.0216 108.676 42.0424 108.593 42.0424H107.676V44.1257C107.676 44.433 107.739 44.657 107.864 44.7924C107.989 44.9174 108.166 44.9903 108.405 45.0007L108.634 45.0216Z" fill="#C64FFF"/>
<path d="M109.919 45.5424C109.82 45.5424 109.736 45.5111 109.669 45.4591C109.596 45.407 109.565 45.3236 109.565 45.2091V41.7507C109.565 41.657 109.596 41.5789 109.669 41.5216C109.736 41.4695 109.82 41.4382 109.919 41.4382C110.012 41.4382 110.091 41.4695 110.148 41.5216C110.2 41.5789 110.231 41.657 110.231 41.7507V45.2091C110.231 45.3236 110.2 45.407 110.148 45.4591C110.091 45.5111 110.012 45.5424 109.919 45.5424ZM109.919 40.5632C109.794 40.5632 109.69 40.532 109.606 40.4591C109.523 40.3757 109.481 40.2716 109.481 40.1466C109.481 40.0372 109.523 39.9486 109.606 39.8757C109.69 39.7924 109.794 39.7507 109.919 39.7507C110.044 39.7507 110.148 39.7924 110.231 39.8757C110.315 39.9486 110.356 40.0372 110.356 40.1466C110.356 40.2716 110.315 40.3757 110.231 40.4591C110.148 40.532 110.044 40.5632 109.919 40.5632Z" fill="#C64FFF"/>
<path d="M113.131 45.5633C112.756 45.5633 112.423 45.48 112.131 45.3133C111.839 45.1362 111.615 44.8914 111.464 44.5841C111.308 44.2664 111.235 43.8966 111.235 43.48C111.235 43.0633 111.308 42.7039 111.464 42.3966C111.615 42.0789 111.839 41.8341 112.131 41.6675C112.423 41.5008 112.756 41.4175 113.131 41.4175C113.506 41.4175 113.839 41.5008 114.131 41.6675C114.423 41.8341 114.641 42.0789 114.798 42.3966C114.949 42.7039 115.027 43.0633 115.027 43.48C115.027 43.8966 114.949 44.2664 114.798 44.5841C114.641 44.8914 114.423 45.1362 114.131 45.3133C113.839 45.48 113.506 45.5633 113.131 45.5633ZM113.131 45.0008C113.516 45.0008 113.818 44.8758 114.027 44.6258C114.235 44.3654 114.339 43.98 114.339 43.48C114.339 42.9956 114.235 42.6206 114.027 42.355C113.818 42.0946 113.516 41.9591 113.131 41.9591C112.74 41.9591 112.433 42.0946 112.214 42.355C112.006 42.6206 111.902 42.9956 111.902 43.48C111.902 43.98 112.006 44.3654 112.214 44.6258C112.433 44.8758 112.74 45.0008 113.131 45.0008Z" fill="#C64FFF"/>
<path d="M118.03 41.4175C118.989 41.4175 119.468 41.9487 119.468 43.0008V45.2091C119.468 45.3237 119.431 45.4071 119.364 45.4591C119.306 45.5112 119.228 45.5425 119.135 45.5425C119.02 45.5425 118.937 45.5112 118.885 45.4591C118.827 45.4071 118.801 45.3237 118.801 45.2091V43.0425C118.801 42.6675 118.723 42.3966 118.572 42.23C118.431 42.0633 118.202 41.98 117.885 41.98C117.52 41.98 117.228 42.0946 117.01 42.3133C116.786 42.5373 116.676 42.8341 116.676 43.2091V45.2091C116.676 45.3237 116.645 45.4071 116.593 45.4591C116.536 45.5112 116.457 45.5425 116.364 45.5425C116.249 45.5425 116.161 45.5112 116.093 45.4591C116.036 45.4071 116.01 45.3237 116.01 45.2091V41.7508C116.01 41.6571 116.036 41.5789 116.093 41.5216C116.161 41.4696 116.249 41.4383 116.364 41.4383C116.457 41.4383 116.536 41.4696 116.593 41.5216C116.645 41.5789 116.676 41.6571 116.676 41.7508V42.1675C116.801 41.9175 116.978 41.73 117.218 41.605C117.452 41.48 117.723 41.4175 118.03 41.4175Z" fill="#C64FFF"/>
<path d="M120.973 44.6257C121.109 44.6257 121.223 44.683 121.307 44.7924C121.39 44.8914 121.432 45.0424 121.432 45.2507C121.432 45.6778 121.291 46.0424 121.015 46.3341C120.958 46.4018 120.895 46.4382 120.828 46.4382C120.77 46.4382 120.723 46.4174 120.682 46.3757C120.64 46.3341 120.619 46.282 120.619 46.2299C120.619 46.1726 120.64 46.1257 120.682 46.0841C120.817 45.9278 120.911 45.7403 120.953 45.5216C120.838 45.5059 120.744 45.4695 120.661 45.3966C120.578 45.3132 120.536 45.2091 120.536 45.0841C120.536 44.9486 120.578 44.8341 120.661 44.7507C120.744 44.6674 120.848 44.6257 120.973 44.6257Z" fill="#C64FFF"/>
<path d="M125.003 45.5424C124.904 45.5424 124.821 45.5111 124.753 45.4591C124.68 45.407 124.649 45.3236 124.649 45.2091V40.0216C124.649 39.9122 124.68 39.8289 124.753 39.7716C124.821 39.7195 124.904 39.6882 125.003 39.6882C125.087 39.6882 125.154 39.7195 125.212 39.7716C125.279 39.8289 125.316 39.9122 125.316 40.0216V45.2091C125.316 45.3236 125.279 45.407 125.212 45.4591C125.154 45.5111 125.087 45.5424 125.003 45.5424Z" fill="#C64FFF"/>
<path d="M128.195 41.4175C129.195 41.4175 129.695 41.9383 129.695 42.98V45.2091C129.695 45.3081 129.658 45.3914 129.591 45.4591C129.533 45.5112 129.455 45.5425 129.362 45.5425C129.263 45.5425 129.184 45.5112 129.132 45.4591C129.075 45.3914 129.049 45.3081 129.049 45.2091V44.8133C128.934 45.0529 128.768 45.2404 128.549 45.3758C128.341 45.5008 128.096 45.5633 127.82 45.5633C127.57 45.5633 127.33 45.5112 127.112 45.4175C126.903 45.3081 126.737 45.1623 126.612 44.98C126.487 44.7873 126.424 44.5789 126.424 44.355C126.424 44.0529 126.497 43.8133 126.653 43.6466C126.804 43.48 127.054 43.3654 127.403 43.2925C127.747 43.2248 128.237 43.1883 128.862 43.1883H129.049V42.9175C129.049 42.5841 128.976 42.3446 128.841 42.1883C128.7 42.0373 128.487 41.9591 128.195 41.9591C127.82 41.9591 127.434 42.0633 127.049 42.2716C126.908 42.355 126.809 42.3966 126.757 42.3966C126.684 42.3966 126.632 42.3758 126.591 42.3341C126.549 42.2821 126.528 42.2196 126.528 42.1466C126.528 42.0633 126.549 41.9956 126.591 41.9383C126.632 41.8862 126.705 41.8289 126.82 41.7716C126.997 41.6623 127.205 41.5789 127.445 41.5216C127.695 41.4539 127.945 41.4175 128.195 41.4175ZM127.924 45.0425C128.242 45.0425 128.507 44.9331 128.716 44.7091C128.934 44.4904 129.049 44.2039 129.049 43.855V43.605H128.882C128.408 43.605 128.049 43.6258 127.799 43.6675C127.549 43.7091 127.367 43.7821 127.257 43.8758C127.143 43.9748 127.091 44.1154 127.091 44.2925C127.091 44.5164 127.164 44.6987 127.32 44.8341C127.487 44.9748 127.684 45.0425 127.924 45.0425Z" fill="#C64FFF"/>
<path d="M134.648 45.5633C134.284 45.5633 133.961 45.48 133.669 45.3133C133.377 45.1362 133.153 44.8914 133.002 44.5841C132.846 44.2821 132.773 43.9175 132.773 43.5008C132.773 43.0998 132.846 42.7404 133.002 42.4175C133.169 42.0998 133.398 41.855 133.69 41.6883C133.982 41.5112 134.315 41.4175 134.69 41.4175C134.898 41.4175 135.096 41.4487 135.294 41.5008C135.502 41.5581 135.679 41.6414 135.836 41.7508C135.945 41.8237 136.013 41.8914 136.044 41.9591C136.086 42.0164 136.107 42.0789 136.107 42.1466C136.107 42.23 136.086 42.3029 136.044 42.355C136.013 42.3966 135.966 42.4175 135.898 42.4175C135.857 42.4175 135.815 42.4123 135.773 42.3966C135.732 42.3706 135.69 42.3498 135.648 42.3341C135.617 42.3081 135.607 42.2873 135.607 42.2716C135.45 42.1779 135.315 42.105 135.19 42.0633C135.065 42.0112 134.909 41.98 134.732 41.98C134.325 41.98 134.013 42.1206 133.794 42.3966C133.57 42.6623 133.461 43.0321 133.461 43.5008C133.461 43.9904 133.57 44.3654 133.794 44.6258C134.013 44.8758 134.325 45.0008 134.732 45.0008C134.909 45.0008 135.065 44.98 135.19 44.9383C135.325 44.8862 135.466 44.8081 135.607 44.7091C135.659 44.6675 135.716 44.6362 135.773 44.605C135.825 44.5789 135.877 44.5633 135.919 44.5633C135.971 44.5633 136.023 44.5946 136.065 44.6466C136.107 44.6883 136.127 44.7508 136.127 44.8341C136.127 44.9071 136.107 44.9696 136.065 45.0216C136.034 45.0789 135.966 45.1414 135.857 45.2091C135.7 45.3237 135.513 45.4123 135.294 45.48C135.086 45.5321 134.867 45.5633 134.648 45.5633Z" fill="#C64FFF"/>
<path d="M137.279 45.5424C137.18 45.5424 137.097 45.5111 137.029 45.4591C136.956 45.407 136.925 45.3236 136.925 45.2091V40.0216C136.925 39.9122 136.956 39.8289 137.029 39.7716C137.097 39.7195 137.18 39.6882 137.279 39.6882C137.363 39.6882 137.43 39.7195 137.488 39.7716C137.555 39.8289 137.592 39.9122 137.592 40.0216V45.2091C137.592 45.3236 137.555 45.407 137.488 45.4591C137.43 45.5111 137.363 45.5424 137.279 45.5424Z" fill="#C64FFF"/>
<path d="M141.929 44.5841C141.981 44.5841 142.033 44.6154 142.075 44.6675C142.117 44.7091 142.137 44.7664 142.137 44.8341C142.137 44.9748 142.038 45.0998 141.846 45.2091C141.648 45.3237 141.439 45.4123 141.221 45.48C141.012 45.5321 140.804 45.5633 140.596 45.5633C139.981 45.5633 139.497 45.3862 139.137 45.0216C138.773 44.6466 138.596 44.1414 138.596 43.5008C138.596 43.0841 138.669 42.7248 138.825 42.4175C138.992 42.0998 139.21 41.855 139.492 41.6883C139.783 41.5112 140.106 41.4175 140.471 41.4175C140.997 41.4175 141.413 41.5946 141.721 41.9383C142.023 42.2716 142.179 42.7248 142.179 43.2925C142.179 43.4071 142.158 43.4904 142.117 43.5425C142.075 43.5841 141.997 43.605 141.887 43.605H139.262C139.304 44.5529 139.747 45.0216 140.596 45.0216C140.804 45.0216 140.981 44.9956 141.137 44.9383C141.288 44.8862 141.455 44.8029 141.637 44.6883C141.773 44.6206 141.872 44.5841 141.929 44.5841ZM140.492 41.9383C140.143 41.9383 139.856 42.0529 139.637 42.2716C139.429 42.48 139.309 42.7873 139.283 43.1883H141.596C141.58 42.7873 141.476 42.48 141.283 42.2716C141.101 42.0529 140.835 41.9383 140.492 41.9383ZM140.617 40.98C140.575 41.0112 140.533 41.0216 140.492 41.0216C140.434 41.0216 140.387 41.0112 140.346 40.98C140.304 40.9383 140.283 40.8966 140.283 40.855C140.283 40.8133 140.304 40.7716 140.346 40.73L141.283 39.48C141.377 39.355 141.492 39.2925 141.617 39.2925C141.71 39.2925 141.788 39.3237 141.846 39.3758C141.898 39.4331 141.929 39.5112 141.929 39.605C141.929 39.7196 141.877 39.8237 141.783 39.9175L140.617 40.98Z" fill="#C64FFF"/>
<path d="M148.462 39.6882C148.571 39.6882 148.655 39.7247 148.712 39.7924C148.764 39.8497 148.795 39.9174 148.795 40.0007V45.2091C148.795 45.308 148.764 45.3914 148.712 45.4591C148.655 45.5111 148.571 45.5424 148.462 45.5424C148.363 45.5424 148.28 45.5111 148.212 45.4591C148.155 45.3914 148.129 45.308 148.129 45.2091V44.7716C148.014 45.0216 147.842 45.2195 147.608 45.3549C147.368 45.4955 147.097 45.5632 146.795 45.5632C146.446 45.5632 146.134 45.4799 145.858 45.3132C145.592 45.1361 145.384 44.8861 145.233 44.5632C145.092 44.2455 145.024 43.8861 145.024 43.4799C145.024 43.0632 145.092 42.7039 145.233 42.3966C145.384 42.0789 145.592 41.8341 145.858 41.6674C146.134 41.5007 146.446 41.4174 146.795 41.4174C147.097 41.4174 147.368 41.4903 147.608 41.6257C147.842 41.7664 148.014 41.9591 148.129 42.2091V40.0007C148.129 39.907 148.155 39.8289 148.212 39.7716C148.28 39.7195 148.363 39.6882 148.462 39.6882ZM146.92 45.0007C147.306 45.0007 147.608 44.8705 147.816 44.6049C148.024 44.3445 148.129 43.9695 148.129 43.4799C148.129 42.9955 148.024 42.6257 147.816 42.3757C147.608 42.1153 147.306 41.9799 146.92 41.9799C146.53 41.9799 146.222 42.1153 146.004 42.3757C145.795 42.6257 145.691 42.9955 145.691 43.4799C145.691 43.9695 145.795 44.3445 146.004 44.6049C146.222 44.8705 146.53 45.0007 146.92 45.0007Z" fill="#C64FFF"/>
<path d="M153.124 44.5841C153.176 44.5841 153.228 44.6154 153.27 44.6675C153.311 44.7091 153.332 44.7664 153.332 44.8341C153.332 44.9748 153.233 45.0998 153.041 45.2091C152.843 45.3237 152.634 45.4123 152.416 45.48C152.207 45.5321 151.999 45.5633 151.791 45.5633C151.176 45.5633 150.692 45.3862 150.332 45.0216C149.968 44.6466 149.791 44.1414 149.791 43.5008C149.791 43.0841 149.863 42.7248 150.02 42.4175C150.186 42.0998 150.405 41.855 150.686 41.6883C150.978 41.5112 151.301 41.4175 151.666 41.4175C152.192 41.4175 152.608 41.5946 152.916 41.9383C153.218 42.2716 153.374 42.7248 153.374 43.2925C153.374 43.4071 153.353 43.4904 153.311 43.5425C153.27 43.5841 153.192 43.605 153.082 43.605H150.457C150.499 44.5529 150.942 45.0216 151.791 45.0216C151.999 45.0216 152.176 44.9956 152.332 44.9383C152.483 44.8862 152.65 44.8029 152.832 44.6883C152.968 44.6206 153.067 44.5841 153.124 44.5841ZM151.686 41.9383C151.337 41.9383 151.051 42.0529 150.832 42.2716C150.624 42.48 150.504 42.7873 150.478 43.1883H152.791C152.775 42.7873 152.671 42.48 152.478 42.2716C152.296 42.0529 152.03 41.9383 151.686 41.9383Z" fill="#C64FFF"/>
<path d="M156.802 45.5424C156.703 45.5424 156.62 45.5111 156.552 45.4591C156.479 45.407 156.448 45.3236 156.448 45.2091V40.0216C156.448 39.9122 156.479 39.8289 156.552 39.7716C156.62 39.7195 156.703 39.6882 156.802 39.6882C156.886 39.6882 156.953 39.7195 157.011 39.7716C157.078 39.8289 157.115 39.9122 157.115 40.0216V45.2091C157.115 45.3236 157.078 45.407 157.011 45.4591C156.953 45.5111 156.886 45.5424 156.802 45.5424Z" fill="#C64FFF"/>
<path d="M159.994 41.4175C160.994 41.4175 161.494 41.9383 161.494 42.98V45.2091C161.494 45.3081 161.458 45.3914 161.39 45.4591C161.333 45.5112 161.254 45.5425 161.161 45.5425C161.062 45.5425 160.984 45.5112 160.931 45.4591C160.874 45.3914 160.848 45.3081 160.848 45.2091V44.8133C160.734 45.0529 160.567 45.2404 160.348 45.3758C160.14 45.5008 159.895 45.5633 159.619 45.5633C159.369 45.5633 159.129 45.5112 158.911 45.4175C158.702 45.3081 158.536 45.1623 158.411 44.98C158.286 44.7873 158.223 44.5789 158.223 44.355C158.223 44.0529 158.296 43.8133 158.452 43.6466C158.603 43.48 158.853 43.3654 159.202 43.2925C159.546 43.2248 160.036 43.1883 160.661 43.1883H160.848V42.9175C160.848 42.5841 160.775 42.3446 160.64 42.1883C160.499 42.0373 160.286 41.9591 159.994 41.9591C159.619 41.9591 159.234 42.0633 158.848 42.2716C158.708 42.355 158.609 42.3966 158.556 42.3966C158.484 42.3966 158.431 42.3758 158.39 42.3341C158.348 42.2821 158.327 42.2196 158.327 42.1466C158.327 42.0633 158.348 41.9956 158.39 41.9383C158.431 41.8862 158.504 41.8289 158.619 41.7716C158.796 41.6623 159.004 41.5789 159.244 41.5216C159.494 41.4539 159.744 41.4175 159.994 41.4175ZM159.723 45.0425C160.041 45.0425 160.306 44.9331 160.515 44.7091C160.734 44.4904 160.848 44.2039 160.848 43.855V43.605H160.681C160.208 43.605 159.848 43.6258 159.598 43.6675C159.348 43.7091 159.166 43.7821 159.056 43.8758C158.942 43.9748 158.89 44.1154 158.89 44.2925C158.89 44.5164 158.963 44.6987 159.119 44.8341C159.286 44.9748 159.484 45.0425 159.723 45.0425Z" fill="#C64FFF"/>
<path d="M166.781 41.4383C167.015 41.4122 167.135 41.5008 167.135 41.7091C167.135 41.7924 167.104 41.8654 167.052 41.9174C167.01 41.9747 166.927 42.0112 166.802 42.0216L166.552 42.0424C166.187 42.0737 165.916 42.2039 165.739 42.4383C165.557 42.6622 165.468 42.9279 165.468 43.2299V45.2091C165.468 45.3237 165.437 45.407 165.385 45.4591C165.328 45.5112 165.249 45.5424 165.156 45.5424C165.057 45.5424 164.973 45.5112 164.906 45.4591C164.833 45.407 164.802 45.3237 164.802 45.2091V41.7508C164.802 41.657 164.833 41.5789 164.906 41.5216C164.973 41.4695 165.057 41.4383 165.156 41.4383C165.239 41.4383 165.307 41.4695 165.364 41.5216C165.432 41.5789 165.468 41.657 165.468 41.7508V42.2091C165.578 41.9747 165.739 41.7924 165.947 41.6674C166.156 41.5424 166.395 41.4695 166.677 41.4383H166.781Z" fill="#C64FFF"/>
<path d="M170.796 44.5841C170.849 44.5841 170.901 44.6154 170.942 44.6675C170.984 44.7091 171.005 44.7664 171.005 44.8341C171.005 44.9748 170.906 45.0998 170.713 45.2091C170.515 45.3237 170.307 45.4123 170.088 45.48C169.88 45.5321 169.671 45.5633 169.463 45.5633C168.849 45.5633 168.364 45.3862 168.005 45.0216C167.64 44.6466 167.463 44.1414 167.463 43.5008C167.463 43.0841 167.536 42.7248 167.692 42.4175C167.859 42.0998 168.078 41.855 168.359 41.6883C168.651 41.5112 168.974 41.4175 169.338 41.4175C169.864 41.4175 170.281 41.5946 170.588 41.9383C170.89 42.2716 171.046 42.7248 171.046 43.2925C171.046 43.4071 171.026 43.4904 170.984 43.5425C170.942 43.5841 170.864 43.605 170.755 43.605H168.13C168.171 44.5529 168.614 45.0216 169.463 45.0216C169.671 45.0216 169.849 44.9956 170.005 44.9383C170.156 44.8862 170.323 44.8029 170.505 44.6883C170.64 44.6206 170.739 44.5841 170.796 44.5841ZM169.359 41.9383C169.01 41.9383 168.724 42.0529 168.505 42.2716C168.296 42.48 168.177 42.7873 168.151 43.1883H170.463C170.448 42.7873 170.343 42.48 170.151 42.2716C169.968 42.0529 169.703 41.9383 169.359 41.9383ZM169.484 40.98C169.442 41.0112 169.401 41.0216 169.359 41.0216C169.302 41.0216 169.255 41.0112 169.213 40.98C169.171 40.9383 169.151 40.8966 169.151 40.855C169.151 40.8133 169.171 40.7716 169.213 40.73L170.151 39.48C170.244 39.355 170.359 39.2925 170.484 39.2925C170.578 39.2925 170.656 39.3237 170.713 39.3758C170.765 39.4331 170.796 39.5112 170.796 39.605C170.796 39.7196 170.744 39.8237 170.651 39.9175L169.484 40.98Z" fill="#C64FFF"/>
<path d="M175.05 41.4382C175.143 41.4382 175.222 41.4695 175.279 41.5216C175.347 41.5789 175.383 41.657 175.383 41.7507V45.2299C175.383 45.3132 175.347 45.3914 175.279 45.4591C175.222 45.5111 175.143 45.5424 175.05 45.5424C174.951 45.5424 174.873 45.5111 174.821 45.4591C174.763 45.407 174.737 45.3289 174.737 45.2299V44.8132C174.612 45.0632 174.43 45.2507 174.196 45.3757C173.972 45.5007 173.716 45.5632 173.425 45.5632C172.951 45.5632 172.597 45.433 172.362 45.1674C172.123 44.907 172.008 44.5111 172.008 43.9799V41.7507C172.008 41.657 172.034 41.5789 172.091 41.5216C172.143 41.4695 172.227 41.4382 172.341 41.4382C172.435 41.4382 172.513 41.4695 172.571 41.5216C172.638 41.5789 172.675 41.657 172.675 41.7507V43.9799C172.675 44.3289 172.742 44.5841 172.883 44.7507C173.018 44.9174 173.242 45.0007 173.55 45.0007C173.893 45.0007 174.175 44.8914 174.383 44.6674C174.602 44.433 174.716 44.1361 174.716 43.7716V41.7507C174.716 41.657 174.742 41.5789 174.8 41.5216C174.852 41.4695 174.935 41.4382 175.05 41.4382Z" fill="#C64FFF"/>
<path d="M177.956 45.5633C177.706 45.5633 177.462 45.5321 177.227 45.48C177.003 45.4123 176.811 45.3237 176.644 45.2091C176.545 45.1571 176.477 45.0998 176.436 45.0425C176.394 44.9748 176.373 44.8966 176.373 44.8133C176.373 44.7456 176.394 44.6883 176.436 44.6466C176.477 44.605 176.524 44.5841 176.581 44.5841C176.649 44.5841 176.748 44.6206 176.873 44.6883C177.04 44.8029 177.196 44.8862 177.352 44.9383C177.519 44.9956 177.717 45.0216 177.956 45.0216C178.258 45.0216 178.488 44.9748 178.644 44.8758C178.811 44.7664 178.894 44.6154 178.894 44.4175C178.894 44.2925 178.857 44.1987 178.79 44.1258C178.732 44.0425 178.628 43.9748 178.477 43.9175C178.337 43.8654 178.128 43.8081 177.852 43.7508C177.363 43.6414 177.019 43.5008 176.811 43.3341C176.602 43.1571 176.498 42.9175 176.498 42.6258C176.498 42.3914 176.561 42.1831 176.686 42.0008C176.821 41.8237 177.008 41.6831 177.248 41.5841C177.482 41.4748 177.748 41.4175 178.04 41.4175C178.248 41.4175 178.446 41.4487 178.644 41.5008C178.852 41.5581 179.029 41.6414 179.186 41.7508C179.363 41.8758 179.456 42.0112 179.456 42.1466C179.456 42.2196 179.436 42.2821 179.394 42.3341C179.352 42.3758 179.3 42.3966 179.248 42.3966C179.175 42.3966 179.071 42.355 178.936 42.2716C178.779 42.1779 178.633 42.0998 178.498 42.0425C178.373 41.9904 178.206 41.9591 177.998 41.9591C177.748 41.9591 177.54 42.0164 177.373 42.1258C177.217 42.2404 177.144 42.3914 177.144 42.5841C177.144 42.7091 177.17 42.8081 177.227 42.8758C177.295 42.9487 177.394 43.0164 177.519 43.0841C177.654 43.1414 177.852 43.1987 178.102 43.2508C178.477 43.3237 178.758 43.4123 178.956 43.5216C179.165 43.6206 179.311 43.7404 179.394 43.8758C179.488 44.0164 179.54 44.1987 179.54 44.4175C179.54 44.7508 179.394 45.0321 179.102 45.2508C178.811 45.4591 178.425 45.5633 177.956 45.5633Z" fill="#C64FFF"/>
<path d="M181.887 45.5633C181.637 45.5633 181.392 45.5321 181.158 45.48C180.934 45.4123 180.741 45.3237 180.575 45.2091C180.476 45.1571 180.408 45.0998 180.366 45.0425C180.325 44.9748 180.304 44.8966 180.304 44.8133C180.304 44.7456 180.325 44.6883 180.366 44.6466C180.408 44.605 180.455 44.5841 180.512 44.5841C180.58 44.5841 180.679 44.6206 180.804 44.6883C180.971 44.8029 181.127 44.8862 181.283 44.9383C181.45 44.9956 181.648 45.0216 181.887 45.0216C182.189 45.0216 182.419 44.9748 182.575 44.8758C182.741 44.7664 182.825 44.6154 182.825 44.4175C182.825 44.2925 182.788 44.1987 182.721 44.1258C182.663 44.0425 182.559 43.9748 182.408 43.9175C182.267 43.8654 182.059 43.8081 181.783 43.7508C181.294 43.6414 180.95 43.5008 180.741 43.3341C180.533 43.1571 180.429 42.9175 180.429 42.6258C180.429 42.3914 180.491 42.1831 180.616 42.0008C180.752 41.8237 180.939 41.6831 181.179 41.5841C181.413 41.4748 181.679 41.4175 181.971 41.4175C182.179 41.4175 182.377 41.4487 182.575 41.5008C182.783 41.5581 182.96 41.6414 183.116 41.7508C183.294 41.8758 183.387 42.0112 183.387 42.1466C183.387 42.2196 183.366 42.2821 183.325 42.3341C183.283 42.3758 183.231 42.3966 183.179 42.3966C183.106 42.3966 183.002 42.355 182.866 42.2716C182.71 42.1779 182.564 42.0998 182.429 42.0425C182.304 41.9904 182.137 41.9591 181.929 41.9591C181.679 41.9591 181.471 42.0164 181.304 42.1258C181.148 42.2404 181.075 42.3914 181.075 42.5841C181.075 42.7091 181.101 42.8081 181.158 42.8758C181.226 42.9487 181.325 43.0164 181.45 43.0841C181.585 43.1414 181.783 43.1987 182.033 43.2508C182.408 43.3237 182.689 43.4123 182.887 43.5216C183.096 43.6206 183.241 43.7404 183.325 43.8758C183.419 44.0164 183.471 44.1987 183.471 44.4175C183.471 44.7508 183.325 45.0321 183.033 45.2508C182.741 45.4591 182.356 45.5633 181.887 45.5633Z" fill="#C64FFF"/>
<path d="M184.818 45.5424C184.719 45.5424 184.636 45.5111 184.568 45.4591C184.495 45.407 184.464 45.3236 184.464 45.2091V41.7507C184.464 41.657 184.495 41.5789 184.568 41.5216C184.636 41.4695 184.719 41.4382 184.818 41.4382C184.912 41.4382 184.99 41.4695 185.047 41.5216C185.099 41.5789 185.131 41.657 185.131 41.7507V45.2091C185.131 45.3236 185.099 45.407 185.047 45.4591C184.99 45.5111 184.912 45.5424 184.818 45.5424ZM184.818 40.5632C184.693 40.5632 184.589 40.532 184.506 40.4591C184.422 40.3757 184.381 40.2716 184.381 40.1466C184.381 40.0372 184.422 39.9486 184.506 39.8757C184.589 39.7924 184.693 39.7507 184.818 39.7507C184.943 39.7507 185.047 39.7924 185.131 39.8757C185.214 39.9486 185.256 40.0372 185.256 40.1466C185.256 40.2716 185.214 40.3757 185.131 40.4591C185.047 40.532 184.943 40.5632 184.818 40.5632Z" fill="#C64FFF"/>
<path d="M188.218 45.0216C188.411 45.0372 188.51 45.1205 188.51 45.2716C188.51 45.3705 188.473 45.4486 188.406 45.5007C188.333 45.5424 188.229 45.5528 188.093 45.5424L187.864 45.5216C187.432 45.4955 187.114 45.3705 186.906 45.1466C186.697 44.9122 186.593 44.558 186.593 44.0841V42.0424H186.051C185.952 42.0424 185.874 42.0216 185.822 41.9799C185.781 41.9278 185.76 41.8653 185.76 41.7924C185.76 41.7091 185.781 41.6466 185.822 41.6049C185.874 41.5528 185.952 41.5216 186.051 41.5216H186.593V40.5841C186.593 40.4903 186.619 40.4122 186.676 40.3549C186.744 40.2872 186.827 40.2507 186.926 40.2507C187.02 40.2507 187.098 40.2872 187.156 40.3549C187.223 40.4122 187.26 40.4903 187.26 40.5841V41.5216H188.176C188.26 41.5216 188.322 41.5528 188.364 41.6049C188.416 41.6466 188.447 41.7091 188.447 41.7924C188.447 41.8653 188.416 41.9278 188.364 41.9799C188.322 42.0216 188.26 42.0424 188.176 42.0424H187.26V44.1257C187.26 44.433 187.322 44.657 187.447 44.7924C187.572 44.9174 187.749 44.9903 187.989 45.0007L188.218 45.0216Z" fill="#C64FFF"/>
<path d="M192.252 44.5841C192.304 44.5841 192.356 44.6154 192.398 44.6675C192.44 44.7091 192.461 44.7664 192.461 44.8341C192.461 44.9748 192.362 45.0998 192.169 45.2091C191.971 45.3237 191.763 45.4123 191.544 45.48C191.336 45.5321 191.127 45.5633 190.919 45.5633C190.304 45.5633 189.82 45.3862 189.461 45.0216C189.096 44.6466 188.919 44.1414 188.919 43.5008C188.919 43.0841 188.992 42.7248 189.148 42.4175C189.315 42.0998 189.534 41.855 189.815 41.6883C190.106 41.5112 190.429 41.4175 190.794 41.4175C191.32 41.4175 191.737 41.5946 192.044 41.9383C192.346 42.2716 192.502 42.7248 192.502 43.2925C192.502 43.4071 192.481 43.4904 192.44 43.5425C192.398 43.5841 192.32 43.605 192.211 43.605H189.586C189.627 44.5529 190.07 45.0216 190.919 45.0216C191.127 45.0216 191.304 44.9956 191.461 44.9383C191.612 44.8862 191.778 44.8029 191.961 44.6883C192.096 44.6206 192.195 44.5841 192.252 44.5841ZM190.815 41.9383C190.466 41.9383 190.179 42.0529 189.961 42.2716C189.752 42.48 189.632 42.7873 189.606 43.1883H191.919C191.903 42.7873 191.799 42.48 191.606 42.2716C191.424 42.0529 191.159 41.9383 190.815 41.9383Z" fill="#C64FFF"/>
<defs>
<linearGradient id="paint0_linear_309_1214" x1="50.5731" y1="10.6401" x2="-4.31737" y2="33.2819" gradientUnits="userSpaceOnUse">
<stop stop-color="#C64FFF"/>
<stop offset="0.0625" stop-color="#C64FFF"/>
<stop offset="0.09375" stop-color="#C64FFF"/>
<stop offset="0.0976562" stop-color="#C54FFF"/>
<stop offset="0.101562" stop-color="#C44FFF"/>
<stop offset="0.105469" stop-color="#C44FFF"/>
<stop offset="0.109375" stop-color="#C34FFF"/>
<stop offset="0.113281" stop-color="#C34FFE"/>
<stop offset="0.117188" stop-color="#C24FFE"/>
<stop offset="0.121094" stop-color="#C24FFE"/>
<stop offset="0.125" stop-color="#C14FFE"/>
<stop offset="0.128906" stop-color="#C14FFE"/>
<stop offset="0.132812" stop-color="#C04FFE"/>
<stop offset="0.136719" stop-color="#C04FFE"/>
<stop offset="0.140625" stop-color="#BF4FFE"/>
<stop offset="0.144531" stop-color="#BE4FFE"/>
<stop offset="0.148438" stop-color="#BE4FFE"/>
<stop offset="0.152344" stop-color="#BD4FFE"/>
<stop offset="0.15625" stop-color="#BD4FFD"/>
<stop offset="0.160156" stop-color="#BC4FFD"/>
<stop offset="0.164062" stop-color="#BC4FFD"/>
<stop offset="0.167969" stop-color="#BB4FFD"/>
<stop offset="0.171875" stop-color="#BB4FFD"/>
<stop offset="0.175781" stop-color="#BA4FFD"/>
<stop offset="0.179688" stop-color="#BA4FFD"/>
<stop offset="0.183594" stop-color="#B94FFD"/>
<stop offset="0.1875" stop-color="#B84FFD"/>
<stop offset="0.191406" stop-color="#B84FFD"/>
<stop offset="0.195312" stop-color="#B74FFD"/>
<stop offset="0.199219" stop-color="#B74FFC"/>
<stop offset="0.203125" stop-color="#B64FFC"/>
<stop offset="0.207031" stop-color="#B64FFC"/>
<stop offset="0.210937" stop-color="#B54FFC"/>
<stop offset="0.214844" stop-color="#B54FFC"/>
<stop offset="0.21875" stop-color="#B44FFC"/>
<stop offset="0.222656" stop-color="#B44FFC"/>
<stop offset="0.226562" stop-color="#B34FFC"/>
<stop offset="0.230469" stop-color="#B34FFC"/>
<stop offset="0.234375" stop-color="#B24FFC"/>
<stop offset="0.238281" stop-color="#B14FFC"/>
<stop offset="0.242187" stop-color="#B14FFC"/>
<stop offset="0.246094" stop-color="#B04FFB"/>
<stop offset="0.25" stop-color="#B04FFB"/>
<stop offset="0.253906" stop-color="#AF4FFB"/>
<stop offset="0.257812" stop-color="#AF4FFB"/>
<stop offset="0.261719" stop-color="#AE4FFB"/>
<stop offset="0.265625" stop-color="#AE4FFB"/>
<stop offset="0.269531" stop-color="#AD4FFB"/>
<stop offset="0.273438" stop-color="#AD4FFB"/>
<stop offset="0.277344" stop-color="#AC4FFB"/>
<stop offset="0.28125" stop-color="#AB4FFB"/>
<stop offset="0.285156" stop-color="#AB4FFB"/>
<stop offset="0.289062" stop-color="#AA4FFA"/>
<stop offset="0.292969" stop-color="#AA4EFA"/>
<stop offset="0.296875" stop-color="#A94EFA"/>
<stop offset="0.300781" stop-color="#A94EFA"/>
<stop offset="0.304687" stop-color="#A84EFA"/>
<stop offset="0.308594" stop-color="#A84EFA"/>
<stop offset="0.3125" stop-color="#A74EFA"/>
<stop offset="0.316406" stop-color="#A74EFA"/>
<stop offset="0.320312" stop-color="#A64EFA"/>
<stop offset="0.324219" stop-color="#A64EFA"/>
<stop offset="0.328125" stop-color="#A54EFA"/>
<stop offset="0.332031" stop-color="#A44EF9"/>
<stop offset="0.335937" stop-color="#A44EF9"/>
<stop offset="0.339844" stop-color="#A34EF9"/>
<stop offset="0.34375" stop-color="#A34EF9"/>
<stop offset="0.347656" stop-color="#A24EF9"/>
<stop offset="0.351562" stop-color="#A24EF9"/>
<stop offset="0.355469" stop-color="#A14EF9"/>
<stop offset="0.359375" stop-color="#A14EF9"/>
<stop offset="0.363281" stop-color="#A04EF9"/>
<stop offset="0.367188" stop-color="#A04EF9"/>
<stop offset="0.371094" stop-color="#9F4EF9"/>
<stop offset="0.375" stop-color="#9E4EF8"/>
<stop offset="0.378906" stop-color="#9E4EF8"/>
<stop offset="0.382812" stop-color="#9D4EF8"/>
<stop offset="0.386719" stop-color="#9D4EF8"/>
<stop offset="0.390625" stop-color="#9C4EF8"/>
<stop offset="0.394531" stop-color="#9C4EF8"/>
<stop offset="0.398437" stop-color="#9B4EF8"/>
<stop offset="0.402344" stop-color="#9B4EF8"/>
<stop offset="0.40625" stop-color="#9A4EF8"/>
<stop offset="0.410156" stop-color="#9A4EF8"/>
<stop offset="0.414062" stop-color="#994EF8"/>
<stop offset="0.417969" stop-color="#994EF7"/>
<stop offset="0.421875" stop-color="#984EF7"/>
<stop offset="0.425781" stop-color="#974EF7"/>
<stop offset="0.429688" stop-color="#974EF7"/>
<stop offset="0.433594" stop-color="#964EF7"/>
<stop offset="0.4375" stop-color="#964EF7"/>
<stop offset="0.441406" stop-color="#954EF7"/>
<stop offset="0.445313" stop-color="#954EF7"/>
<stop offset="0.449219" stop-color="#944EF7"/>
<stop offset="0.453125" stop-color="#944EF7"/>
<stop offset="0.457031" stop-color="#934EF7"/>
<stop offset="0.460937" stop-color="#934EF6"/>
<stop offset="0.464844" stop-color="#924EF6"/>
<stop offset="0.46875" stop-color="#914EF6"/>
<stop offset="0.472656" stop-color="#914EF6"/>
<stop offset="0.476562" stop-color="#904EF6"/>
<stop offset="0.480469" stop-color="#904EF6"/>
<stop offset="0.484375" stop-color="#8F4EF6"/>
<stop offset="0.488281" stop-color="#8F4EF6"/>
<stop offset="0.492188" stop-color="#8E4EF6"/>
<stop offset="0.496094" stop-color="#8E4EF6"/>
<stop offset="0.5" stop-color="#8D4EF6"/>
<stop offset="0.503906" stop-color="#8D4EF5"/>
<stop offset="0.507812" stop-color="#8C4EF5"/>
<stop offset="0.511719" stop-color="#8C4EF5"/>
<stop offset="0.515625" stop-color="#8B4EF5"/>
<stop offset="0.519531" stop-color="#8A4EF5"/>
<stop offset="0.523437" stop-color="#8A4EF5"/>
<stop offset="0.527344" stop-color="#894EF5"/>
<stop offset="0.53125" stop-color="#894EF5"/>
<stop offset="0.535156" stop-color="#884EF5"/>
<stop offset="0.539062" stop-color="#884EF5"/>
<stop offset="0.542969" stop-color="#874EF5"/>
<stop offset="0.546875" stop-color="#874EF4"/>
<stop offset="0.550781" stop-color="#864EF4"/>
<stop offset="0.554688" stop-color="#864EF4"/>
<stop offset="0.558594" stop-color="#854EF4"/>
<stop offset="0.5625" stop-color="#844EF4"/>
<stop offset="0.566406" stop-color="#844EF4"/>
<stop offset="0.570312" stop-color="#834EF4"/>
<stop offset="0.574219" stop-color="#834EF4"/>
<stop offset="0.578125" stop-color="#824EF4"/>
<stop offset="0.582031" stop-color="#824EF4"/>
<stop offset="0.585938" stop-color="#814EF4"/>
<stop offset="0.589844" stop-color="#814EF3"/>
<stop offset="0.59375" stop-color="#804EF3"/>
<stop offset="0.597656" stop-color="#804EF3"/>
<stop offset="0.601562" stop-color="#7F4EF3"/>
<stop offset="0.605469" stop-color="#7F4EF3"/>
<stop offset="0.609375" stop-color="#7E4EF3"/>
<stop offset="0.613281" stop-color="#7D4EF3"/>
<stop offset="0.617187" stop-color="#7D4EF3"/>
<stop offset="0.621094" stop-color="#7C4EF3"/>
<stop offset="0.625" stop-color="#7C4EF3"/>
<stop offset="0.628906" stop-color="#7B4EF3"/>
<stop offset="0.632812" stop-color="#7B4EF3"/>
<stop offset="0.636719" stop-color="#7A4EF2"/>
<stop offset="0.640625" stop-color="#7A4EF2"/>
<stop offset="0.644531" stop-color="#794EF2"/>
<stop offset="0.648438" stop-color="#794EF2"/>
<stop offset="0.652344" stop-color="#784EF2"/>
<stop offset="0.65625" stop-color="#774DF2"/>
<stop offset="0.660156" stop-color="#774DF2"/>
<stop offset="0.664062" stop-color="#764DF2"/>
<stop offset="0.667969" stop-color="#764DF2"/>
<stop offset="0.671875" stop-color="#754DF2"/>
<stop offset="0.675781" stop-color="#754DF2"/>
<stop offset="0.679687" stop-color="#744DF1"/>
<stop offset="0.683594" stop-color="#744DF1"/>
<stop offset="0.6875" stop-color="#734DF1"/>
<stop offset="0.691406" stop-color="#734DF1"/>
<stop offset="0.695312" stop-color="#724DF1"/>
<stop offset="0.699219" stop-color="#724DF1"/>
<stop offset="0.703125" stop-color="#714DF1"/>
<stop offset="0.707031" stop-color="#704DF1"/>
<stop offset="0.710938" stop-color="#704DF1"/>
<stop offset="0.714844" stop-color="#6F4DF1"/>
<stop offset="0.71875" stop-color="#6F4DF1"/>
<stop offset="0.722656" stop-color="#6E4DF0"/>
<stop offset="0.726562" stop-color="#6E4DF0"/>
<stop offset="0.730469" stop-color="#6D4DF0"/>
<stop offset="0.734375" stop-color="#6D4DF0"/>
<stop offset="0.738281" stop-color="#6C4DF0"/>
<stop offset="0.742187" stop-color="#6C4DF0"/>
<stop offset="0.746094" stop-color="#6B4DF0"/>
<stop offset="0.75" stop-color="#6A4DF0"/>
<stop offset="0.753906" stop-color="#6A4DF0"/>
<stop offset="0.757812" stop-color="#694DF0"/>
<stop offset="0.761719" stop-color="#694DF0"/>
<stop offset="0.765625" stop-color="#684DEF"/>
<stop offset="0.769531" stop-color="#684DEF"/>
<stop offset="0.773437" stop-color="#674DEF"/>
<stop offset="0.777344" stop-color="#674DEF"/>
<stop offset="0.78125" stop-color="#664DEF"/>
<stop offset="0.785156" stop-color="#664DEF"/>
<stop offset="0.789062" stop-color="#654DEF"/>
<stop offset="0.792969" stop-color="#654DEF"/>
<stop offset="0.796875" stop-color="#644DEF"/>
<stop offset="0.800781" stop-color="#634DEF"/>
<stop offset="0.804687" stop-color="#634DEF"/>
<stop offset="0.808594" stop-color="#624DEE"/>
<stop offset="0.8125" stop-color="#624DEE"/>
<stop offset="0.816406" stop-color="#614DEE"/>
<stop offset="0.820312" stop-color="#614DEE"/>
<stop offset="0.824219" stop-color="#604DEE"/>
<stop offset="0.828125" stop-color="#604DEE"/>
<stop offset="0.84375" stop-color="#5F4DEE"/>
<stop offset="0.875" stop-color="#5F4DEE"/>
<stop offset="1" stop-color="#5F4DEE"/>
</linearGradient>
</defs>
</svg>
