<svg width="124" height="118" viewBox="0 0 124 118" fill="none" xmlns="http://www.w3.org/2000/svg">
<mask id="mask0_309_1700" style="mask-type:luminance" maskUnits="userSpaceOnUse" x="29" y="0" width="65" height="62">
<path d="M29.1768 0H93.9424V61.7656H29.1768V0Z" fill="white"/>
</mask>
<g mask="url(#mask0_309_1700)">
<mask id="mask1_309_1700" style="mask-type:luminance" maskUnits="userSpaceOnUse" x="29" y="0" width="65" height="62">
<path d="M63.7704 35.4792V7.91145C63.7704 6.84374 64.7913 6.0677 65.8173 6.35936L92.7652 13.9271C93.4579 14.1198 93.9423 14.7552 93.9423 15.4792V43.0521C93.9423 44.1198 92.9215 44.8958 91.8902 44.6042L64.9475 37.0364C64.2496 36.8385 63.7704 36.2031 63.7704 35.4792ZM43.4319 17.5729L57.3017 21.4739C58.3329 21.7604 59.3538 20.9844 59.3538 19.9167V5.74478C59.3538 5.02082 58.8694 4.38541 58.1767 4.1927L44.3017 0.291655C43.2704 0.00519744 42.2548 0.781238 42.2548 1.84895V16.0208C42.2548 16.7448 42.734 17.3802 43.4319 17.5729ZM58.1767 24.7448L31.2288 17.1771C30.2027 16.8906 29.1819 17.6614 29.1819 18.7292V46.3021C29.1819 47.026 29.6611 47.6614 30.359 47.8542L57.3017 55.4219C58.3329 55.7135 59.3538 54.9375 59.3538 53.8698V26.3021C59.3538 25.5781 58.8694 24.9427 58.1767 24.7448ZM79.6923 44.2083L65.8173 40.3125C64.7913 40.0208 63.7704 40.7969 63.7704 41.8646V56.0364C63.7704 56.7604 64.2496 57.3958 64.9475 57.5885L78.8225 61.4896C79.8486 61.776 80.8694 61.0052 80.8694 59.9323V45.7604C80.8694 45.0364 80.3902 44.401 79.6923 44.2083Z" fill="white"/>
</mask>
<g mask="url(#mask1_309_1700)">
<path d="M93.9423 0.00512695H29.1819V61.7655H93.9423V0.00512695Z" fill="url(#paint0_linear_309_1700)"/>
</g>
</g>
<path d="M2.31885 73.7146C5.6626 73.7146 8.01677 73.725 9.38135 73.7354C18.548 73.9594 23.1313 78.2667 23.1313 86.6521C23.1313 90.8604 21.9491 94.1104 19.5897 96.4021C17.2407 98.6834 13.7563 99.8188 9.13135 99.8188H2.33968C1.86572 99.8188 1.63135 99.5792 1.63135 99.0896V74.3396C1.63135 74.1052 1.67822 73.9438 1.77718 73.8604C1.87093 73.7667 2.05322 73.7146 2.31885 73.7146ZM7.17301 77.4438C6.94906 77.4438 6.83968 77.6052 6.83968 77.9229V95.6729C6.83968 95.8396 6.87093 95.9542 6.94385 96.0063C7.02718 96.0636 7.14177 96.0896 7.29801 96.0896H8.19385C11.4959 96.0896 13.9074 95.3708 15.423 93.9229C16.9334 92.4646 17.6938 90.0427 17.6938 86.6521C17.6938 84.475 17.3866 82.7354 16.7772 81.4438C16.1626 80.1417 15.2563 79.1834 14.048 78.5688C12.8397 77.9594 11.2616 77.6052 9.31885 77.5063L7.17301 77.4438Z" fill="#5F4DEE"/>
<path d="M32.4255 73.7146C32.7432 73.7146 32.9046 73.9021 32.9046 74.2771V99.0479C32.9046 99.3292 32.8421 99.5271 32.7171 99.6521C32.5921 99.7667 32.3734 99.8188 32.0713 99.8188H28.4046C28.1234 99.8188 27.9359 99.7719 27.8421 99.6729C27.7432 99.5792 27.6963 99.4177 27.6963 99.1938V74.2979C27.6963 73.9125 27.8734 73.7146 28.238 73.7146H32.4255Z" fill="#5F4DEE"/>
<path d="M48.9596 100.173C46.6367 100.173 44.6107 99.6312 42.8763 98.5479C41.1523 97.4541 39.819 95.902 38.8763 93.902C37.944 91.8916 37.4805 89.5426 37.4805 86.8604C37.4805 84.126 37.9648 81.7354 38.9388 79.6937C39.9076 77.652 41.2773 76.0895 43.043 75.0062C44.819 73.9124 46.8815 73.3604 49.2305 73.3604C50.9909 73.3604 52.6055 73.7093 54.0638 74.402C55.5326 75.0999 56.7305 76.001 57.6471 77.1104C58.5742 78.2249 59.1576 79.4124 59.3971 80.6729L59.4805 81.0687C59.4805 81.3083 59.3346 81.4437 59.043 81.4854L55.1471 82.0895C54.9648 82.0895 54.8398 82.0583 54.7721 81.9854C54.7148 81.9176 54.668 81.7874 54.6263 81.5895C54.4023 80.2979 53.7982 79.2301 52.8138 78.3812C51.8398 77.5218 50.6107 77.0895 49.1263 77.0895C45.0013 77.0895 42.9388 80.277 42.9388 86.652C42.9388 90.0426 43.4701 92.5218 44.543 94.0895C45.6263 95.6624 47.1992 96.4437 49.2721 96.4437C50.9076 96.4437 52.2201 95.9749 53.2096 95.027C54.194 94.0687 54.7826 92.9333 54.9805 91.6104L55.0013 90.2145C55.0273 90.1729 55.043 90.1104 55.043 90.027C55.043 89.8499 54.9232 89.7562 54.6888 89.7562H49.8971C49.7148 89.7562 49.5898 89.7249 49.5221 89.652C49.4492 89.5843 49.418 89.4437 49.418 89.2354V86.9854C49.418 86.6937 49.5742 86.5479 49.8971 86.5479L59.043 86.5895C59.3346 86.5895 59.5482 86.6624 59.6888 86.7979C59.8242 86.9229 59.8971 87.0895 59.8971 87.2979V99.3187C59.8971 99.652 59.7409 99.8187 59.4388 99.8187H58.418C58.2096 99.8187 58.0326 99.7874 57.8971 99.7145C57.7721 99.6468 57.668 99.5062 57.5846 99.2979L56.793 96.5062C56.7513 96.4124 56.6992 96.3708 56.6471 96.3812C56.5898 96.3968 56.5273 96.4541 56.4596 96.5479C54.694 98.9645 52.194 100.173 48.9596 100.173Z" fill="#5F4DEE"/>
<path d="M69.4645 73.7146C69.7822 73.7146 69.9437 73.9021 69.9437 74.2771V99.0479C69.9437 99.3292 69.8812 99.5271 69.7562 99.6521C69.6312 99.7667 69.4124 99.8188 69.1104 99.8188H65.4437C65.1624 99.8188 64.9749 99.7719 64.8812 99.6729C64.7822 99.5792 64.7354 99.4177 64.7354 99.1938V74.2979C64.7354 73.9125 64.9124 73.7146 65.277 73.7146H69.4645Z" fill="#5F4DEE"/>
<path d="M95.8115 98.9646C95.8532 99.0479 95.874 99.1625 95.874 99.2979C95.874 99.4386 95.8219 99.5636 95.7282 99.6729C95.6449 99.7719 95.5199 99.8188 95.3532 99.8188H91.0615C90.8636 99.8188 90.7126 99.7771 90.6032 99.6938C90.5042 99.6104 90.4209 99.4646 90.3532 99.2563L86.3115 88.9854C86.2386 88.8188 86.1344 88.7042 85.999 88.6313C85.8584 88.5636 85.6449 88.5271 85.3532 88.5271H81.1449C80.8532 88.5271 80.7074 88.6521 80.7074 88.9021V99.0896C80.7074 99.3396 80.6449 99.5271 80.5199 99.6521C80.3949 99.7667 80.1917 99.8188 79.9157 99.8188H76.1865C75.9209 99.8188 75.7386 99.7719 75.6449 99.6729C75.5459 99.5636 75.499 99.4021 75.499 99.1938V74.2979C75.499 73.9125 75.6761 73.7146 76.0407 73.7146H86.624C89.6501 73.7146 91.999 74.3292 93.6657 75.5479C95.3324 76.7563 96.1657 78.4958 96.1657 80.7563C96.1657 82.5063 95.6917 83.975 94.749 85.1521C93.8167 86.3188 92.6449 87.1521 91.2282 87.6521C91.0459 87.725 91.0042 87.8761 91.1032 88.1104L95.8115 98.9646ZM85.8949 84.9438C89.1449 84.9438 90.7699 83.6729 90.7699 81.1313C90.7699 79.8708 90.374 78.9125 89.5824 78.2563C88.8011 77.5896 87.7126 77.2563 86.3115 77.2563H81.3532C81.1136 77.2563 80.9469 77.2927 80.8532 77.3604C80.7542 77.4334 80.7074 77.5636 80.7074 77.7563V84.4021C80.7074 84.6 80.7386 84.7354 80.8115 84.8188C80.8949 84.9021 81.0094 84.9438 81.1657 84.9438H85.8949Z" fill="#5F4DEE"/>
<path d="M106.224 88.3188C105.933 88.3188 105.787 88.4438 105.787 88.6938V99.1104C105.787 99.5844 105.521 99.8188 104.995 99.8188H101.266C101 99.8188 100.818 99.7719 100.724 99.6729C100.625 99.5636 100.579 99.4021 100.579 99.1938V74.2979C100.579 73.9125 100.756 73.7146 101.12 73.7146H105.308C105.625 73.7146 105.787 73.9021 105.787 74.2771V83.7354C105.787 84.1104 105.954 84.2979 106.287 84.2979H115.579C115.912 84.2979 116.079 84.1261 116.079 83.7771V74.2771C116.079 73.9021 116.235 73.7146 116.558 73.7146H120.745C121.105 73.7146 121.287 73.9125 121.287 74.2979V99.1938C121.287 99.6104 121.058 99.8188 120.599 99.8188H116.87C116.589 99.8188 116.391 99.7719 116.266 99.6729C116.141 99.5636 116.079 99.3761 116.079 99.1104V88.6938C116.079 88.4438 115.933 88.3188 115.641 88.3188H106.224Z" fill="#5F4DEE"/>
<path d="M0.333333 115.937C0.234375 115.937 0.151041 115.911 0.0833333 115.853C0.0260413 115.801 0 115.723 0 115.624V110.458C0 110.364 0.0260413 110.286 0.0833333 110.228C0.151041 110.161 0.234375 110.124 0.333333 110.124C0.442708 110.124 0.526041 110.161 0.583333 110.228C0.635416 110.286 0.666667 110.364 0.666667 110.458V115.353H3.3125C3.40625 115.353 3.48437 115.385 3.54167 115.437C3.59375 115.494 3.625 115.562 3.625 115.645C3.625 115.744 3.59375 115.822 3.54167 115.874C3.48437 115.916 3.40625 115.937 3.3125 115.937H0.333333Z" fill="#C64FFF"/>
<path d="M4.63037 112.478C4.55745 112.478 4.50537 112.458 4.4637 112.416C4.43245 112.374 4.41162 112.322 4.4012 112.249L4.25537 110.583V110.499C4.25537 110.374 4.28662 110.286 4.35954 110.228C4.42725 110.161 4.51579 110.124 4.63037 110.124C4.72412 110.124 4.80745 110.161 4.88037 110.228C4.94808 110.286 4.98454 110.374 4.98454 110.499C4.98454 110.531 4.98454 110.557 4.98454 110.583L4.8387 112.249C4.82308 112.406 4.75537 112.478 4.63037 112.478Z" fill="#C64FFF"/>
<path d="M7.79427 115.999C7.41927 115.999 7.08594 115.916 6.79427 115.749C6.5026 115.572 6.27865 115.327 6.1276 115.02C5.97135 114.702 5.89844 114.332 5.89844 113.916C5.89844 113.499 5.97135 113.14 6.1276 112.832C6.27865 112.515 6.5026 112.27 6.79427 112.103C7.08594 111.937 7.41927 111.853 7.79427 111.853C8.16927 111.853 8.5026 111.937 8.79427 112.103C9.08594 112.27 9.30469 112.515 9.46094 112.832C9.61198 113.14 9.6901 113.499 9.6901 113.916C9.6901 114.332 9.61198 114.702 9.46094 115.02C9.30469 115.327 9.08594 115.572 8.79427 115.749C8.5026 115.916 8.16927 115.999 7.79427 115.999ZM7.79427 115.437C8.17969 115.437 8.48177 115.312 8.6901 115.062C8.89844 114.801 9.0026 114.416 9.0026 113.916C9.0026 113.431 8.89844 113.056 8.6901 112.791C8.48177 112.53 8.17969 112.395 7.79427 112.395C7.40365 112.395 7.09635 112.53 6.8776 112.791C6.66927 113.056 6.5651 113.431 6.5651 113.916C6.5651 114.416 6.66927 114.801 6.8776 115.062C7.09635 115.312 7.40365 115.437 7.79427 115.437Z" fill="#C64FFF"/>
<path d="M12.652 111.874C12.8864 111.848 13.0062 111.937 13.0062 112.145C13.0062 112.228 12.9749 112.301 12.9229 112.353C12.8812 112.411 12.7979 112.447 12.6729 112.458L12.4229 112.478C12.0583 112.51 11.7874 112.64 11.6104 112.874C11.4281 113.098 11.3395 113.364 11.3395 113.666V115.645C11.3395 115.76 11.3083 115.843 11.2562 115.895C11.1989 115.947 11.1208 115.978 11.027 115.978C10.9281 115.978 10.8447 115.947 10.777 115.895C10.7041 115.843 10.6729 115.76 10.6729 115.645V112.187C10.6729 112.093 10.7041 112.015 10.777 111.958C10.8447 111.906 10.9281 111.874 11.027 111.874C11.1104 111.874 11.1781 111.906 11.2354 111.958C11.3031 112.015 11.3395 112.093 11.3395 112.187V112.645C11.4489 112.411 11.6104 112.228 11.8187 112.103C12.027 111.978 12.2666 111.906 12.5479 111.874H12.652Z" fill="#C64FFF"/>
<path d="M16.8136 111.874C16.9074 111.874 16.9855 111.905 17.0428 111.957C17.1105 112.015 17.147 112.093 17.147 112.187V115.666C17.147 116.26 16.9907 116.707 16.6886 116.999C16.3813 117.301 15.9282 117.457 15.3345 117.457C14.7511 117.457 14.2616 117.343 13.8761 117.124C13.6678 117.01 13.5636 116.885 13.5636 116.749C13.5636 116.666 13.5845 116.593 13.6261 116.541C13.6678 116.499 13.7199 116.478 13.7928 116.478C13.8449 116.478 13.9438 116.52 14.0845 116.603C14.2772 116.697 14.4647 116.775 14.647 116.832C14.8397 116.9 15.0636 116.937 15.3136 116.937C15.6991 116.937 15.9907 116.832 16.1886 116.624C16.3813 116.416 16.4803 116.114 16.4803 115.728V115.02C16.3657 115.27 16.1938 115.468 15.9595 115.603C15.7199 115.744 15.4438 115.812 15.1261 115.812C14.7772 115.812 14.4647 115.739 14.1886 115.582C13.923 115.416 13.7147 115.181 13.5636 114.874C13.4074 114.572 13.3345 114.223 13.3345 113.832C13.3345 113.447 13.4074 113.098 13.5636 112.791C13.7147 112.489 13.923 112.26 14.1886 112.103C14.4647 111.937 14.7772 111.853 15.1261 111.853C15.4438 111.853 15.7147 111.926 15.9386 112.062C16.173 112.202 16.3553 112.395 16.4803 112.645V112.187C16.4803 112.093 16.5063 112.015 16.5636 111.957C16.6157 111.905 16.6991 111.874 16.8136 111.874ZM15.2511 115.27C15.6366 115.27 15.9386 115.145 16.147 114.895C16.3657 114.635 16.4803 114.28 16.4803 113.832C16.4803 113.39 16.3657 113.041 16.147 112.791C15.9386 112.541 15.6366 112.416 15.2511 112.416C14.8605 112.416 14.5532 112.541 14.3345 112.791C14.1105 113.041 14.0011 113.39 14.0011 113.832C14.0011 114.28 14.1105 114.635 14.3345 114.895C14.5532 115.145 14.8605 115.27 15.2511 115.27Z" fill="#C64FFF"/>
<path d="M20.0086 111.853C21.0086 111.853 21.5086 112.374 21.5086 113.416V115.645C21.5086 115.744 21.4722 115.827 21.4045 115.895C21.3472 115.947 21.269 115.978 21.1753 115.978C21.0763 115.978 20.9982 115.947 20.9461 115.895C20.8888 115.827 20.8628 115.744 20.8628 115.645V115.249C20.7482 115.489 20.5815 115.676 20.3628 115.812C20.1545 115.937 19.9097 115.999 19.6336 115.999C19.3836 115.999 19.144 115.947 18.9253 115.853C18.717 115.744 18.5503 115.598 18.4253 115.416C18.3003 115.223 18.2378 115.015 18.2378 114.791C18.2378 114.489 18.3107 114.249 18.467 114.082C18.618 113.916 18.868 113.801 19.217 113.728C19.5607 113.661 20.0503 113.624 20.6753 113.624H20.8628V113.353C20.8628 113.02 20.7899 112.78 20.6545 112.624C20.5138 112.473 20.3003 112.395 20.0086 112.395C19.6336 112.395 19.2482 112.499 18.8628 112.707C18.7222 112.791 18.6232 112.832 18.5711 112.832C18.4982 112.832 18.4461 112.812 18.4045 112.77C18.3628 112.718 18.342 112.655 18.342 112.582C18.342 112.499 18.3628 112.431 18.4045 112.374C18.4461 112.322 18.519 112.265 18.6336 112.207C18.8107 112.098 19.019 112.015 19.2586 111.957C19.5086 111.89 19.7586 111.853 20.0086 111.853ZM19.7378 115.478C20.0555 115.478 20.3211 115.369 20.5295 115.145C20.7482 114.926 20.8628 114.64 20.8628 114.291V114.041H20.6961C20.2222 114.041 19.8628 114.062 19.6128 114.103C19.3628 114.145 19.1805 114.218 19.0711 114.312C18.9565 114.411 18.9045 114.551 18.9045 114.728C18.9045 114.952 18.9774 115.135 19.1336 115.27C19.3003 115.411 19.4982 115.478 19.7378 115.478Z" fill="#C64FFF"/>
<path d="M24.724 111.853C25.6823 111.853 26.1615 112.385 26.1615 113.437V115.645C26.1615 115.76 26.125 115.843 26.0573 115.895C26 115.947 25.9219 115.978 25.8281 115.978C25.7135 115.978 25.6302 115.947 25.5781 115.895C25.5208 115.843 25.4948 115.76 25.4948 115.645V113.478C25.4948 113.103 25.4167 112.832 25.2656 112.666C25.125 112.499 24.8958 112.416 24.5781 112.416C24.2135 112.416 23.9219 112.53 23.7031 112.749C23.4792 112.973 23.3698 113.27 23.3698 113.645V115.645C23.3698 115.76 23.3385 115.843 23.2865 115.895C23.2292 115.947 23.151 115.978 23.0573 115.978C22.9427 115.978 22.8542 115.947 22.7865 115.895C22.7292 115.843 22.7031 115.76 22.7031 115.645V112.187C22.7031 112.093 22.7292 112.015 22.7865 111.957C22.8542 111.905 22.9427 111.874 23.0573 111.874C23.151 111.874 23.2292 111.905 23.2865 111.957C23.3385 112.015 23.3698 112.093 23.3698 112.187V112.603C23.4948 112.353 23.6719 112.166 23.9115 112.041C24.1458 111.916 24.4167 111.853 24.724 111.853Z" fill="#C64FFF"/>
<path d="M27.7085 115.978C27.6095 115.978 27.5262 115.947 27.4585 115.895C27.3856 115.843 27.3543 115.76 27.3543 115.645V112.187C27.3543 112.093 27.3856 112.015 27.4585 111.958C27.5262 111.906 27.6095 111.874 27.7085 111.874C27.8022 111.874 27.8804 111.906 27.9377 111.958C27.9897 112.015 28.021 112.093 28.021 112.187V115.645C28.021 115.76 27.9897 115.843 27.9377 115.895C27.8804 115.947 27.8022 115.978 27.7085 115.978ZM27.7085 110.999C27.5835 110.999 27.4793 110.968 27.396 110.895C27.3127 110.812 27.271 110.708 27.271 110.583C27.271 110.473 27.3127 110.385 27.396 110.312C27.4793 110.228 27.5835 110.187 27.7085 110.187C27.8335 110.187 27.9377 110.228 28.021 110.312C28.1043 110.385 28.146 110.473 28.146 110.583C28.146 110.708 28.1043 110.812 28.021 110.895C27.9377 110.968 27.8335 110.999 27.7085 110.999Z" fill="#C64FFF"/>
<path d="M30.6087 115.999C30.3587 115.999 30.1139 115.968 29.8796 115.916C29.6556 115.848 29.4629 115.76 29.2962 115.645C29.1973 115.593 29.1296 115.536 29.0879 115.478C29.0462 115.411 29.0254 115.332 29.0254 115.249C29.0254 115.181 29.0462 115.124 29.0879 115.082C29.1296 115.041 29.1764 115.02 29.2337 115.02C29.3014 115.02 29.4004 115.056 29.5254 115.124C29.6921 115.239 29.8483 115.322 30.0046 115.374C30.1712 115.431 30.3691 115.457 30.6087 115.457C30.9108 115.457 31.14 115.411 31.2962 115.312C31.4629 115.202 31.5462 115.051 31.5462 114.853C31.5462 114.728 31.5098 114.635 31.4421 114.562C31.3848 114.478 31.2806 114.411 31.1296 114.353C30.9889 114.301 30.7806 114.244 30.5046 114.187C30.015 114.077 29.6712 113.937 29.4629 113.77C29.2546 113.593 29.1504 113.353 29.1504 113.062C29.1504 112.827 29.2129 112.619 29.3379 112.437C29.4733 112.26 29.6608 112.119 29.9004 112.02C30.1348 111.911 30.4004 111.853 30.6921 111.853C30.9004 111.853 31.0983 111.885 31.2962 111.937C31.5046 111.994 31.6816 112.077 31.8379 112.187C32.015 112.312 32.1087 112.447 32.1087 112.582C32.1087 112.655 32.0879 112.718 32.0462 112.77C32.0046 112.812 31.9525 112.832 31.9004 112.832C31.8275 112.832 31.7233 112.791 31.5879 112.707C31.4316 112.614 31.2858 112.536 31.1504 112.478C31.0254 112.426 30.8587 112.395 30.6504 112.395C30.4004 112.395 30.1921 112.452 30.0254 112.562C29.8691 112.676 29.7962 112.827 29.7962 113.02C29.7962 113.145 29.8223 113.244 29.8796 113.312C29.9473 113.385 30.0462 113.452 30.1712 113.52C30.3066 113.577 30.5046 113.635 30.7546 113.687C31.1296 113.76 31.4108 113.848 31.6087 113.957C31.8171 114.056 31.9629 114.176 32.0462 114.312C32.14 114.452 32.1921 114.635 32.1921 114.853C32.1921 115.187 32.0462 115.468 31.7546 115.687C31.4629 115.895 31.0775 115.999 30.6087 115.999Z" fill="#C64FFF"/>
<path d="M34.8314 111.853C35.8314 111.853 36.3314 112.374 36.3314 113.416V115.645C36.3314 115.744 36.2949 115.827 36.2272 115.895C36.1699 115.947 36.0918 115.978 35.998 115.978C35.8991 115.978 35.821 115.947 35.7689 115.895C35.7116 115.827 35.6855 115.744 35.6855 115.645V115.249C35.571 115.489 35.4043 115.676 35.1855 115.812C34.9772 115.937 34.7324 115.999 34.4564 115.999C34.2064 115.999 33.9668 115.947 33.748 115.853C33.5397 115.744 33.373 115.598 33.248 115.416C33.123 115.223 33.0605 115.015 33.0605 114.791C33.0605 114.489 33.1335 114.249 33.2897 114.082C33.4408 113.916 33.6908 113.801 34.0397 113.728C34.3835 113.661 34.873 113.624 35.498 113.624H35.6855V113.353C35.6855 113.02 35.6126 112.78 35.4772 112.624C35.3366 112.473 35.123 112.395 34.8314 112.395C34.4564 112.395 34.071 112.499 33.6855 112.707C33.5449 112.791 33.446 112.832 33.3939 112.832C33.321 112.832 33.2689 112.812 33.2272 112.77C33.1855 112.718 33.1647 112.655 33.1647 112.582C33.1647 112.499 33.1855 112.431 33.2272 112.374C33.2689 112.322 33.3418 112.265 33.4564 112.207C33.6335 112.098 33.8418 112.015 34.0814 111.957C34.3314 111.89 34.5814 111.853 34.8314 111.853ZM34.5605 115.478C34.8783 115.478 35.1439 115.369 35.3522 115.145C35.571 114.926 35.6855 114.64 35.6855 114.291V114.041H35.5189C35.0449 114.041 34.6855 114.062 34.4355 114.103C34.1855 114.145 34.0033 114.218 33.8939 114.312C33.7793 114.411 33.7272 114.551 33.7272 114.728C33.7272 114.952 33.8001 115.135 33.9564 115.27C34.123 115.411 34.321 115.478 34.5605 115.478Z" fill="#C64FFF"/>
<path d="M39.3797 115.458C39.5724 115.473 39.6714 115.557 39.6714 115.708C39.6714 115.807 39.6349 115.885 39.5672 115.937C39.4943 115.978 39.3901 115.989 39.2547 115.978L39.0256 115.958C38.5933 115.932 38.2756 115.807 38.0672 115.583C37.8589 115.348 37.7547 114.994 37.7547 114.52V112.478H37.2131C37.1141 112.478 37.036 112.458 36.9839 112.416C36.9422 112.364 36.9214 112.301 36.9214 112.228C36.9214 112.145 36.9422 112.083 36.9839 112.041C37.036 111.989 37.1141 111.958 37.2131 111.958H37.7547V111.02C37.7547 110.926 37.7808 110.848 37.8381 110.791C37.9058 110.723 37.9891 110.687 38.0881 110.687C38.1818 110.687 38.2599 110.723 38.3172 110.791C38.3849 110.848 38.4214 110.926 38.4214 111.02V111.958H39.3381C39.4214 111.958 39.4839 111.989 39.5256 112.041C39.5776 112.083 39.6089 112.145 39.6089 112.228C39.6089 112.301 39.5776 112.364 39.5256 112.416C39.4839 112.458 39.4214 112.478 39.3381 112.478H38.4214V114.562C38.4214 114.869 38.4839 115.093 38.6089 115.228C38.7339 115.353 38.911 115.426 39.1506 115.437L39.3797 115.458Z" fill="#C64FFF"/>
<path d="M40.6641 115.978C40.5651 115.978 40.4818 115.947 40.4141 115.895C40.3411 115.843 40.3099 115.76 40.3099 115.645V112.187C40.3099 112.093 40.3411 112.015 40.4141 111.958C40.4818 111.906 40.5651 111.874 40.6641 111.874C40.7578 111.874 40.8359 111.906 40.8932 111.958C40.9453 112.015 40.9766 112.093 40.9766 112.187V115.645C40.9766 115.76 40.9453 115.843 40.8932 115.895C40.8359 115.947 40.7578 115.978 40.6641 115.978ZM40.6641 110.999C40.5391 110.999 40.4349 110.968 40.3516 110.895C40.2682 110.812 40.2266 110.708 40.2266 110.583C40.2266 110.473 40.2682 110.385 40.3516 110.312C40.4349 110.228 40.5391 110.187 40.6641 110.187C40.7891 110.187 40.8932 110.228 40.9766 110.312C41.0599 110.385 41.1016 110.473 41.1016 110.583C41.1016 110.708 41.0599 110.812 40.9766 110.895C40.8932 110.968 40.7891 110.999 40.6641 110.999Z" fill="#C64FFF"/>
<path d="M43.8768 115.999C43.5018 115.999 43.1685 115.916 42.8768 115.749C42.5851 115.572 42.3612 115.327 42.2101 115.02C42.0539 114.702 41.981 114.332 41.981 113.916C41.981 113.499 42.0539 113.14 42.2101 112.832C42.3612 112.515 42.5851 112.27 42.8768 112.103C43.1685 111.937 43.5018 111.853 43.8768 111.853C44.2518 111.853 44.5851 111.937 44.8768 112.103C45.1685 112.27 45.3872 112.515 45.5435 112.832C45.6945 113.14 45.7726 113.499 45.7726 113.916C45.7726 114.332 45.6945 114.702 45.5435 115.02C45.3872 115.327 45.1685 115.572 44.8768 115.749C44.5851 115.916 44.2518 115.999 43.8768 115.999ZM43.8768 115.437C44.2622 115.437 44.5643 115.312 44.7726 115.062C44.981 114.801 45.0851 114.416 45.0851 113.916C45.0851 113.431 44.981 113.056 44.7726 112.791C44.5643 112.53 44.2622 112.395 43.8768 112.395C43.4862 112.395 43.1789 112.53 42.9601 112.791C42.7518 113.056 42.6476 113.431 42.6476 113.916C42.6476 114.416 42.7518 114.801 42.9601 115.062C43.1789 115.312 43.4862 115.437 43.8768 115.437Z" fill="#C64FFF"/>
<path d="M48.7757 111.853C49.734 111.853 50.2132 112.385 50.2132 113.437V115.645C50.2132 115.76 50.1768 115.843 50.109 115.895C50.0518 115.947 49.9736 115.978 49.8799 115.978C49.7653 115.978 49.682 115.947 49.6299 115.895C49.5726 115.843 49.5465 115.76 49.5465 115.645V113.478C49.5465 113.103 49.4684 112.832 49.3174 112.666C49.1768 112.499 48.9476 112.416 48.6299 112.416C48.2653 112.416 47.9736 112.53 47.7549 112.749C47.5309 112.973 47.4215 113.27 47.4215 113.645V115.645C47.4215 115.76 47.3903 115.843 47.3382 115.895C47.2809 115.947 47.2028 115.978 47.109 115.978C46.9945 115.978 46.9059 115.947 46.8382 115.895C46.7809 115.843 46.7549 115.76 46.7549 115.645V112.187C46.7549 112.093 46.7809 112.015 46.8382 111.957C46.9059 111.905 46.9945 111.874 47.109 111.874C47.2028 111.874 47.2809 111.905 47.3382 111.957C47.3903 112.015 47.4215 112.093 47.4215 112.187V112.603C47.5465 112.353 47.7236 112.166 47.9632 112.041C48.1976 111.916 48.4684 111.853 48.7757 111.853Z" fill="#C64FFF"/>
<path d="M51.7192 115.062C51.8547 115.062 51.9692 115.119 52.0526 115.228C52.1359 115.327 52.1776 115.478 52.1776 115.687C52.1776 116.114 52.0369 116.478 51.7609 116.77C51.7036 116.838 51.6411 116.874 51.5734 116.874C51.5161 116.874 51.4692 116.853 51.4276 116.812C51.3859 116.77 51.3651 116.718 51.3651 116.666C51.3651 116.609 51.3859 116.562 51.4276 116.52C51.563 116.364 51.6567 116.176 51.6984 115.958C51.5838 115.942 51.4901 115.906 51.4067 115.833C51.3234 115.749 51.2817 115.645 51.2817 115.52C51.2817 115.385 51.3234 115.27 51.4067 115.187C51.4901 115.103 51.5942 115.062 51.7192 115.062Z" fill="#C64FFF"/>
<path d="M55.7487 115.978C55.6497 115.978 55.5664 115.947 55.4987 115.895C55.4258 115.843 55.3945 115.76 55.3945 115.645V110.458C55.3945 110.348 55.4258 110.265 55.4987 110.208C55.5664 110.156 55.6497 110.124 55.7487 110.124C55.832 110.124 55.8997 110.156 55.957 110.208C56.0247 110.265 56.0612 110.348 56.0612 110.458V115.645C56.0612 115.76 56.0247 115.843 55.957 115.895C55.8997 115.947 55.832 115.978 55.7487 115.978Z" fill="#C64FFF"/>
<path d="M58.9408 111.853C59.9408 111.853 60.4408 112.374 60.4408 113.416V115.645C60.4408 115.744 60.4043 115.827 60.3366 115.895C60.2793 115.947 60.2012 115.978 60.1074 115.978C60.0085 115.978 59.9303 115.947 59.8783 115.895C59.821 115.827 59.7949 115.744 59.7949 115.645V115.249C59.6803 115.489 59.5137 115.676 59.2949 115.812C59.0866 115.937 58.8418 115.999 58.5658 115.999C58.3158 115.999 58.0762 115.947 57.8574 115.853C57.6491 115.744 57.4824 115.598 57.3574 115.416C57.2324 115.223 57.1699 115.015 57.1699 114.791C57.1699 114.489 57.2428 114.249 57.3991 114.082C57.5501 113.916 57.8001 113.801 58.1491 113.728C58.4928 113.661 58.9824 113.624 59.6074 113.624H59.7949V113.353C59.7949 113.02 59.722 112.78 59.5866 112.624C59.446 112.473 59.2324 112.395 58.9408 112.395C58.5658 112.395 58.1803 112.499 57.7949 112.707C57.6543 112.791 57.5553 112.832 57.5033 112.832C57.4303 112.832 57.3783 112.812 57.3366 112.77C57.2949 112.718 57.2741 112.655 57.2741 112.582C57.2741 112.499 57.2949 112.431 57.3366 112.374C57.3783 112.322 57.4512 112.265 57.5658 112.207C57.7428 112.098 57.9512 112.015 58.1908 111.957C58.4408 111.89 58.6908 111.853 58.9408 111.853ZM58.6699 115.478C58.9876 115.478 59.2533 115.369 59.4616 115.145C59.6803 114.926 59.7949 114.64 59.7949 114.291V114.041H59.6283C59.1543 114.041 58.7949 114.062 58.5449 114.103C58.2949 114.145 58.1126 114.218 58.0033 114.312C57.8887 114.411 57.8366 114.551 57.8366 114.728C57.8366 114.952 57.9095 115.135 58.0658 115.27C58.2324 115.411 58.4303 115.478 58.6699 115.478Z" fill="#C64FFF"/>
<path d="M65.3936 115.999C65.029 115.999 64.7061 115.916 64.4144 115.749C64.1227 115.572 63.8988 115.327 63.7477 115.02C63.5915 114.718 63.5186 114.353 63.5186 113.937C63.5186 113.536 63.5915 113.176 63.7477 112.853C63.9144 112.536 64.1436 112.291 64.4352 112.124C64.7269 111.947 65.0602 111.853 65.4352 111.853C65.6436 111.853 65.8415 111.885 66.0394 111.937C66.2477 111.994 66.4248 112.077 66.5811 112.187C66.6904 112.26 66.7581 112.327 66.7894 112.395C66.8311 112.452 66.8519 112.515 66.8519 112.582C66.8519 112.666 66.8311 112.739 66.7894 112.791C66.7581 112.832 66.7113 112.853 66.6436 112.853C66.6019 112.853 66.5602 112.848 66.5186 112.832C66.4769 112.806 66.4352 112.786 66.3936 112.77C66.3623 112.744 66.3519 112.723 66.3519 112.707C66.1956 112.614 66.0602 112.541 65.9352 112.499C65.8102 112.447 65.654 112.416 65.4769 112.416C65.0706 112.416 64.7581 112.556 64.5394 112.832C64.3154 113.098 64.2061 113.468 64.2061 113.937C64.2061 114.426 64.3154 114.801 64.5394 115.062C64.7581 115.312 65.0706 115.437 65.4769 115.437C65.654 115.437 65.8102 115.416 65.9352 115.374C66.0706 115.322 66.2113 115.244 66.3519 115.145C66.404 115.103 66.4613 115.072 66.5186 115.041C66.5706 115.015 66.6227 114.999 66.6644 114.999C66.7165 114.999 66.7686 115.03 66.8102 115.082C66.8519 115.124 66.8727 115.187 66.8727 115.27C66.8727 115.343 66.8519 115.405 66.8102 115.457C66.779 115.515 66.7113 115.577 66.6019 115.645C66.4456 115.76 66.2581 115.848 66.0394 115.916C65.8311 115.968 65.6123 115.999 65.3936 115.999Z" fill="#C64FFF"/>
<path d="M68.0246 115.978C67.9256 115.978 67.8423 115.947 67.7746 115.895C67.7017 115.843 67.6704 115.76 67.6704 115.645V110.458C67.6704 110.348 67.7017 110.265 67.7746 110.208C67.8423 110.156 67.9256 110.124 68.0246 110.124C68.1079 110.124 68.1756 110.156 68.2329 110.208C68.3006 110.265 68.3371 110.348 68.3371 110.458V115.645C68.3371 115.76 68.3006 115.843 68.2329 115.895C68.1756 115.947 68.1079 115.978 68.0246 115.978Z" fill="#C64FFF"/>
<path d="M72.6746 115.02C72.7267 115.02 72.7788 115.051 72.8205 115.103C72.8621 115.145 72.883 115.202 72.883 115.27C72.883 115.411 72.784 115.536 72.5913 115.645C72.3934 115.76 72.1851 115.848 71.9663 115.916C71.758 115.968 71.5496 115.999 71.3413 115.999C70.7267 115.999 70.2423 115.822 69.883 115.457C69.5184 115.082 69.3413 114.577 69.3413 113.937C69.3413 113.52 69.4142 113.161 69.5705 112.853C69.7371 112.536 69.9559 112.291 70.2371 112.124C70.5288 111.947 70.8517 111.853 71.2163 111.853C71.7424 111.853 72.159 112.03 72.4663 112.374C72.7684 112.707 72.9246 113.161 72.9246 113.728C72.9246 113.843 72.9038 113.926 72.8621 113.978C72.8205 114.02 72.7424 114.041 72.633 114.041H70.008C70.0496 114.989 70.4923 115.457 71.3413 115.457C71.5496 115.457 71.7267 115.431 71.883 115.374C72.034 115.322 72.2007 115.239 72.383 115.124C72.5184 115.056 72.6174 115.02 72.6746 115.02ZM71.2371 112.374C70.8882 112.374 70.6017 112.489 70.383 112.707C70.1746 112.916 70.0548 113.223 70.0288 113.624H72.3413C72.3257 113.223 72.2215 112.916 72.0288 112.707C71.8465 112.489 71.5809 112.374 71.2371 112.374ZM71.3621 111.416C71.3205 111.447 71.2788 111.457 71.2371 111.457C71.1798 111.457 71.133 111.447 71.0913 111.416C71.0496 111.374 71.0288 111.332 71.0288 111.291C71.0288 111.249 71.0496 111.207 71.0913 111.166L72.0288 109.916C72.1226 109.791 72.2371 109.728 72.3621 109.728C72.4559 109.728 72.534 109.76 72.5913 109.812C72.6434 109.869 72.6746 109.947 72.6746 110.041C72.6746 110.155 72.6226 110.26 72.5288 110.353L71.3621 111.416Z" fill="#C64FFF"/>
<path d="M79.2075 110.124C79.3169 110.124 79.4002 110.161 79.4575 110.228C79.5096 110.286 79.5409 110.353 79.5409 110.437V115.645C79.5409 115.744 79.5096 115.827 79.4575 115.895C79.4002 115.947 79.3169 115.978 79.2075 115.978C79.1086 115.978 79.0252 115.947 78.9575 115.895C78.9002 115.827 78.8742 115.744 78.8742 115.645V115.208C78.7596 115.458 78.5877 115.656 78.3534 115.791C78.1138 115.932 77.8429 115.999 77.5409 115.999C77.1919 115.999 76.8794 115.916 76.6034 115.749C76.3377 115.572 76.1294 115.322 75.9784 114.999C75.8377 114.682 75.77 114.322 75.77 113.916C75.77 113.499 75.8377 113.14 75.9784 112.833C76.1294 112.515 76.3377 112.27 76.6034 112.103C76.8794 111.937 77.1919 111.853 77.5409 111.853C77.8429 111.853 78.1138 111.926 78.3534 112.062C78.5877 112.202 78.7596 112.395 78.8742 112.645V110.437C78.8742 110.343 78.9002 110.265 78.9575 110.208C79.0252 110.156 79.1086 110.124 79.2075 110.124ZM77.6659 115.437C78.0513 115.437 78.3534 115.307 78.5617 115.041C78.77 114.781 78.8742 114.406 78.8742 113.916C78.8742 113.432 78.77 113.062 78.5617 112.812C78.3534 112.551 78.0513 112.416 77.6659 112.416C77.2752 112.416 76.9679 112.551 76.7492 112.812C76.5409 113.062 76.4367 113.432 76.4367 113.916C76.4367 114.406 76.5409 114.781 76.7492 115.041C76.9679 115.307 77.2752 115.437 77.6659 115.437Z" fill="#C64FFF"/>
<path d="M83.8695 115.02C83.9215 115.02 83.9736 115.051 84.0153 115.103C84.057 115.145 84.0778 115.202 84.0778 115.27C84.0778 115.411 83.9788 115.536 83.7861 115.645C83.5882 115.76 83.3799 115.848 83.1611 115.916C82.9528 115.968 82.7445 115.999 82.5361 115.999C81.9215 115.999 81.4372 115.822 81.0778 115.457C80.7132 115.082 80.5361 114.577 80.5361 113.937C80.5361 113.52 80.6091 113.161 80.7653 112.853C80.932 112.536 81.1507 112.291 81.432 112.124C81.7236 111.947 82.0465 111.853 82.4111 111.853C82.9372 111.853 83.3538 112.03 83.6611 112.374C83.9632 112.707 84.1195 113.161 84.1195 113.728C84.1195 113.843 84.0986 113.926 84.057 113.978C84.0153 114.02 83.9372 114.041 83.8278 114.041H81.2028C81.2445 114.989 81.6872 115.457 82.5361 115.457C82.7445 115.457 82.9215 115.431 83.0778 115.374C83.2288 115.322 83.3955 115.239 83.5778 115.124C83.7132 115.056 83.8122 115.02 83.8695 115.02ZM82.432 112.374C82.083 112.374 81.7965 112.489 81.5778 112.707C81.3695 112.916 81.2497 113.223 81.2236 113.624H83.5361C83.5205 113.223 83.4163 112.916 83.2236 112.707C83.0413 112.489 82.7757 112.374 82.432 112.374Z" fill="#C64FFF"/>
<path d="M87.548 115.978C87.4491 115.978 87.3657 115.947 87.298 115.895C87.2251 115.843 87.1938 115.76 87.1938 115.645V110.458C87.1938 110.348 87.2251 110.265 87.298 110.208C87.3657 110.156 87.4491 110.124 87.548 110.124C87.6313 110.124 87.6991 110.156 87.7563 110.208C87.8241 110.265 87.8605 110.348 87.8605 110.458V115.645C87.8605 115.76 87.8241 115.843 87.7563 115.895C87.6991 115.947 87.6313 115.978 87.548 115.978Z" fill="#C64FFF"/>
<path d="M90.7396 111.853C91.7396 111.853 92.2396 112.374 92.2396 113.416V115.645C92.2396 115.744 92.2031 115.827 92.1354 115.895C92.0781 115.947 92 115.978 91.9063 115.978C91.8073 115.978 91.7292 115.947 91.6771 115.895C91.6198 115.827 91.5938 115.744 91.5938 115.645V115.249C91.4792 115.489 91.3125 115.676 91.0938 115.812C90.8854 115.937 90.6406 115.999 90.3646 115.999C90.1146 115.999 89.875 115.947 89.6563 115.853C89.4479 115.744 89.2813 115.598 89.1563 115.416C89.0313 115.223 88.9688 115.015 88.9688 114.791C88.9688 114.489 89.0417 114.249 89.1979 114.082C89.349 113.916 89.599 113.801 89.9479 113.728C90.2917 113.661 90.7813 113.624 91.4063 113.624H91.5938V113.353C91.5938 113.02 91.5208 112.78 91.3854 112.624C91.2448 112.473 91.0313 112.395 90.7396 112.395C90.3646 112.395 89.9792 112.499 89.5938 112.707C89.4531 112.791 89.3542 112.832 89.3021 112.832C89.2292 112.832 89.1771 112.812 89.1354 112.77C89.0938 112.718 89.0729 112.655 89.0729 112.582C89.0729 112.499 89.0938 112.431 89.1354 112.374C89.1771 112.322 89.25 112.265 89.3646 112.207C89.5417 112.098 89.75 112.015 89.9896 111.957C90.2396 111.89 90.4896 111.853 90.7396 111.853ZM90.4688 115.478C90.7865 115.478 91.0521 115.369 91.2604 115.145C91.4792 114.926 91.5938 114.64 91.5938 114.291V114.041H91.4271C90.9531 114.041 90.5938 114.062 90.3438 114.103C90.0938 114.145 89.9115 114.218 89.8021 114.312C89.6875 114.411 89.6354 114.551 89.6354 114.728C89.6354 114.952 89.7083 115.135 89.8646 115.27C90.0313 115.411 90.2292 115.478 90.4688 115.478Z" fill="#C64FFF"/>
<path d="M97.526 111.874C97.7604 111.848 97.8802 111.937 97.8802 112.145C97.8802 112.228 97.849 112.301 97.7969 112.353C97.7552 112.411 97.6719 112.447 97.5469 112.458L97.2969 112.478C96.9323 112.51 96.6615 112.64 96.4844 112.874C96.3021 113.098 96.2135 113.364 96.2135 113.666V115.645C96.2135 115.76 96.1823 115.843 96.1302 115.895C96.0729 115.947 95.9948 115.978 95.901 115.978C95.8021 115.978 95.7187 115.947 95.651 115.895C95.5781 115.843 95.5469 115.76 95.5469 115.645V112.187C95.5469 112.093 95.5781 112.015 95.651 111.958C95.7187 111.906 95.8021 111.874 95.901 111.874C95.9844 111.874 96.0521 111.906 96.1094 111.958C96.1771 112.015 96.2135 112.093 96.2135 112.187V112.645C96.3229 112.411 96.4844 112.228 96.6927 112.103C96.901 111.978 97.1406 111.906 97.4219 111.874H97.526Z" fill="#C64FFF"/>
<path d="M101.542 115.02C101.594 115.02 101.646 115.051 101.688 115.103C101.729 115.145 101.75 115.202 101.75 115.27C101.75 115.411 101.651 115.536 101.458 115.645C101.261 115.76 101.052 115.848 100.833 115.916C100.625 115.968 100.417 115.999 100.208 115.999C99.5939 115.999 99.1095 115.822 98.7502 115.457C98.3856 115.082 98.2085 114.577 98.2085 113.937C98.2085 113.52 98.2814 113.161 98.4377 112.853C98.6043 112.536 98.8231 112.291 99.1043 112.124C99.396 111.947 99.7189 111.853 100.083 111.853C100.61 111.853 101.026 112.03 101.333 112.374C101.636 112.707 101.792 113.161 101.792 113.728C101.792 113.843 101.771 113.926 101.729 113.978C101.688 114.02 101.61 114.041 101.5 114.041H98.8752C98.9168 114.989 99.3595 115.457 100.208 115.457C100.417 115.457 100.594 115.431 100.75 115.374C100.901 115.322 101.068 115.239 101.25 115.124C101.386 115.056 101.485 115.02 101.542 115.02ZM100.104 112.374C99.7554 112.374 99.4689 112.489 99.2502 112.707C99.0418 112.916 98.922 113.223 98.896 113.624H101.208C101.193 113.223 101.089 112.916 100.896 112.707C100.714 112.489 100.448 112.374 100.104 112.374ZM100.229 111.416C100.188 111.447 100.146 111.457 100.104 111.457C100.047 111.457 100 111.447 99.9585 111.416C99.9168 111.374 99.896 111.332 99.896 111.291C99.896 111.249 99.9168 111.207 99.9585 111.166L100.896 109.916C100.99 109.791 101.104 109.728 101.229 109.728C101.323 109.728 101.401 109.76 101.458 109.812C101.511 109.869 101.542 109.947 101.542 110.041C101.542 110.155 101.49 110.26 101.396 110.353L100.229 111.416Z" fill="#C64FFF"/>
<path d="M105.795 111.874C105.889 111.874 105.967 111.906 106.024 111.958C106.092 112.015 106.128 112.093 106.128 112.187V115.666C106.128 115.749 106.092 115.827 106.024 115.895C105.967 115.947 105.889 115.978 105.795 115.978C105.696 115.978 105.618 115.947 105.566 115.895C105.509 115.843 105.483 115.765 105.483 115.666V115.249C105.358 115.499 105.175 115.687 104.941 115.812C104.717 115.937 104.462 115.999 104.17 115.999C103.696 115.999 103.342 115.869 103.108 115.603C102.868 115.343 102.753 114.947 102.753 114.416V112.187C102.753 112.093 102.779 112.015 102.837 111.958C102.889 111.906 102.972 111.874 103.087 111.874C103.181 111.874 103.259 111.906 103.316 111.958C103.384 112.015 103.42 112.093 103.42 112.187V114.416C103.42 114.765 103.488 115.02 103.628 115.187C103.764 115.353 103.988 115.437 104.295 115.437C104.639 115.437 104.92 115.327 105.128 115.103C105.347 114.869 105.462 114.572 105.462 114.208V112.187C105.462 112.093 105.488 112.015 105.545 111.958C105.597 111.906 105.681 111.874 105.795 111.874Z" fill="#C64FFF"/>
<path d="M108.702 115.999C108.452 115.999 108.207 115.968 107.973 115.916C107.749 115.848 107.556 115.76 107.389 115.645C107.291 115.593 107.223 115.536 107.181 115.478C107.139 115.411 107.119 115.332 107.119 115.249C107.119 115.181 107.139 115.124 107.181 115.082C107.223 115.041 107.27 115.02 107.327 115.02C107.395 115.02 107.494 115.056 107.619 115.124C107.785 115.239 107.942 115.322 108.098 115.374C108.264 115.431 108.462 115.457 108.702 115.457C109.004 115.457 109.233 115.411 109.389 115.312C109.556 115.202 109.639 115.051 109.639 114.853C109.639 114.728 109.603 114.635 109.535 114.562C109.478 114.478 109.374 114.411 109.223 114.353C109.082 114.301 108.874 114.244 108.598 114.187C108.108 114.077 107.764 113.937 107.556 113.77C107.348 113.593 107.244 113.353 107.244 113.062C107.244 112.827 107.306 112.619 107.431 112.437C107.567 112.26 107.754 112.119 107.994 112.02C108.228 111.911 108.494 111.853 108.785 111.853C108.994 111.853 109.192 111.885 109.389 111.937C109.598 111.994 109.775 112.077 109.931 112.187C110.108 112.312 110.202 112.447 110.202 112.582C110.202 112.655 110.181 112.718 110.139 112.77C110.098 112.812 110.046 112.832 109.994 112.832C109.921 112.832 109.817 112.791 109.681 112.707C109.525 112.614 109.379 112.536 109.244 112.478C109.119 112.426 108.952 112.395 108.744 112.395C108.494 112.395 108.285 112.452 108.119 112.562C107.962 112.676 107.889 112.827 107.889 113.02C107.889 113.145 107.916 113.244 107.973 113.312C108.041 113.385 108.139 113.452 108.264 113.52C108.4 113.577 108.598 113.635 108.848 113.687C109.223 113.76 109.504 113.848 109.702 113.957C109.91 114.056 110.056 114.176 110.139 114.312C110.233 114.452 110.285 114.635 110.285 114.853C110.285 115.187 110.139 115.468 109.848 115.687C109.556 115.895 109.171 115.999 108.702 115.999Z" fill="#C64FFF"/>
<path d="M112.633 115.999C112.383 115.999 112.138 115.968 111.903 115.916C111.68 115.848 111.487 115.76 111.32 115.645C111.221 115.593 111.153 115.536 111.112 115.478C111.07 115.411 111.049 115.332 111.049 115.249C111.049 115.181 111.07 115.124 111.112 115.082C111.153 115.041 111.2 115.02 111.258 115.02C111.325 115.02 111.424 115.056 111.549 115.124C111.716 115.239 111.872 115.322 112.028 115.374C112.195 115.431 112.393 115.457 112.633 115.457C112.935 115.457 113.164 115.411 113.32 115.312C113.487 115.202 113.57 115.051 113.57 114.853C113.57 114.728 113.534 114.635 113.466 114.562C113.409 114.478 113.305 114.411 113.153 114.353C113.013 114.301 112.805 114.244 112.528 114.187C112.039 114.077 111.695 113.937 111.487 113.77C111.278 113.593 111.174 113.353 111.174 113.062C111.174 112.827 111.237 112.619 111.362 112.437C111.497 112.26 111.685 112.119 111.924 112.02C112.159 111.911 112.424 111.853 112.716 111.853C112.924 111.853 113.122 111.885 113.32 111.937C113.528 111.994 113.706 112.077 113.862 112.187C114.039 112.312 114.133 112.447 114.133 112.582C114.133 112.655 114.112 112.718 114.07 112.77C114.028 112.812 113.976 112.832 113.924 112.832C113.851 112.832 113.747 112.791 113.612 112.707C113.456 112.614 113.31 112.536 113.174 112.478C113.049 112.426 112.883 112.395 112.674 112.395C112.424 112.395 112.216 112.452 112.049 112.562C111.893 112.676 111.82 112.827 111.82 113.02C111.82 113.145 111.846 113.244 111.903 113.312C111.971 113.385 112.07 113.452 112.195 113.52C112.331 113.577 112.528 113.635 112.778 113.687C113.153 113.76 113.435 113.848 113.633 113.957C113.841 114.056 113.987 114.176 114.07 114.312C114.164 114.452 114.216 114.635 114.216 114.853C114.216 115.187 114.07 115.468 113.778 115.687C113.487 115.895 113.101 115.999 112.633 115.999Z" fill="#C64FFF"/>
<path d="M115.563 115.978C115.465 115.978 115.381 115.947 115.313 115.895C115.241 115.843 115.209 115.76 115.209 115.645V112.187C115.209 112.093 115.241 112.015 115.313 111.958C115.381 111.906 115.465 111.874 115.563 111.874C115.657 111.874 115.735 111.906 115.793 111.958C115.845 112.015 115.876 112.093 115.876 112.187V115.645C115.876 115.76 115.845 115.843 115.793 115.895C115.735 115.947 115.657 115.978 115.563 115.978ZM115.563 110.999C115.438 110.999 115.334 110.968 115.251 110.895C115.168 110.812 115.126 110.708 115.126 110.583C115.126 110.473 115.168 110.385 115.251 110.312C115.334 110.228 115.438 110.187 115.563 110.187C115.688 110.187 115.793 110.228 115.876 110.312C115.959 110.385 116.001 110.473 116.001 110.583C116.001 110.708 115.959 110.812 115.876 110.895C115.793 110.968 115.688 110.999 115.563 110.999Z" fill="#C64FFF"/>
<path d="M118.964 115.458C119.156 115.473 119.255 115.557 119.255 115.708C119.255 115.807 119.219 115.885 119.151 115.937C119.078 115.978 118.974 115.989 118.839 115.978L118.61 115.958C118.177 115.932 117.86 115.807 117.651 115.583C117.443 115.348 117.339 114.994 117.339 114.52V112.478H116.797C116.698 112.478 116.62 112.458 116.568 112.416C116.526 112.364 116.505 112.301 116.505 112.228C116.505 112.145 116.526 112.083 116.568 112.041C116.62 111.989 116.698 111.958 116.797 111.958H117.339V111.02C117.339 110.926 117.365 110.848 117.422 110.791C117.49 110.723 117.573 110.687 117.672 110.687C117.766 110.687 117.844 110.723 117.901 110.791C117.969 110.848 118.005 110.926 118.005 111.02V111.958H118.922C119.005 111.958 119.068 111.989 119.11 112.041C119.162 112.083 119.193 112.145 119.193 112.228C119.193 112.301 119.162 112.364 119.11 112.416C119.068 112.458 119.005 112.478 118.922 112.478H118.005V114.562C118.005 114.869 118.068 115.093 118.193 115.228C118.318 115.353 118.495 115.426 118.735 115.437L118.964 115.458Z" fill="#C64FFF"/>
<path d="M122.998 115.02C123.05 115.02 123.102 115.051 123.144 115.103C123.185 115.145 123.206 115.202 123.206 115.27C123.206 115.411 123.107 115.536 122.915 115.645C122.717 115.76 122.508 115.848 122.29 115.916C122.081 115.968 121.873 115.999 121.665 115.999C121.05 115.999 120.566 115.822 120.206 115.457C119.842 115.082 119.665 114.577 119.665 113.937C119.665 113.52 119.737 113.161 119.894 112.853C120.06 112.536 120.279 112.291 120.56 112.124C120.852 111.947 121.175 111.853 121.54 111.853C122.066 111.853 122.482 112.03 122.79 112.374C123.092 112.707 123.248 113.161 123.248 113.728C123.248 113.843 123.227 113.926 123.185 113.978C123.144 114.02 123.066 114.041 122.956 114.041H120.331C120.373 114.989 120.816 115.457 121.665 115.457C121.873 115.457 122.05 115.431 122.206 115.374C122.357 115.322 122.524 115.239 122.706 115.124C122.842 115.056 122.941 115.02 122.998 115.02ZM121.56 112.374C121.211 112.374 120.925 112.489 120.706 112.707C120.498 112.916 120.378 113.223 120.352 113.624H122.665C122.649 113.223 122.545 112.916 122.352 112.707C122.17 112.489 121.904 112.374 121.56 112.374Z" fill="#C64FFF"/>
<defs>
<linearGradient id="paint0_linear_309_1700" x1="100.11" y1="15.0521" x2="22.9923" y2="46.6715" gradientUnits="userSpaceOnUse">
<stop stop-color="#C64FFF"/>
<stop offset="0.0625" stop-color="#C64FFF"/>
<stop offset="0.09375" stop-color="#C64FFF"/>
<stop offset="0.0976562" stop-color="#C54FFF"/>
<stop offset="0.101562" stop-color="#C44FFF"/>
<stop offset="0.105469" stop-color="#C44FFF"/>
<stop offset="0.109375" stop-color="#C34FFF"/>
<stop offset="0.113281" stop-color="#C34FFE"/>
<stop offset="0.117187" stop-color="#C24FFE"/>
<stop offset="0.121094" stop-color="#C24FFE"/>
<stop offset="0.125" stop-color="#C14FFE"/>
<stop offset="0.128906" stop-color="#C14FFE"/>
<stop offset="0.132812" stop-color="#C04FFE"/>
<stop offset="0.136719" stop-color="#C04FFE"/>
<stop offset="0.140625" stop-color="#BF4FFE"/>
<stop offset="0.144531" stop-color="#BE4FFE"/>
<stop offset="0.148438" stop-color="#BE4FFE"/>
<stop offset="0.152344" stop-color="#BD4FFE"/>
<stop offset="0.15625" stop-color="#BD4FFD"/>
<stop offset="0.160156" stop-color="#BC4FFD"/>
<stop offset="0.164062" stop-color="#BC4FFD"/>
<stop offset="0.167969" stop-color="#BB4FFD"/>
<stop offset="0.171875" stop-color="#BB4FFD"/>
<stop offset="0.175781" stop-color="#BA4FFD"/>
<stop offset="0.179688" stop-color="#BA4FFD"/>
<stop offset="0.183594" stop-color="#B94FFD"/>
<stop offset="0.1875" stop-color="#B84FFD"/>
<stop offset="0.191406" stop-color="#B84FFD"/>
<stop offset="0.195312" stop-color="#B74FFD"/>
<stop offset="0.199219" stop-color="#B74FFC"/>
<stop offset="0.203125" stop-color="#B64FFC"/>
<stop offset="0.207031" stop-color="#B64FFC"/>
<stop offset="0.210938" stop-color="#B54FFC"/>
<stop offset="0.214844" stop-color="#B54FFC"/>
<stop offset="0.21875" stop-color="#B44FFC"/>
<stop offset="0.222656" stop-color="#B44FFC"/>
<stop offset="0.226562" stop-color="#B34FFC"/>
<stop offset="0.230469" stop-color="#B34FFC"/>
<stop offset="0.234375" stop-color="#B24FFC"/>
<stop offset="0.238281" stop-color="#B14FFC"/>
<stop offset="0.242188" stop-color="#B14FFC"/>
<stop offset="0.246094" stop-color="#B04FFB"/>
<stop offset="0.25" stop-color="#B04FFB"/>
<stop offset="0.253906" stop-color="#AF4FFB"/>
<stop offset="0.257812" stop-color="#AF4FFB"/>
<stop offset="0.261719" stop-color="#AE4FFB"/>
<stop offset="0.265625" stop-color="#AE4FFB"/>
<stop offset="0.269531" stop-color="#AD4FFB"/>
<stop offset="0.273437" stop-color="#AD4FFB"/>
<stop offset="0.277344" stop-color="#AC4FFB"/>
<stop offset="0.28125" stop-color="#AB4FFB"/>
<stop offset="0.285156" stop-color="#AB4FFB"/>
<stop offset="0.289062" stop-color="#AA4FFA"/>
<stop offset="0.292969" stop-color="#AA4EFA"/>
<stop offset="0.296875" stop-color="#A94EFA"/>
<stop offset="0.300781" stop-color="#A94EFA"/>
<stop offset="0.304688" stop-color="#A84EFA"/>
<stop offset="0.308594" stop-color="#A84EFA"/>
<stop offset="0.3125" stop-color="#A74EFA"/>
<stop offset="0.316406" stop-color="#A74EFA"/>
<stop offset="0.320312" stop-color="#A64EFA"/>
<stop offset="0.324219" stop-color="#A64EFA"/>
<stop offset="0.328125" stop-color="#A54EFA"/>
<stop offset="0.332031" stop-color="#A44EF9"/>
<stop offset="0.335938" stop-color="#A44EF9"/>
<stop offset="0.339844" stop-color="#A34EF9"/>
<stop offset="0.34375" stop-color="#A34EF9"/>
<stop offset="0.347656" stop-color="#A24EF9"/>
<stop offset="0.351562" stop-color="#A24EF9"/>
<stop offset="0.355469" stop-color="#A14EF9"/>
<stop offset="0.359375" stop-color="#A14EF9"/>
<stop offset="0.363281" stop-color="#A04EF9"/>
<stop offset="0.367188" stop-color="#A04EF9"/>
<stop offset="0.371094" stop-color="#9F4EF9"/>
<stop offset="0.375" stop-color="#9E4EF8"/>
<stop offset="0.378906" stop-color="#9E4EF8"/>
<stop offset="0.382812" stop-color="#9D4EF8"/>
<stop offset="0.386719" stop-color="#9D4EF8"/>
<stop offset="0.390625" stop-color="#9C4EF8"/>
<stop offset="0.394531" stop-color="#9C4EF8"/>
<stop offset="0.398438" stop-color="#9B4EF8"/>
<stop offset="0.402344" stop-color="#9B4EF8"/>
<stop offset="0.40625" stop-color="#9A4EF8"/>
<stop offset="0.410156" stop-color="#9A4EF8"/>
<stop offset="0.414062" stop-color="#994EF8"/>
<stop offset="0.417969" stop-color="#994EF7"/>
<stop offset="0.421875" stop-color="#984EF7"/>
<stop offset="0.425781" stop-color="#974EF7"/>
<stop offset="0.429687" stop-color="#974EF7"/>
<stop offset="0.433594" stop-color="#964EF7"/>
<stop offset="0.4375" stop-color="#964EF7"/>
<stop offset="0.441406" stop-color="#954EF7"/>
<stop offset="0.445312" stop-color="#954EF7"/>
<stop offset="0.449219" stop-color="#944EF7"/>
<stop offset="0.453125" stop-color="#944EF7"/>
<stop offset="0.457031" stop-color="#934EF7"/>
<stop offset="0.460938" stop-color="#934EF6"/>
<stop offset="0.464844" stop-color="#924EF6"/>
<stop offset="0.46875" stop-color="#914EF6"/>
<stop offset="0.472656" stop-color="#914EF6"/>
<stop offset="0.476562" stop-color="#904EF6"/>
<stop offset="0.480469" stop-color="#904EF6"/>
<stop offset="0.484375" stop-color="#8F4EF6"/>
<stop offset="0.488281" stop-color="#8F4EF6"/>
<stop offset="0.492188" stop-color="#8E4EF6"/>
<stop offset="0.496094" stop-color="#8E4EF6"/>
<stop offset="0.5" stop-color="#8D4EF6"/>
<stop offset="0.503906" stop-color="#8D4EF5"/>
<stop offset="0.507812" stop-color="#8C4EF5"/>
<stop offset="0.511719" stop-color="#8C4EF5"/>
<stop offset="0.515625" stop-color="#8B4EF5"/>
<stop offset="0.519531" stop-color="#8A4EF5"/>
<stop offset="0.523438" stop-color="#8A4EF5"/>
<stop offset="0.527344" stop-color="#894EF5"/>
<stop offset="0.53125" stop-color="#894EF5"/>
<stop offset="0.535156" stop-color="#884EF5"/>
<stop offset="0.539063" stop-color="#884EF5"/>
<stop offset="0.542969" stop-color="#874EF5"/>
<stop offset="0.546875" stop-color="#874EF4"/>
<stop offset="0.550781" stop-color="#864EF4"/>
<stop offset="0.554688" stop-color="#864EF4"/>
<stop offset="0.558594" stop-color="#854EF4"/>
<stop offset="0.5625" stop-color="#844EF4"/>
<stop offset="0.566406" stop-color="#844EF4"/>
<stop offset="0.570312" stop-color="#834EF4"/>
<stop offset="0.574219" stop-color="#834EF4"/>
<stop offset="0.578125" stop-color="#824EF4"/>
<stop offset="0.582031" stop-color="#824EF4"/>
<stop offset="0.585937" stop-color="#814EF4"/>
<stop offset="0.589844" stop-color="#814EF3"/>
<stop offset="0.59375" stop-color="#804EF3"/>
<stop offset="0.597656" stop-color="#804EF3"/>
<stop offset="0.601562" stop-color="#7F4EF3"/>
<stop offset="0.605469" stop-color="#7F4EF3"/>
<stop offset="0.609375" stop-color="#7E4EF3"/>
<stop offset="0.613281" stop-color="#7D4EF3"/>
<stop offset="0.617187" stop-color="#7D4EF3"/>
<stop offset="0.621094" stop-color="#7C4EF3"/>
<stop offset="0.625" stop-color="#7C4EF3"/>
<stop offset="0.628906" stop-color="#7B4EF3"/>
<stop offset="0.632812" stop-color="#7B4EF3"/>
<stop offset="0.636719" stop-color="#7A4EF2"/>
<stop offset="0.640625" stop-color="#7A4EF2"/>
<stop offset="0.644531" stop-color="#794EF2"/>
<stop offset="0.648437" stop-color="#794EF2"/>
<stop offset="0.652344" stop-color="#784EF2"/>
<stop offset="0.65625" stop-color="#774DF2"/>
<stop offset="0.660156" stop-color="#774DF2"/>
<stop offset="0.664062" stop-color="#764DF2"/>
<stop offset="0.667969" stop-color="#764DF2"/>
<stop offset="0.671875" stop-color="#754DF2"/>
<stop offset="0.675781" stop-color="#754DF2"/>
<stop offset="0.679688" stop-color="#744DF1"/>
<stop offset="0.683594" stop-color="#744DF1"/>
<stop offset="0.6875" stop-color="#734DF1"/>
<stop offset="0.691406" stop-color="#734DF1"/>
<stop offset="0.695312" stop-color="#724DF1"/>
<stop offset="0.699219" stop-color="#724DF1"/>
<stop offset="0.703125" stop-color="#714DF1"/>
<stop offset="0.707031" stop-color="#704DF1"/>
<stop offset="0.710938" stop-color="#704DF1"/>
<stop offset="0.714844" stop-color="#6F4DF1"/>
<stop offset="0.71875" stop-color="#6F4DF1"/>
<stop offset="0.722656" stop-color="#6E4DF0"/>
<stop offset="0.726562" stop-color="#6E4DF0"/>
<stop offset="0.730469" stop-color="#6D4DF0"/>
<stop offset="0.734375" stop-color="#6D4DF0"/>
<stop offset="0.738281" stop-color="#6C4DF0"/>
<stop offset="0.742187" stop-color="#6C4DF0"/>
<stop offset="0.746094" stop-color="#6B4DF0"/>
<stop offset="0.75" stop-color="#6A4DF0"/>
<stop offset="0.753906" stop-color="#6A4DF0"/>
<stop offset="0.757812" stop-color="#694DF0"/>
<stop offset="0.761719" stop-color="#694DF0"/>
<stop offset="0.765625" stop-color="#684DEF"/>
<stop offset="0.769531" stop-color="#684DEF"/>
<stop offset="0.773437" stop-color="#674DEF"/>
<stop offset="0.777344" stop-color="#674DEF"/>
<stop offset="0.78125" stop-color="#664DEF"/>
<stop offset="0.785156" stop-color="#664DEF"/>
<stop offset="0.789062" stop-color="#654DEF"/>
<stop offset="0.792969" stop-color="#654DEF"/>
<stop offset="0.796875" stop-color="#644DEF"/>
<stop offset="0.800781" stop-color="#634DEF"/>
<stop offset="0.804688" stop-color="#634DEF"/>
<stop offset="0.808594" stop-color="#624DEE"/>
<stop offset="0.8125" stop-color="#624DEE"/>
<stop offset="0.816406" stop-color="#614DEE"/>
<stop offset="0.820312" stop-color="#614DEE"/>
<stop offset="0.824219" stop-color="#604DEE"/>
<stop offset="0.828125" stop-color="#604DEE"/>
<stop offset="0.84375" stop-color="#5F4DEE"/>
<stop offset="0.875" stop-color="#5F4DEE"/>
<stop offset="1" stop-color="#5F4DEE"/>
</linearGradient>
</defs>
</svg>
